<?xml version="1.0" encoding="UTF-8" standalone="no"?>
<svg
   xmlns:dc="http://purl.org/dc/elements/1.1/"
   xmlns:cc="http://creativecommons.org/ns#"
   xmlns:rdf="http://www.w3.org/1999/02/22-rdf-syntax-ns#"
   xmlns:svg="http://www.w3.org/2000/svg"
   xmlns="http://www.w3.org/2000/svg"
   xmlns:xlink="http://www.w3.org/1999/xlink"
   xmlns:sodipodi="http://sodipodi.sourceforge.net/DTD/sodipodi-0.dtd"
   xmlns:inkscape="http://www.inkscape.org/namespaces/inkscape"
   width="72.249mm"
   height="72.249mm"
   version="1.1"
   viewBox="0 0 256 255.99998"
   id="svg4120"
   inkscape:version="0.91 r13725"
   sodipodi:docname="logo.svg">
  <metadata
     id="metadata4229">
    <rdf:RDF>
      <cc:Work
         rdf:about="">
        <dc:format>image/svg+xml</dc:format>
        <dc:type
           rdf:resource="http://purl.org/dc/dcmitype/StillImage" />
      </cc:Work>
    </rdf:RDF>
  </metadata>
  <sodipodi:namedview
     pagecolor="#ffffff"
     bordercolor="#666666"
     borderopacity="1"
     objecttolerance="10"
     gridtolerance="10"
     guidetolerance="10"
     inkscape:pageopacity="0"
     inkscape:pageshadow="2"
     inkscape:window-width="1382"
     inkscape:window-height="1040"
     id="namedview4227"
     showgrid="false"
     inkscape:zoom="1.3037261"
     inkscape:cx="252.45118"
     inkscape:cy="95.596564"
     inkscape:window-x="0"
     inkscape:window-y="0"
     inkscape:window-maximized="0"
     inkscape:current-layer="g4148" />
  <defs
     id="defs4122">
    <linearGradient
       id="linearGradient4223">
      <stop
         stop-color="#e09126"
         offset="0"
         id="stop4125" />
      <stop
         stop-color="#a7630b"
         offset=".084615"
         id="stop4127" />
      <stop
         stop-color="#b26b0f"
         offset=".61538"
         id="stop4129" />
      <stop
         stop-color="#e09126"
         offset=".8389"
         id="stop4131" />
      <stop
         stop-color="#c67d19"
         offset=".91056"
         id="stop4133" />
      <stop
         stop-color="#925300"
         offset="1"
         id="stop4135" />
    </linearGradient>
    <linearGradient
       id="linearGradient8106"
       x1="564.29"
       x2="714.29"
       y1="675.22"
       y2="565.22"
       gradientUnits="userSpaceOnUse"
       xlink:href="#linearGradient4223" />
    <linearGradient
       id="linearGradient8114"
       x1="15"
       x2="75"
       y1="10"
       y2="140"
       gradientTransform="translate(559.29,560.22)"
       gradientUnits="userSpaceOnUse"
       xlink:href="#linearGradient4223" />
    <linearGradient
       id="linearGradient4280"
       x1="638.04"
       x2="638.04"
       y1="566.93"
       y2="701.68"
       gradientUnits="userSpaceOnUse">
      <stop
         stop-color="#e78b10"
         offset="0"
         id="stop4140" />
      <stop
         stop-color="#b36b0e"
         offset=".067615"
         id="stop4142" />
      <stop
         stop-color="#b0690e"
         offset=".8"
         id="stop4144" />
      <stop
         stop-color="#e69222"
         stop-opacity=".94902"
         offset="1"
         id="stop4146" />
    </linearGradient>
  </defs>
  <g
     transform="translate(1052.7 193.78)"
     id="g4148">
    <g
       transform="matrix(1.8469,0,0,1.8469,-2104.8341,-1241.3176)"
       id="g4150">
      <g
         id="g4152"
         style="fill-rule:evenodd">
        <path
           d="m 638.29,566.63 0,137.61 c 4.0118,-7.9952 36.623,-5.0618 50.508,-33.615 17.072,-35.106 13.493,-100.38 16.43,-101.39 l -66.938,-2.6016 z"
           id="path4154"
           style="fill:url(#linearGradient8106)"
           inkscape:connector-curvature="0" />
        <path
           d="m 638.29,566.63 -67.006,2.6113 c 3,1 -0.57737,66.275 16.494,101.38 13.887,28.558 46.506,25.619 50.51,33.619 6.4e-4,-0.001 10e-4,-0.003 0.002,-0.004 l -5e-5,-137.61 z"
           id="path4156"
           style="fill:url(#linearGradient8114)"
           inkscape:connector-curvature="0" />
        <path
           d="m 638.29,572.95 0,57.271 55.93,0 c 3.9373,-27.308 3.0649,-54.293 4.8574,-54.908 l -60.787,-2.3633 z"
           id="path4158"
           inkscape:connector-curvature="0"
           style="fill:#13213b" />
        <path
           d="m 638.29,630.22 0,67.693 c 3.6579,-7.253 33.261,-4.5978 45.867,-30.521 5.0832,-10.453 8.1419,-23.851 10.062,-37.172 l -55.93,0 z"
           id="path4160"
           inkscape:connector-curvature="0"
           style="fill:#134e23" />
        <path
           d="m 582.37,630.22 c 1.9228,13.321 4.9831,26.719 10.066,37.172 12.612,25.936 42.235,23.266 45.871,30.531 0.002,-0.003 0.004,-0.006 0.006,-0.01 l -4e-5,-67.693 -55.943,0 z"
           id="path4162"
           inkscape:connector-curvature="0"
           style="fill:#0d7dd4" />
        <path
           d="m 638.28,572.95 -60.854,2.3711 c 1.8312,0.61041 0.97037,27.593 4.9121,54.9 l 55.943,0 0,-57.271 -0.002,0 z"
           id="path4164"
           inkscape:connector-curvature="0"
           style="fill:#ffb900" />
      </g>
      <path
         d="m 638.29,566.63 66,2.5666 c 0.71123,0 0.48191,0.85999 0.48191,0.85999 -2.132,7.748 0.0944,67.522 -15.975,100.57 -13.887,28.558 -46.506,25.619 -50.51,33.619 -4.0033,-8 -36.622,-5.0607 -50.51,-33.619 -16.51,-33.951 -13.707,-96.118 -16.218,-101.08 0,0 -0.14521,-0.33422 0.49561,-0.33422 z"
         id="path4166"
         style="fill:none;stroke:url(#linearGradient4280);stroke-linecap:round;stroke-linejoin:round"
         inkscape:connector-curvature="0" />
      <g
         transform="matrix(0.94002,0,0,0.94002,36.905,38.083)"
         id="g4168">
        <path
           d="m 609.98,638.79 a 2.9393,2.9393 0 0 1 -2.9393,2.9393 2.9393,2.9393 0 0 1 -2.9393,-2.9393 2.9393,2.9393 0 0 1 2.9393,-2.9393 2.9393,2.9393 0 0 1 2.9393,2.9393 z"
           id="path4170"
           inkscape:connector-curvature="0"
           style="fill:none;stroke:#ffe8e8;stroke-linejoin:round" />
        <g
           id="g4172">
          <circle
             cx="614.28998"
             cy="659.47998"
             r="20.003"
             id="circle4174"
             style="fill:#ffe8e8" />
          <circle
             transform="matrix(0.96865,-0.24842,0.24842,0.96865,0,0)"
             cx="431.20001"
             cy="791.40997"
             r="17.253"
             id="circle4176"
             style="fill:#065078" />
          <path
             transform="translate(559.29,560.22)"
             d="m 52.045,87.787 1.5488,9.1113 a 2.7532,2.7532 0 0 1 1.4082,-0.38867 2.7532,2.7532 0 0 1 0.20117,0.0098 l -3.1582,-8.7325 z M 66,87.99989 55.682,96.59759 a 2.7532,2.7532 0 0 1 2.0684,2.5098 l 8.4629,-3.0625 -8.0586,1.3711 7.8457,-9.416 z m -17.924,7.0078 4.4258,3.1055 a 2.7532,2.7532 0 0 1 0.55469,-0.79688 l -4.9805,-2.3086 z m 4.2012,3.877 -8.4902,3.0703 8.0586,-1.3711 -7.8457,9.416 9.873,-8.2285 a 2.7532,2.7532 0 0 1 -1.625,-2.5098 2.7532,2.7532 0 0 1 0.0293,-0.37695 z m 5.375,1.1094 a 2.7532,2.7532 0 0 1 -0.39062,0.83594 l 4.6621,2.1621 -4.2715,-2.998 z m -1.1641,1.584 a 2.7532,2.7532 0 0 1 -1.4863,0.4375 2.7532,2.7532 0 0 1 -0.01172,0 l 2.9648,8.1973 -1.4668,-8.6348 z"
             id="path4178"
             inkscape:connector-curvature="0"
             style="fill:#ffe8e8;fill-rule:evenodd" />
        </g>
        <circle
           cx="614.28998"
           cy="659.47998"
           r="2.7532001"
           id="circle4180"
           style="fill:none;stroke:#ffe8e8;stroke-linejoin:round" />
        <g
           id="g4182"
           style="fill:#ffffff;stroke-width:1px">
          <g
             transform="matrix(0.96865,-0.24842,0.24842,0.96865,0,0)"
             id="g4184">
            <path
               d="m 432.87,775.74 -0.10882,0 q -0.20653,0 -0.28204,0.11993 -0.0511,0.0733 -0.0511,0.33978 l 0,2.6427 -0.0822,0 -2.072,-2.5228 0,1.9254 q 0,0.2887 0.0644,0.36421 0.0799,0.0955 0.27315,0.0955 l 0.10882,0 0,0.0866 -1.0926,0 0,-0.0866 0.11104,0 q 0.20654,0 0.28204,-0.12214 0.0533,-0.0666 0.0533,-0.33756 l 0,-2.1764 q -0.0355,-0.0466 -0.0733,-0.0933 -0.0355,-0.0489 -0.0733,-0.0955 -0.15101,-0.13991 -0.37975,-0.13991 l 0,-0.0799 0.76173,0 1.9143,2.3474 0,-1.8077 q 0,-0.29093 -0.0666,-0.35755 -0.0911,-0.10216 -0.27316,-0.10216 l -0.10438,0 0,-0.0799 1.0904,0 0,0.0799 z"
               id="path4186"
               inkscape:connector-curvature="0"
               style="fill:#ffe8e8" />
          </g>
          <g
             transform="matrix(0.24842,0.96865,-0.96865,0.24842,0,0)"
             id="g4188">
            <path
               d="m 792.75,-444.61 -0.27316,0.78838 -2.4096,0 0,-0.0866 0.1066,0 q 0.1599,0 0.24873,-0.0755 0.0888,-0.0755 0.0888,-0.39308 l 0,-2.0365 q 0,-0.29758 -0.06,-0.36199 -0.0444,-0.0466 -0.11326,-0.0711 -0.0666,-0.0267 -0.16434,-0.0267 l -0.1066,0 0,-0.0799 2.4096,0 0.0377,0.68178 -0.091,0 q -0.0377,-0.15101 -0.0666,-0.23984 -0.0289,-0.0911 -0.0511,-0.12215 -0.11992,-0.15101 -0.48857,-0.15101 l -0.86389,0 0,1.2392 0.68844,0 q 0.29315,0 0.39086,-0.1066 0.0688,-0.0777 0.10438,-0.34644 l 0.0866,0 0,1.0882 -0.0866,0 q -0.0355,-0.27538 -0.10438,-0.35311 -0.0977,-0.11104 -0.39086,-0.11104 l -0.68844,0 0,1.0349 q 0,0.20209 0.0222,0.24651 0.0466,0.10215 0.23984,0.10215 l 0.53077,0 q 0.36865,0 0.53743,-0.1177 0.14657,-0.10437 0.37087,-0.5019 l 0.0955,0 z"
               id="path4190"
               inkscape:connector-curvature="0"
               style="fill:#ffe8e8" />
          </g>
          <g
             transform="matrix(-0.24842,-0.96865,0.96865,-0.24842,0,0)"
             id="g4192">
            <path
               d="m -789.23,415.53 q -0.11548,0 -0.20209,0.0533 -0.0844,0.0533 -0.14213,0.15546 -0.0244,0.0489 -0.0622,0.14435 -0.0355,0.0933 -0.0866,0.23985 l -0.87055,2.5317 -0.0955,0 -0.71065,-2.0032 -0.70843,2.0032 -0.0844,0 -0.93051,-2.605 q -0.13325,-0.37754 -0.19099,-0.41751 -0.0822,-0.10216 -0.28204,-0.10216 l 0,-0.0799 1.1548,0 0,0.0799 -0.0533,0 q -0.171,0 -0.22208,0.10438 -0.0222,0.0422 -0.0222,0.0822 0,0.0444 0.0222,0.13769 0.0244,0.0933 0.0755,0.23762 l 0.61516,1.7633 0.51966,-1.499 q -0.0266,-0.0933 -0.0555,-0.17322 -0.0266,-0.08 -0.0533,-0.15102 -0.0666,-0.171 -0.12436,-0.27315 -0.0555,-0.10216 -0.1066,-0.14658 -0.1066,-0.0822 -0.26205,-0.0822 l 0,-0.0799 1.2192,0 0,0.0799 -0.0822,0 q -0.25095,0 -0.25095,0.20654 0,0.0644 0.0244,0.16656 0.0267,0.10215 0.0777,0.24206 l 0.60628,1.71 0.59517,-1.7322 q 0.0511,-0.13991 0.0733,-0.23319 0.0244,-0.0955 0.0244,-0.14435 0,-0.21542 -0.34422,-0.21542 l 0,-0.0799 0.93495,0 0,0.0799 z"
               id="path4194"
               inkscape:connector-curvature="0"
               style="fill:#ffe8e8" />
          </g>
          <g
             transform="matrix(-0.96865,0.24842,-0.24842,-0.96865,0,0)"
             id="g4196">
            <path
               d="m -430.16,-804.76 q 0,0.35977 -0.2776,0.61738 -0.28648,0.25539 -0.70843,0.25539 -0.25317,0 -0.52855,-0.0933 -0.27316,-0.0888 -0.31757,-0.0888 -0.10882,0 -0.13991,0.1821 l -0.0822,0 0,-1.0726 0.0822,0 q 0.0533,0.4486 0.32867,0.68401 0.24207,0.20653 0.60628,0.20653 0.27316,0 0.45304,-0.15546 0.16878,-0.14435 0.16878,-0.35532 0,-0.21986 -0.171,-0.37754 -0.13325,-0.11992 -0.58407,-0.37531 -0.2776,-0.15546 -0.4597,-0.28204 -0.17988,-0.12881 -0.27094,-0.23541 -0.17766,-0.19542 -0.17766,-0.49079 0,-0.34422 0.24651,-0.58185 0.25095,-0.24206 0.66179,-0.24206 0.1066,0 0.21986,0.0222 0.11326,0.0222 0.23096,0.0666 0.24207,0.0888 0.27316,0.0888 0.10216,0 0.15324,-0.17766 l 0.0844,0 0,1.0837 -0.0844,0 q -0.0444,-0.43083 -0.28649,-0.66401 -0.12214,-0.11993 -0.26871,-0.17767 -0.14657,-0.06 -0.31535,-0.06 -0.23319,0 -0.39086,0.14213 -0.16212,0.14213 -0.16212,0.33978 0,0.18211 0.15545,0.32646 0.0777,0.0755 0.23097,0.17322 0.15545,0.0977 0.39086,0.2243 0.21097,0.11326 0.35976,0.20431 0.15102,0.0888 0.24429,0.1599 0.33534,0.25539 0.33534,0.65291 z"
               id="path4198"
               inkscape:connector-curvature="0"
               style="fill:#ffe8e8" />
          </g>
        </g>
      </g>
      <g
         transform="matrix(0.12408,0,0,0.12408,585.83,580.43)"
         id="g4200">
        <circle
           cx="176.48"
           cy="170.07001"
           r="167.64999"
           id="circle4202"
           style="fill:none;stroke:#d94300;stroke-width:3.97659993;stroke-linejoin:round" />
        <g
           id="g4204">
          <path
             d="m 176.48,1.4316 a 168.64,168.64 0 0 0 -12.592,0.50195 c 3.3312,2.8686 14.333,0.53522 18.945,0.91602 2.5777,-0.029018 5.2763,-0.34998 7.7656,-0.71289 A 168.64,168.64 0 0 0 176.4796,1.4316 Z m -13.646,0.71875 0.10156,0 -0.10156,0 z m 36.242,0.99414 c -0.24427,0.24168 -0.5036,0.49319 -0.84375,0.78711 4.8319,3.5904 10.197,2.4275 17.303,2.2793 a 168.64,168.64 0 0 0 -16.459,-3.0664 z m -54.727,1.5195 a 168.64,168.64 0 0 0 -123.72,101.19 c -0.42562,1.3517 -0.70084,2.4125 -0.79297,3.0957 6.2935,-11.908 -2.7217,17.978 5,9.1016 2.1219,10.166 -12.758,23.47 3.5,8.1992 -2.2068,11.529 3.0063,-1.4575 4.2773,2.1934 0.5292,-15.19 19.916,0.95944 17.924,-13.893 -9.339,0.18979 28.631,-17.106 4.7363,-15.467 -17.386,2.132 8.6682,-23.508 8.377,-29.623 14.528,-14.269 -4.059,11.799 14.486,3.3887 3.1403,-2.3883 5.785,16.149 14.5,3 10.649,-6.4665 14.344,-20.524 -1.6328,-13.117 0.50711,-4.7482 16.01,-5.9608 2.5273,-7.5039 5.5316,-10.592 17.185,-8.9376 25.418,-17.396 -1.4048,-9.1899 -29.089,-0.35773 -10.213,-11.182 6.1545,-7.9856 9.223,-14.652 22.201,-15.6 0.0942,-1.112 7.0605,-3.9161 13.414,-6.3867 z m -111.74,123.78 c -0.04104,1.1781 0.01789,2.5229 0.22266,4.1074 0.11637,-2.1444 0.0168,-3.4196 -0.22266,-4.1074 z m 194.32,-119.25 c -6.9909,-0.27238 -12.798,13.947 5.6719,14.428 -0.72549,12.69 22.105,29.944 14.561,34.725 -8.373,-0.92345 -22.551,-19.005 -15.125,-0.89648 -5.9161,-14.776 -9.4694,10.237 -8.8613,11.08 12.681,3.5902 29.207,0.76633 35.217,11.963 15.189,-6.9672 35.014,-0.15178 37.943,14.059 0.27066,2.7887 16.053,15.913 -0.13672,12.262 4.0688,15.823 3.9709,18.706 -4.9297,1.8125 -17.989,6.5346 -6.2918,24.328 -4.0332,37.324 -13.444,9.2441 -21.983,4.9783 -17.889,-12.148 -18.893,-5.3981 -24.337,-30.253 -41.012,-29.051 -10.352,-9.8691 -14.673,7.6245 -21.551,10.25 -7.4316,14.272 34.521,17.911 16.197,33.387 -3.8526,-13.914 -34.32,-13.447 -24.379,7.5156 -0.49102,26.842 32.896,-12.353 18.174,14.336 -0.38774,13.599 19.81,39.722 26.459,20.512 4.0369,15.762 3.2608,32.942 -6.8535,43.084 -9.5481,16.798 26.653,-2.2731 14.332,18.662 -11.056,3.0366 -4.0639,9.9155 3.2031,4.2051 -2.6343,8.4659 9.7036,9.7973 7.9531,18.016 0.1165,0.0747 0.26859,0.2626 0.46484,0.63281 -0.31605,0.46893 -0.53654,0.34761 -0.65234,0.0937 -0.34003,1.1342 -0.9251,2.3883 -1.8477,3.8066 7.2595,0.041 18.625,-26.699 26.162,-16.32 -6.0382,9.7446 1.786,3.1776 10.42,-3.5098 -0.15474,0.27451 -0.29203,0.55233 -0.38086,0.83008 0.94741,-0.91834 1.5683,-1.5734 2.0469,-2.1074 4.851,-3.7066 9.697,-7.1357 12.268,-7.4551 0.79959,-2.9985 2.8412,-6.1623 5.2734,-9.3711 -0.67262,1.2584 -1.6184,3.3439 -2.7891,6.4336 2.9374,-4.3852 4.1011,-7.5045 3.9258,-7.9062 7.8404,-9.9504 18.355,-20.17 7.3867,-27.186 -3.636,11.045 -13.895,27.146 -25.617,26.064 3.7614,-11.012 -6.955,-18.306 7.8438,-28.475 5.0922,-6.411 6.963,-13.933 11.822,-6.4492 2.2315,-13.181 16.086,-27.227 14.574,-41.57 -3.5265,-5.521 1.8218,-17.09 2.3652,-20.279 -9.5032,2.2503 1.7059,-13.15 -11.365,-4.0352 -5.3419,-9.7177 1.3942,-26.378 -4.4805,-23.865 -16.905,-8.4402 -5.024,-22.687 5.0391,-7.4297 8.891,0.98462 -0.60626,-17.807 -0.24805,-5.7324 -10.466,-2.2396 -7.4227,-27.734 0.12305,-9.5059 -0.55742,-1.8889 -1.1878,-3.7403 -1.8789,-5.5566 a 168.64,168.64 0 0 0 -57.154,-58.939 c -2.2559,-0.3318 -1.4924,0.47166 -7.0762,-2.4824 1.2169,2.7273 -5.8713,-2.858 -8.9941,-6.3008 a 168.64,168.64 0 0 0 -22.143,-8.9043 c -0.01,-4.368e-4 -0.0195,-0.00353 -0.0293,-0.00391 z m 34.754,266.25 c 0.0744,-0.2483 0.13711,-0.49002 0.1875,-0.72656 -0.30164,-0.19336 -0.34237,0.38705 -0.1875,0.72656 z m -122.05,-254.78 c -0.50624,0.04325 -0.90877,0.41072 -0.69141,1.3828 3.4162,-0.0098 1.8051,-1.478 0.69141,-1.3828 z m 121.81,3.9824 0.29883,0.19922 -0.29883,-0.19922 z m 0.64258,0.35742 c -0.0439,-0.0026 -0.0188,0.05963 0.15625,0.24219 0.73694,0.35396 -0.0244,-0.23426 -0.15625,-0.24219 z m -125.48,0.92969 c -0.94618,-0.04116 -2.7838,4.4778 0.43945,0.91211 -0.0503,-0.65064 -0.2211,-0.90261 -0.43945,-0.91211 z m -3.2754,2.0469 c -0.42529,-0.14184 -2.1344,2.3845 -0.18555,1.2656 0.32662,-0.87378 0.32731,-1.2183 0.18555,-1.2656 z m -3.3828,2.4629 c -1.8067,0.03056 -3.6811,0.80055 -1.7031,2.7031 6.2368,-1.5602 4.0261,-2.7424 1.7031,-2.7031 z m -3.2031,3.002 c -2.7701,2.4026 4.7363,1.814 0,0 z m -3.5898,1.6973 c -3.4886,0.07766 0.62409,12.133 1.9902,0.80274 -0.83882,-0.58094 -1.4919,-0.81383 -1.9902,-0.80274 z m 113.31,7.127 c -0.98063,-0.08494 -1.5979,0.89198 -1.1191,3.877 10.276,6.1883 4.061,-3.6222 1.1191,-3.877 z m -5.6504,0.92969 c -1.3915,-0.05358 -2.6398,0.34241 0.43164,1.3477 2.4946,-0.79093 0.95988,-1.2941 -0.43164,-1.3477 z m -0.94922,1.3301 0.38086,0.01758 -0.38086,-0.01758 z m -116.42,6.5176 c -11.376,-0.76725 -9.4453,25.229 0,0 z m -8.8008,11.799 0,0.20117 0,-0.20117 z m -14.67,18.848 c -7.7589,0.13427 -22.028,13.485 -5.625,10.109 0.34568,2.7888 10.583,-4.1513 9.7949,-6.457 -0.33553,-2.6923 -1.9974,-3.6899 -4.1699,-3.6523 z m 113.15,26.881 c -1.311,-0.0535 -4.2876,3.0704 -0.0762,2.6719 0.9242,-1.966 0.67207,-2.6475 0.0762,-2.6719 z m -133.13,3.0039 c -1.1298,-0.0391 -2.5093,0.74541 -0.74805,2.4688 2.758,-1.5668 1.8779,-2.4296 0.74805,-2.4688 z m 129.2,3.4941 c -1.4401,-0.009 -2.8293,0.64178 0.1543,1.9746 2.7767,-1.298 1.2858,-1.9659 -0.1543,-1.9746 z m -129.31,1.7559 c 2.8789,11.765 -9.3555,14.721 -11.131,21.219 20.852,8.861 20.137,-13.486 11.131,-21.219 z m 129.69,1.2129 c -0.77392,-0.072 -1.4255,0.9946 -1.5195,4.2051 7.2604,6.4701 3.8413,-3.989 1.5195,-4.2051 z m -5.0742,0.94336 c -0.62973,0.10567 -0.80127,0.84604 0.45507,2.7617 4.5302,-0.15472 0.93032,-2.9942 -0.45507,-2.7617 z m -173.35,0.86133 -0.09961,0.0996 0.09961,-0.0996 z m 62,2.5996 c -6.0775,1.4284 0.32276,5.2742 0,0 z m -1.7656,3.0664 c -1.5335,-0.1651 -3.2423,1.7479 -4.0352,7.9336 9.9349,2.855 7.4088,-7.5704 4.0352,-7.9336 z m -44.717,0.31446 c -1.6117,0.0204 -3.7528,2.6603 -0.81836,6.8203 3.2502,-4.817 2.2405,-6.8383 0.81836,-6.8203 z m 1.6914,4.3633 c -2.7323,0.2497 1.4196,7.0177 2.291,0.65625 -1.0427,-0.52564 -1.785,-0.70249 -2.291,-0.65625 z m 18.092,3.6562 c -1.5106,8.3096 3.9675,0.17091 0,0 z m -17.367,0.0547 c -0.68109,-0.26307 -4.9651,6.9353 -1.5332,4.7461 1.5155,-3.3971 1.7997,-4.6432 1.5332,-4.7461 z m 297.22,0.28906 c -0.3073,-0.31669 0.14698,7.7588 0.74804,5.3574 -0.38965,-3.8244 -0.6278,-5.2335 -0.74804,-5.3574 z m -294.86,0.15039 c -1.5359,0.12588 -3.7767,2.266 -3.7949,7.4062 6.5791,-4.4004 5.7697,-7.5681 3.7949,-7.4062 z m 293.52,4.0781 c -1.7107,-0.0778 3.3443,8.3752 1.1875,0.6289 -0.56132,-0.43134 -0.94311,-0.61779 -1.1875,-0.6289 z m -298,2.5976 -0.81641,1.9297 0.81641,-1.9297 z m 7.7832,0.23047 c -11.577,4.9358 -11.082,21.77 3.707,15.221 0.44778,4.3337 1.5464,-0.63597 1.0938,-1.7207 13.949,-11.907 -12.963,-0.58165 -4.8008,-13.5 z m 2.5,1.1992 c -6.4794,0.95844 2.0577,8.2172 0,0 z m 65.66,2.2422 c -0.53829,-0.0383 -1.9002,1.9804 -0.66016,2.959 1.0092,-2.1722 0.98313,-2.936 0.66016,-2.959 z m -1.5606,1.959 0.20117,0.29883 -0.20117,-0.29883 z m -3.7793,1.9688 c -2.8349,-0.14476 -6.658,1.3734 -10.479,5.4648 -12.834,3.4507 -24.381,8.2411 -32.82,-2.3457 -2.9291,0.8393 -5.0877,1.797 -6.6641,2.8398 0.28288,-0.37989 0.57224,-0.92447 0.84375,-1.7285 -3.1958,-0.24951 -2.8904,2.4887 -1.7734,2.4062 -7.9398,6.4705 4.7106,15.96 7.1133,23.168 -4.7677,5.9154 -12.818,-9.1216 -16.102,-3.3828 -9.4581,-18.388 -21.838,20.792 -4.7539,25.434 15.018,15.341 -14.061,6.3047 -2.3984,20.184 -4.7868,26.107 20.589,26.892 26.584,45.596 6.6814,16.414 4.7381,-4.8387 13.561,6.0976 6.7735,7.951 -5.2434,9.3121 10.383,16.484 11.54,17.965 30.727,30.176 51.248,35.811 8.3924,4.0236 -33.643,-18.979 -15.006,-18.625 6.305,8.3742 8.0721,4.5066 10.037,-0.60156 -0.38416,1.1529 -0.31318,2.9102 1.3066,1.0293 -0.28632,-2.3015 -0.84761,-2.0872 -1.1973,-1.3066 2.1292,-5.556 4.5895,-12.33 13.332,-6.5762 11.225,-7.5257 8.3026,-27.394 -1.8691,-28.686 1.0529,-0.44159 22.273,-3.6309 13.535,-4.5312 -11.929,-8.6532 -27.466,-17.254 -34.545,-29.236 3.6165,-2.6374 -0.34748,-4.5346 -1.8164,-3.6055 -2.4013,-5.7296 -2.847,-12.214 -0.18945,-19.783 12.846,-20.664 -45.407,-26.339 -20.178,-51.098 0.12457,0.37853 0.45115,0.89992 1.127,1.623 1.7729,-1.0159 0.67901,-2.1021 -0.26758,-2.3477 8.1141,-5.9307 6.2892,-12.013 0.98828,-12.283 z m 4.3242,9.0449 c -0.51875,-0.10996 -1.9561,1.5724 -0.24414,1.5859 0.52553,-1.1157 0.47994,-1.536 0.24414,-1.5859 z m -1.875,2.6621 c -0.52717,-0.10337 -1.8775,0.58619 -0.66992,1.2246 1.0057,-0.81493 0.98623,-1.1626 0.66992,-1.2246 z m -1.5684,0.42383 0.39844,0.5 -0.39844,-0.5 z m 106.77,2.3086 c -0.16437,-0.0485 -0.47557,0.005 -0.97461,0.19141 -7.6774,1.4209 -17.106,13.614 -3.4883,5.8496 -0.45251,-0.33504 5.6135,-5.7017 4.4629,-6.041 z m -110.44,1.0801 c -1.8167,-0.44989 -8.0703,14.956 0.0684,5.0117 0.60013,-3.5166 0.44033,-4.8858 -0.0684,-5.0117 z m 206.95,3.1582 c 0.15579,0.0574 -0.0842,0.79254 -0.97656,2.5527 -4.3795,13.908 -13.038,25.515 -17.916,38.9 4.4838,-16.4 3.1386,-25.646 13.744,-37.629 -3.8514,9.356 -8.4957,21.836 0.0605,5.7109 -1.0693,-1.2969 4.5315,-9.7403 5.0879,-9.5352 z m -8.377,9.6523 -0.19922,0.30078 0.19922,-0.30078 z m -264.59,22.553 -0.11133,1.5488 0.11133,-1.5488 z m 291.29,2.4473 c -3.8028,1.7722 1.1246,7.5113 0,0 z m -3.4531,2.6348 c -2.8646,-0.34626 -0.66225,13.94 1.5527,1.166 -0.63076,-0.76823 -1.1435,-1.1166 -1.5527,-1.166 z m -196.65,18.082 c -0.77732,0.0741 -1.216,0.8229 0.10742,2.7832 3.4232,-1.1545 1.1881,-2.9068 -0.10742,-2.7832 z m -4.8926,0.88476 -0.0566,0.17188 0.0566,-0.17188 z m 7.2305,2.2715 c -1.8795,-0.19849 -3.0968,2.2778 -0.23047,9.627 -1.1618,0.54468 -2.392,2.5998 -0.70117,3.5 9.0343,-5.0332 4.0642,-12.796 0.93164,-13.127 z m -4.3301,0.12695 c -4.5099,1.9436 3.6954,4.7614 0,0 z m 192,3.6016 c -0.84988,5.5993 -6.751,8.0254 0,0 z m -1.5293,0.22656 c 0.34127,0.1023 -1.0106,2.0442 -5.3242,6.6758 l -3.0469,1.9961 c 3.7591,-5.0438 7.8723,-8.8214 8.3711,-8.6719 z m 1.1289,6.7734 c -4.2441,6.4325 -3.2803,8.7244 0,0 z m -118,0.18945 c -2.062,-0.17003 -4.4702,0.76359 -7.041,3.3652 -8.2322,-6.4155 -8.3088,7.2215 -3.2559,8.7441 -5.4088,4.3755 -11.063,5.614 3,6.2012 18.695,3.8755 16.232,-17.574 7.2969,-18.311 z m 112.49,0.58594 c 1.9197,-0.27893 -3.2489,5.958 -9.6875,7.4238 5.7313,-5.3434 8.6819,-7.2777 9.6875,-7.4238 z m 6.2129,0.0234 -1.3027,2.7305 1.3027,-2.7305 z m -2.5,3.9004 c -6.2428,9.3619 -10.795,17.374 -1.6016,3.4629 l 1.6016,-3.4629 z m -274.17,0.77148 c -0.84629,0.32614 5.5465,7.2552 0.27148,0.0293 -0.12637,-0.0431 -0.21506,-0.051 -0.27148,-0.0293 z m 140.6,7.2461 c -1.7251,0.16909 -4.3378,3.1881 0.97461,2.1816 0.41076,-1.7464 -0.19049,-2.2585 -0.97461,-2.1816 z m 126.97,3.4825 c -8.6072,10.899 0.40533,1.6013 0,0 z m -262.79,0.24219 c 0.0099,0.31724 6.1059,11.832 1.7852,3.0586 -1.3138,-2.358 -1.7879,-3.1474 -1.7852,-3.0586 z m 260.85,0.0977 c -1.3416,-0.0246 -4.4689,1.3948 -9.168,5.6602 8.6794,-1.5676 11.404,-5.6192 9.168,-5.6602 z m -2.4102,4.8047 c -0.62583,0.0325 -2.5057,1.1902 -4.168,3.3965 l 0.81054,-0.041 c 3.3555,-2.2958 3.9832,-3.3879 3.3574,-3.3555 z m 0.29296,0.7793 c -0.33587,0.0293 -5.0206,4.675 -3.252,3.7754 2.6591,-2.8496 3.4046,-3.7887 3.252,-3.7754 z m -8.752,0.67578 c -3.6402,1.2309 -2.2277,5.5873 0,0 z m 3.0859,0.64648 c -0.47394,0.0527 -1.1831,0.27174 -2.1856,0.75391 1.8907,1.9083 4.2393,-0.98228 2.1856,-0.75391 z m 4.4141,1.1543 c -2.846,1.5777 -2.4582,5.6129 0,0 z m -5.1309,0.89453 c -0.34871,0.006 -0.99557,0.1996 -2.0684,0.70508 -0.52454,2.7976 3.5795,-0.72964 2.0684,-0.70508 z m 0.13086,1.7051 c -9.8587,4.4784 1.742,2.379 0,0 z m -1.8984,0.0996 -0.20117,0.20117 0.20117,-0.20117 z m -131.8,2.4004 c -6.9958,0.47599 1.6563,7.1032 0,0 z m -99.492,3.6152 c -0.07288,0.011 0.26389,0.45276 1.3926,1.6856 2.7313,2.1138 -1.1739,-1.7184 -1.3926,-1.6856 z m 231.79,0.38477 c -13.18,10.693 -6.241,11.757 0,0 z m -231.34,1.4668 c -1.0942,-0.14059 0.29159,4.5626 5.6953,10.225 l -0.46094,-1.8906 c -2.5769,-5.8732 -4.4857,-8.2378 -5.2344,-8.334 z m 192.66,1.2773 c -1.6643,-0.0237 -5.9349,1.3846 -2.127,2.0566 3.1857,-1.5118 3.1255,-2.0424 2.127,-2.0566 z m -4.4004,2.1602 c -0.6089,0.0879 -1.3869,0.71037 -2.3262,2.1953 4.4218,7.0736 4.9648,-2.5761 2.3262,-2.1953 z m -185.92,3.1875 c -0.40497,-0.12127 -0.06108,1.0939 1.8965,3.0078 -0.8134,-2.0106 -1.5815,-2.9135 -1.8965,-3.0078 z m 182.6,0.008 c -5.751,1.2103 4.04,1.4825 0,0 z m -5.3418,0.69141 c -4.4506,-0.13689 -9.9766,1.7734 -14.758,4.709 -12.655,-0.5723 -27.029,-0.58293 -29.201,15.4 4.0385,2.9163 -18.36,18.643 1.6113,18.717 11.089,-5.4137 0.71814,6.8434 14.945,-3.8574 7.4012,-9.8292 20.143,-12.837 21.648,-9.5039 -11.992,9.5673 19.675,-5.8247 22.217,-9.5606 0.40975,0.23087 1.9,-0.38471 2.6777,-2.2949 -1.4654,0.70627 -2.2363,1.2855 -2.5742,1.6953 -0.1104,-0.12045 -0.34032,-0.19006 -0.72461,-0.19531 5.2742,-9.584 -13.095,7.9366 -7.543,-7.5332 -0.47341,-5.256 -3.8483,-7.4393 -8.2988,-7.5762 z m 42.742,1.6094 -0.10156,0.0996 0.10156,-0.0996 z m -9.6016,0.5 c -3.1914,2.2131 2.6284,0.27667 0,0 z m 2.1016,0.0996 c -2.4667,0.39405 0.56461,1.7249 0,0 z m 1.5996,0.80078 c -2.6156,0.83391 0.55012,1.6162 0,0 z m -7.5,1.2988 c -5.1793,1.9828 0.67157,1.8507 0,0 z m -2.4004,1.5 c -5.7414,2.7042 0.68386,3.6407 0,0 z m -3.3008,3 c -8.0099,4.0542 -2.2311,5.0137 0,0 z m -193.58,0.0215 c -0.58343,-0.0307 0.93575,1.6068 4.9785,3.6797 -2.7989,-2.6228 -4.5247,-3.6558 -4.9785,-3.6797 z m 188.97,3.9766 -0.19336,0.10156 0.19336,-0.10156 z m 0.006,0.002 0.20117,0 -0.20117,0 z m -123.27,7.2832 c -0.9867,-0.041 2.2773,4.3116 2.668,1.918 -1.5371,-1.4026 -2.3391,-1.9043 -2.668,-1.918 z m 7.248,0.0645 c -0.50923,-0.0537 -0.91123,0.28591 -0.67969,1.4531 3.44,0.688 1.8,-1.335 0.67969,-1.4531 z m -9.1758,0.57812 c -1.1548,0.0702 -2.2382,1.3646 1.1953,1.6738 0.21626,-1.3182 -0.50244,-1.7159 -1.1953,-1.6738 z m 7.6953,0.0742 0.20117,0.20117 -0.20117,-0.20117 z m -7.2285,2.6836 c -0.38419,0.0535 -0.52567,0.38346 0.1289,1.2168 2.7319,-0.11732 0.71631,-1.3345 -0.1289,-1.2168 z m -1.8711,1.5176 c -1.942,0.45201 1.6909,1.1026 0,0 z m -0.75195,2.7754 c -0.19973,-0.0138 -0.22677,0.29928 0.15234,1.2246 2.5998,1.7979 0.44684,-1.1833 -0.15234,-1.2246 z m 96.213,0.2461 c -2.2485,-0.0325 -13.855,10.522 -0.36133,2.0781 0.90139,-1.4987 0.88021,-2.0706 0.36133,-2.0781 z m -97.854,0.88476 c -0.35133,-0.0189 -0.51185,0.29671 0.19336,1.293 1.5047,-0.29939 0.39221,-1.2615 -0.19336,-1.293 z m 99.293,1.293 c -7.4647,1.6949 2.8315,1.6745 0,0 z m -100.3,0.99023 c -0.30538,-0.0504 0.41216,3.3851 0.39648,0.70899 -0.20099,-0.50098 -0.32601,-0.69735 -0.39648,-0.70899 z m 1.2676,0.53907 c -0.35224,0.0545 -0.56,0.52395 0.39843,1.2461 -0.36735,0.60098 -0.0473,1.2355 2.1309,1.125 1.1235,-2.9821 -1.3131,-2.2145 -2.0527,-1.2305 0.32131,-0.85588 -0.13761,-1.1931 -0.47656,-1.1406 z m -1.0684,1.7012 c -0.25289,0.0108 -0.61182,0.0631 -1.1035,0.16992 -0.55187,1.6401 2.8737,-0.24584 1.1035,-0.16992 z"
             id="path4206"
             inkscape:connector-curvature="0"
             style="fill:#d94300" />
          <path
             d="m 237,23.1 c 32.5,21.4 44.599,39.601 52.199,55.801 -8.7,-8.9 -23.5,-18.1 -33.6,-18.9 14.834,11.076 39.625,43.68 37.561,93.049 -6.7015,-16.79 -15.76,-23.748 -15.76,-23.748 0.0116,0.13539 0.0254,0.29152 0.0371,0.42774 -0.0785,-0.0722 -0.16073,-0.16027 -0.23828,-0.22852 1.9979,18.277 2.6086,31.222 2.4238,40.969 -0.0123,0.54025 -0.0294,1.0818 -0.0469,1.623 -0.0249,0.84961 -0.0528,1.6821 -0.0898,2.4824 -0.0469,0.98963 -0.10955,1.9799 -0.17578,2.9707 -0.0423,0.60906 -0.0797,1.2458 -0.12891,1.8262 -0.0242,0.30363 -0.0578,0.6066 -0.084,0.91016 -0.8724,9.3664 -2.6092,15.083 -4.1504,20.998 -1.8305,-7.8168 -4.248,-12.18 -4.248,-12.18 0,0 -0.0535,0.4422 -0.0606,0.51367 -0.0416,-0.0931 -0.0991,-0.22355 -0.13867,-0.3125 0,0 -0.59961,15.398 -10.6,37.398 -6.3068,13.858 -12.743,19.713 -16.754,20.967 -1.3712,0.34542 -2.5063,0.14573 -3.3457,-0.4668 -0.0234,0.0926 -0.0521,0.18143 -0.0762,0.27344 -0.0289,-0.02 -0.125,-0.0723 -0.125,-0.0723 0.2,-2.2 0.50039,-4.4004 -0.0996,-5.9004 0,0 -3.2008,1.1 -5.3008,4 -0.6,0.9 -1.3672,1.7445 -2.3047,2.5742 -0.3125,0.27656 -0.64414,0.55117 -0.99414,0.82617 -0.2,0.2 2.2996,-3.1996 2.0996,-3.0996 -1.2,1 -2.6004,2.1996 -3.9004,3.5996 -4.9,5.1 -9.3992,10.799 -11.699,9.1992 2.1,-0.7 3.8988,-3.3996 4.2988,-6.0996 -1.9,1.4 -6.7988,4.9992 -17.799,6.6992 -4.5,0.7 -23.6,4.2004 -49.1,-8.5996 3.7,-0.4 9.3,-1.6992 13.5,0.80078 -4.2,-4.6 -14.501,-3.7 -21.801,-6 -6.4,-2 -14.7,-11 -19.5,-15.5 17.222,4.2177 35.367,2.0239 47.658,-4.1328 1.7744,-0.87305 3.4289,-1.8297 4.9414,-2.8672 7.3896,-5.1088 17.76,-12.442 23.549,-13.01 0.69488,-0.004 1.3784,0.0514 2.0508,0.20899 6.4,1.4 10.701,-4.9988 5.7012,-10.799 -4.9998,-5.8002 -17.201,-13.5 -33.701,-9.4004 -12.7,3.2 -23.399,13.299 -41.199,6.2988 -1.1,-0.4 -2.2008,-0.9 -3.3008,-1.5 -1.1,-0.6 3.7,0.7 2.5,0 -3.3999,-1.3 -9.5991,-4.0992 -11.199,-5.1992 -0.3,-0.2 2.6008,0.50078 2.3008,0.30078 -3.7559,-2.2224 -6.584,-4.3407 -8.7715,-6.3535 -0.40439,-0.37024 -0.80086,-0.74079 -1.1621,-1.1094 -0.12401,-0.12582 -0.23468,-0.24815 -0.35352,-0.37305 -7.3858,-7.8275 -5.4277,-15.168 -4.3144,-19.064 0.9448,-3.3498 3.5078,-6.318 5.1641,-7.4727 0.12119,-0.0762 0.2427,-0.15259 0.36719,-0.22461 0.0613,-0.035 0.12235,-0.0713 0.17969,-0.0996 2.3937,0.89834 3.8906,1.6973 3.8906,1.6973 0,0 -1.1008,-1.7016 -1.8008,-2.6016 0.2,-0.1 0.3,-0.0992 0.5,-0.19922 2,0.7 6.4992,2.3 8.6992,3.5 2.325,1.125 3.4699,2.3059 3.8965,2.8262 0.14219,0.17344 0.20508,0.27344 0.20508,0.27344 0,0 0.7,-0.5 0,-2 -0.3,-0.7 -1.4004,-2.6004 -4.4004,-4.4004 l 0.0996,0 c 1.6,0.6 3.2996,1.4 5.0996,2.5 0.6,-2.7 1.7,-5.4984 1,-10.398 -0.6,-3.5 -0.49883,-4.3016 -1.2988,-5.6016 -0.7,-1.1 0.19883,-1.4996 1.2988,-0.59961 -0.3,-0.9 -0.69961,-1.6996 -1.0996,-2.5996 0.004,-0.0189 0.0166,-0.0413 0.0215,-0.0606 0.12528,0.2493 0.23299,0.39494 0.3418,0.36719 0.0681,0.079 0.11657,0.0739 0.13672,-0.10742 5.3,-6.4 26.2,-16.1 30.9,-21.1 0.59377,-0.64325 1.0826,-1.1926 1.4902,-1.6738 -0.0286,0.0795 -0.0632,0.20536 -0.0898,0.27344 2.7,-2.1 3.8996,-4.1 5.0996,-7 1.2,-3 2.5996,-10 -1.4004,-11.5 -3.1694,-0.76834 -5.9936,-1.3444 -10.994,-1.3008 -4.1821,-0.30653 -9.7761,-0.4547 -17.406,-0.39839 -11.1,0.1 -16.3,-9.5992 -18.1,-13.699 -0.0325,0.11756 -0.0599,0.23588 -0.0918,0.35352 -0.0307,-0.07805 -0.0799,-0.18065 -0.10742,-0.25391 3.2,-11.7 9.6988,-21.901 19.799,-30.201 0.6,-0.5 -2.3988,0.30078 -1.7988,-0.19922 0.7,-0.6 4.9988,-2.6996 5.7988,-3.0996 1,-0.6 -4.7,-2.0996 -9.5,-1.0996 -3.675,0.75 -5.1,1.275 -6.6797,2.0391 -0.52656,0.25469 -1.0707,0.53438 -1.7207,0.85938 1,-1.1 4.3,-2.6996 3.5,-2.5996 -4.6375,1.05 -10.04,3.8623 -14.869,7.0273 -0.68985,0.45215 -1.3668,0.91055 -2.0293,1.373 0,-0.5 -3.9e-4,-0.89961 0.0996,-1.5996 -2.5,1.3 -8.5996,6 -10.1,9.5 0,-0.8 -0.002,-1.2 -0.10156,-2 -1.7,1.6 -3.3984,3.5 -4.8984,5.5 0,0 -0.0131,0.03678 -0.043,0.06641 -5.9238,-1.4761 -11.365,-2.1874 -16.25,-2.4043 -8.9039,-0.44578 -16.898,0.71221 -24.051,2.959 -3.7812,-3.0727 -9.3674,-8.4165 -13.656,-15.322 -0.07396,-0.11094 -0.13193,-0.10922 -0.18359,-0.07031 -0.07613,-0.05081 -0.13399,0.0063 -0.18555,0.11524 -0.01069,-0.01649 -0.02055,-0.02839 -0.03125,-0.04492 -0.25249,-0.37874 -0.35139,0.24748 -0.48633,0.63281 -2.66,-4.8201 -4.8165,-12.895 -5.1133,-18.633 0,0 -0.0637,0.04258 -0.0957,0.0625 -0.0011,-0.01996 -0.0048,-0.04259 -0.0059,-0.0625 0,0 -0.11355,0.07333 -0.28125,0.19141 -0.0036,-0.06148 -0.01443,-0.13045 -0.01758,-0.19141 0,0 -4.4012,2.5 -7.2012,11.5 -0.28876,0.92403 -0.53381,1.5936 -0.75586,2.1855 0.052,-0.7545 0.10883,-1.5412 0.05668,-1.3848 -0.02137,0.04701 -0.06854,0.11258 -0.09375,0.16211 -0.0015,-0.05905 0.0067,-0.19984 -0.0059,-0.16211 -0.06869,0.15112 -0.19627,0.34523 -0.30078,0.52148 0.0035,-0.0597 0.01113,-0.14767 0.01367,-0.19922 0.01254,-0.25312 0.01137,-0.39727 -0.01363,-0.32227 -0.5,1.1 -2.0996,2.9004 -2.5996,4.9004 -0.3,1.125 -0.7125,1.9121 -0.98438,3.0371 -0.01403,0.05805 -0.01996,0.13538 -0.0332,0.19531 -0.02049,-0.45096 -0.04289,-0.82852 -0.08203,-0.63281 -0.0043,0.01152 -0.0093,0.02363 -0.01367,0.03516 -0.01204,-0.07945 -0.03417,-0.13476 -0.08594,-0.13476 l -0.10156,0 c -0.03487,0.08718 -0.06864,0.1871 -0.10352,0.2793 -0.02951,-0.2237 -0.06254,-0.37878 -0.0957,-0.2793 -1.3,3.3 -2.4004,7.1004 -3.4004,11.4 -0.96397,4.6821 -1.9099,10.578 -2.123,17.631 -0.41726,6.8931 -0.1564,12.083 0.22265,13.068 0.03503,-0.03503 0.05667,-0.06354 0.08984,-0.09766 8.9e-4,0.0032 0.0011,0.0086 0.002,0.01172 -4.2941,5.893903 -6.9927,10.889003 -8.0918,13.387003 -5.2,10.1 -10.499,25.698 -14.799,49.898 0,0 0.17739,-0.51239 0.26172,-0.76367 -0.053136,0.29506 -0.10937,0.56756 -0.16215,0.86523 0,0 0.039474,-0.11427 0.041016,-0.11914 -0.01344,0.0746 -0.027594,0.14397 -0.041016,0.21875 0,0 0.10039,-0.39961 0.40039,-1.0996 -0.1,0.3 -0.10117,0.7 -0.20117,1 0,0 0.40156,-1.1016 1.1016,-3.1016 0.067076,-0.37211 0.1375,-0.72386 0.20508,-1.0918 1.346,-3.5038 3.5988,-8.8282 6.7852,-14.629 -4.1017,13.02 -7.357,33.031 -5.3906,62.822 0.00601,-0.0601 0.044754,-0.35928 0.056641,-0.4668 0.016638,0.25901 0.025545,0.50514 0.042969,0.76563 0,-0.12031 0.03171,-0.3365 0.060547,-0.60156 0.0061,-0.0647 0.036268,-0.28543 0.044922,-0.36914 0.00343,0.29062 0.014569,0.55437 0.09375,0.87109 0,-0.4 0.20156,-2.0992 0.60156,-4.6992 -0.018325,-0.3494 -0.027993,-0.68071 -0.044922,-1.0273 0.49568,-3.2518 1.2771,-7.6658 2.3887,-12.799 1.1691,20.076 6.0269,44.52 21.555,71.125 12,20.5 43.502,68.1 122.600001,85.9 -0.30326,-0.0871 -0.59352,-0.18444 -0.88867,-0.27734 0.39733,0.0915 0.78774,0.18738 1.1875,0.27734 -3.6,-1 -6.7,-2.5004 -9,-3.9004 -0.18518,-0.0494 -0.36616,-0.10061 -0.55078,-0.15039 -3.0732,-1.8413 -4.8496,-3.4492 -4.8496,-3.4492 0,0 1.85,0.59453 4.9609,1.4727 0.0145,0.01 0.0245,0.0176 0.0391,0.0273 9.2,2.6 30.1,7.9008 46.5,7.3008 -0.15654,-0.0313 -0.29372,-0.0671 -0.44531,-0.0996 0.0155,-5.6e-4 0.0314,-0.001 0.0469,-0.002 -0.18481,-0.0326 -0.35057,-0.072 -0.52734,-0.10742 -1.5632,-0.36214 -2.8525,-0.78869 -3.7734,-1.291 -0.0999,-0.003 -0.20267,-0.0119 -0.30273,-0.0156 -2.8275,-1.3668 -3.498,-2.9844 -3.498,-2.9844 0,0 1.2579,0.0435 2.3828,0.0801 0.044,0.0415 0.0701,0.0767 0.11719,0.11914 10.9,0.3 62.801,0.69922 91.301,-21.801 7.1,-5.3 11.699,-11.5 13.199,-17.1 0,0 -0.0582,0.0417 -0.15625,0.0937 0.0102,-0.0378 0.0232,-0.0755 0.0332,-0.11328 0.005,-0.003 0.0169,-0.007 0.0215,-0.01 l -0.004,-0.0547 c 0.007,-0.0259 0.0149,-0.0522 0.0215,-0.0781 0.022,-0.0114 0.0444,-0.0237 0.0664,-0.0352 l 0.0176,0.0977 c 0,0 -0.0318,0.0296 -0.10156,0.0703 l 0.002,0.0293 c 3.3,-1.7 6.6,-3.7 10,-6 8.4,-5.7 18.601,-13.6 26.701,-23.6 3.0442,-3.6899 5.3811,-7.2838 7.2207,-10.646 4.0464,-7.2645 6.7947,-15.407 7.2793,-24.453 -0.13813,2.0226 -0.61902,4.015 -1.3711,5.9707 0.0412,-0.22672 0.0833,-0.45387 0.12304,-0.67968 1.8964,-6.5203 1.7202,-12.34 -0.67382,-16.346 10.834,-20.486 23.382,-59.967 12.904,-94.617 -0.13036,-0.43559 -0.28379,-0.86528 -0.42187,-1.2988 -0.39293,-1.3017 -0.66164,-2.0261 -0.66211,-2.0274 -0.0351,-0.10037 -0.0641,-0.20248 -0.0996,-0.30273 0.0303,0.11652 0.054,0.23307 0.084,0.34961 l 0,0.002 c -0.0295,0.0886 -2.9391,8.8325 -6.8047,21.875 2.0396,-18.943 0.61401,-38.679 -5.9785,-56.926003 -3.0804,-8.5788 -6.9042,-15.7 -10.645,-21.43 -4.9628,-8.1593 -10.447,-14.399 -14.756,-17.371 0.55083,0.41482 1.0925,0.90846 1.627,1.459 -0.94531,-0.87192 -1.627,-1.459 -1.627,-1.459 0.11934,0.13042 0.22777,0.26201 0.3457,0.39258 -0.17513,-0.15453 -0.54492,-0.49219 -0.54492,-0.49219 0,0 0.62699,3.4364 1.0176,5.5742 -9.1693,-14.582 -22.972,-21.601 -23.938,-22.08 -0.0447,-0.02906 -0.28125,-0.19336 -0.28125,-0.19336 0,0 0.72409,4.1269 1.8125,12.855 -13.855,-11.043 -30.536,-20.088 -50.412,-25.557 z"
             id="path4208"
             inkscape:connector-curvature="0"
             style="fill:#d94300" />
          <path
             d="m 237,23.1 c 32.5,21.4 44.599,39.601 52.199,55.801 -8.7,-8.9 -23.5,-18.1 -33.6,-18.9 14.834,11.076 39.625,43.68 37.561,93.049 -6.7015,-16.79 -15.76,-23.748 -15.76,-23.748 0.0116,0.13539 0.0254,0.29152 0.0371,0.42774 -0.0785,-0.0722 -0.16073,-0.16027 -0.23828,-0.22852 1.9979,18.277 2.6086,31.222 2.4238,40.969 -0.0123,0.54025 -0.0294,1.0818 -0.0469,1.623 -0.0249,0.84961 -0.0528,1.6821 -0.0898,2.4824 -0.0469,0.98963 -0.10955,1.9799 -0.17578,2.9707 -0.0423,0.60906 -0.0797,1.2458 -0.12891,1.8262 -0.0242,0.30363 -0.0578,0.6066 -0.084,0.91016 -0.8724,9.3664 -2.6092,15.083 -4.1504,20.998 -1.8305,-7.8168 -4.248,-12.18 -4.248,-12.18 0,0 -0.0535,0.4422 -0.0606,0.51367 -0.0416,-0.0931 -0.0991,-0.22355 -0.13867,-0.3125 0,0 -0.59961,15.398 -10.6,37.398 -6.3068,13.858 -12.743,19.713 -16.754,20.967 -1.3712,0.34542 -2.5063,0.14573 -3.3457,-0.4668 -0.0234,0.0926 -0.0521,0.18143 -0.0762,0.27344 -0.0289,-0.02 -0.125,-0.0723 -0.125,-0.0723 0.2,-2.2 0.50039,-4.4004 -0.0996,-5.9004 0,0 -3.2008,1.1 -5.3008,4 -0.6,0.9 -1.3672,1.7445 -2.3047,2.5742 -0.3125,0.27656 -0.64414,0.55117 -0.99414,0.82617 -0.2,0.2 2.2996,-3.1996 2.0996,-3.0996 -1.2,1 -2.6004,2.1996 -3.9004,3.5996 -4.9,5.1 -9.3992,10.799 -11.699,9.1992 2.1,-0.7 3.8988,-3.3996 4.2988,-6.0996 -1.9,1.4 -6.7988,4.9992 -17.799,6.6992 -4.5,0.7 -23.6,4.2004 -49.1,-8.5996 3.7,-0.4 9.3,-1.6992 13.5,0.80078 -4.2,-4.6 -14.501,-3.7 -21.801,-6 -6.4,-2 -14.7,-11 -19.5,-15.5 17.222,4.2177 35.367,2.0239 47.658,-4.1328 1.7744,-0.87305 3.4289,-1.8297 4.9414,-2.8672 7.3896,-5.1088 17.76,-12.442 23.549,-13.01 0.69488,-0.004 1.3784,0.0514 2.0508,0.20899 6.4,1.4 10.701,-4.9988 5.7012,-10.799 -4.9998,-5.8002 -17.201,-13.5 -33.701,-9.4004 -12.7,3.2 -23.399,13.299 -41.199,6.2988 -1.1,-0.4 -2.2008,-0.9 -3.3008,-1.5 -1.1,-0.6 3.7,0.7 2.5,0 -3.3999,-1.3 -9.5991,-4.0992 -11.199,-5.1992 -0.3,-0.2 2.6008,0.50078 2.3008,0.30078 -3.7559,-2.2224 -6.584,-4.3407 -8.7715,-6.3535 -0.40439,-0.37024 -0.80086,-0.74079 -1.1621,-1.1094 -0.12401,-0.12582 -0.23468,-0.24815 -0.35352,-0.37305 -7.3858,-7.8275 -5.4277,-15.168 -4.3144,-19.064 0.9448,-3.3498 3.5078,-6.318 5.1641,-7.4727 0.12119,-0.0762 0.2427,-0.15259 0.36719,-0.22461 0.0613,-0.035 0.12235,-0.0713 0.17969,-0.0996 2.3937,0.89834 3.8906,1.6973 3.8906,1.6973 0,0 -1.1008,-1.7016 -1.8008,-2.6016 0.2,-0.1 0.3,-0.0992 0.5,-0.19922 2,0.7 6.4992,2.3 8.6992,3.5 2.325,1.125 3.4699,2.3059 3.8965,2.8262 0.14219,0.17344 0.20508,0.27344 0.20508,0.27344 0,0 0.7,-0.5 0,-2 -0.3,-0.7 -1.4004,-2.6004 -4.4004,-4.4004 l 0.0996,0 c 1.6,0.6 3.2996,1.4 5.0996,2.5 0.6,-2.7 1.7,-5.4984 1,-10.398 -0.6,-3.5 -0.49883,-4.3016 -1.2988,-5.6016 -0.7,-1.1 0.19883,-1.4996 1.2988,-0.59961 -0.3,-0.9 -0.69961,-1.6996 -1.0996,-2.5996 0.004,-0.0189 0.0166,-0.0413 0.0215,-0.0606 0.12528,0.2493 0.23299,0.39494 0.3418,0.36719 0.0681,0.079 0.11657,0.0739 0.13672,-0.10742 5.3,-6.4 26.2,-16.1 30.9,-21.1 0.59377,-0.64325 1.0826,-1.1926 1.4902,-1.6738 -0.0286,0.0795 -0.0632,0.20536 -0.0898,0.27344 2.7,-2.1 3.8996,-4.1 5.0996,-7 1.2,-3 2.5996,-10 -1.4004,-11.5 -3.1694,-0.76834 -5.9936,-1.3444 -10.994,-1.3008 -4.1821,-0.30653 -9.7761,-0.4547 -17.406,-0.39839 -11.1,0.1 -16.3,-9.5992 -18.1,-13.699 -0.0325,0.11756 -0.0599,0.23588 -0.0918,0.35352 -0.0307,-0.07805 -0.0799,-0.18065 -0.10742,-0.25391 3.2,-11.7 9.6988,-21.901 19.799,-30.201 0.6,-0.5 -2.3988,0.30078 -1.7988,-0.19922 0.7,-0.6 4.9988,-2.6996 5.7988,-3.0996 1,-0.6 -4.7,-2.0996 -9.5,-1.0996 -3.675,0.75 -5.1,1.275 -6.6797,2.0391 -0.52656,0.25469 -1.0707,0.53438 -1.7207,0.85938 1,-1.1 4.3,-2.6996 3.5,-2.5996 -4.6375,1.05 -10.04,3.8623 -14.869,7.0273 -0.68985,0.45215 -1.3668,0.91055 -2.0293,1.373 0,-0.5 -3.9e-4,-0.89961 0.0996,-1.5996 -2.5,1.3 -8.5996,6 -10.1,9.5 0,-0.8 -0.002,-1.2 -0.10156,-2 -1.7,1.6 -3.3984,3.5 -4.8984,5.5 0,0 -0.0131,0.03678 -0.043,0.06641 -5.9238,-1.4761 -11.365,-2.1874 -16.25,-2.4043 -8.9039,-0.44578 -16.898,0.71221 -24.051,2.959 -3.7812,-3.0727 -9.3674,-8.4165 -13.656,-15.322 -0.07396,-0.11094 -0.13193,-0.10922 -0.18359,-0.07031 -0.07613,-0.05081 -0.13399,0.0063 -0.18555,0.11524 -0.01069,-0.01649 -0.02055,-0.02839 -0.03125,-0.04492 -0.25249,-0.37874 -0.35139,0.24748 -0.48633,0.63281 -2.66,-4.8201 -4.8165,-12.895 -5.1133,-18.633 0,0 -0.0637,0.04258 -0.0957,0.0625 -0.0011,-0.01996 -0.0048,-0.04259 -0.0059,-0.0625 0,0 -0.11355,0.07333 -0.28125,0.19141 -0.0036,-0.06148 -0.01443,-0.13045 -0.01758,-0.19141 0,0 -4.4012,2.5 -7.2012,11.5 -0.28876,0.92403 -0.53381,1.5936 -0.75586,2.1855 0.052,-0.7545 0.10883,-1.5412 0.05668,-1.3848 -0.02137,0.04701 -0.06854,0.11258 -0.09375,0.16211 -0.0015,-0.05905 0.0067,-0.19984 -0.0059,-0.16211 -0.06869,0.15112 -0.19627,0.34523 -0.30078,0.52148 0.0035,-0.0597 0.01113,-0.14767 0.01367,-0.19922 0.01254,-0.25312 0.01137,-0.39727 -0.01363,-0.32227 -0.5,1.1 -2.0996,2.9004 -2.5996,4.9004 -0.3,1.125 -0.7125,1.9121 -0.98438,3.0371 -0.01403,0.05805 -0.01996,0.13538 -0.0332,0.19531 -0.02049,-0.45096 -0.04289,-0.82852 -0.08203,-0.63281 -0.0043,0.01152 -0.0093,0.02363 -0.01367,0.03516 -0.01204,-0.07945 -0.03417,-0.13476 -0.08594,-0.13476 l -0.10156,0 c -0.03487,0.08718 -0.06864,0.1871 -0.10352,0.2793 -0.02951,-0.2237 -0.06254,-0.37878 -0.0957,-0.2793 -1.3,3.3 -2.4004,7.1004 -3.4004,11.4 -0.96397,4.6821 -1.9099,10.578 -2.123,17.631 -0.41726,6.8931 -0.1564,12.083 0.22265,13.068 0.03503,-0.03503 0.05667,-0.06354 0.08984,-0.09766 8.9e-4,0.0032 0.0011,0.0086 0.002,0.01172 -4.2941,5.893903 -6.9927,10.889003 -8.0918,13.387003 -2.6804,5.2061 -5.3862,11.889 -7.9688,20.441 0.13048,4.2249 0.33933,8.392 0.625,12.486 0.3048,-0.57872 0.61146,-1.16 0.93555,-1.75 -0.28928,0.91826 -0.57224,1.8804 -0.85156,2.8691 3.8537,52.666 19.369,93.18 19.369,93.18 0,0 -5.778,-40.39 -2.2344,-53.615 6.7019,43.563 20.106,64.226 31.275,85.449 0,0 -6.1439,-27.365 -2.793,-38.535 13.962,57.525 81.540998,76.514 81.540998,76.514 0,0 -23.457,-15.079 -25.691,-33.51 80.385,66.441 163.12,32.905 201.44,10.391 4.3463,-3.772 8.6381,-8.0036 12.459,-12.721 3.0442,-3.6899 5.3811,-7.2838 7.2207,-10.646 4.0464,-7.2645 6.7947,-15.407 7.2793,-24.453 -0.13813,2.0226 -0.61902,4.015 -1.3711,5.9707 0.0412,-0.22672 0.0833,-0.45387 0.12304,-0.67968 1.8964,-6.5203 1.7202,-12.34 -0.67382,-16.346 10.834,-20.486 23.382,-59.967 12.904,-94.617 -0.13036,-0.43559 -0.28379,-0.86528 -0.42187,-1.2988 -0.39293,-1.3017 -0.66164,-2.0261 -0.66211,-2.0274 -0.0351,-0.10037 -0.0641,-0.20248 -0.0996,-0.30273 0.0303,0.11652 0.054,0.23307 0.084,0.34961 l 0,0.002 c -0.0295,0.0886 -2.9391,8.8325 -6.8047,21.875 2.0396,-18.943 0.61401,-38.679 -5.9785,-56.926003 -3.0804,-8.5788 -6.9042,-15.7 -10.645,-21.43 -4.9628,-8.1596 -10.447,-14.4 -14.756,-17.371 0.55083,0.41482 1.0925,0.90846 1.627,1.459 -0.94531,-0.87192 -1.627,-1.459 -1.627,-1.459 0.11934,0.13042 0.22777,0.26201 0.3457,0.39258 -0.17513,-0.15453 -0.54492,-0.49219 -0.54492,-0.49219 0,0 0.62699,3.4364 1.0176,5.5742 -9.1693,-14.582 -22.972,-21.601 -23.938,-22.08 -0.0447,-0.02906 -0.28125,-0.19336 -0.28125,-0.19336 0,0 0.72409,4.1269 1.8125,12.855 -13.855,-11.043 -30.536,-20.088 -50.412,-25.557 z"
             id="path4210"
             inkscape:connector-curvature="0"
             style="fill:#ff7500;stroke:#d94300;stroke-width:5.70900011" />
        </g>
      </g>
      <g
         transform="matrix(0.19523,0,0,0.19523,584.86,524.65)"
         id="g4212"
         style="fill:#0079ff" />
      <g
         transform="matrix(0.89237,0,0,0.89237,8.8842,52.706)"
         id="g4215">
        <g
           id="g4217">
          <path
             d="m 735.25,656.43 c -0.59816,-0.0168 -1.1164,-0.006 -1.5371,0.01 -0.48082,0.018 -0.83381,0.043 -1.0293,0.043 -1.5626,0 -9.5936,0.7307 -15.445,8.4785 -0.002,0.002 -0.006,0.002 -0.008,0.004 -0.003,0.005 -0.005,0.009 -0.008,0.0137 -0.1429,0.22944 -0.2839,0.47263 -0.39648,0.67774 0.85135,1.7228 -0.66813,6.4708 1.6074,9.4023 2.0592,2.6528 4.6354,4.7967 6.793,5.2773 -0.33288,-0.95937 -0.52344,-1.9872 -0.52344,-3.0605 0,-5.1404 4.1506,-9.3066 9.2695,-9.3066 0.70247,0 1.3833,0.0857 2.041,0.23437 7.7667,0.0167 15.728,-0.019 16.871,-0.0137 -5.3813,-10.195 -13.448,-11.642 -17.635,-11.76 z"
             id="path4219"
             inkscape:connector-curvature="0"
             style="fill:#038800" />
          <path
             d="m 716.83,665.65 c -8.0324,12.735 -0.84674,21.992 -0.0664,23.348 0.77995,1.3546 5.4216,7.9562 15.062,9.1582 10e-4,1.7e-4 0.003,-1.6e-4 0.004,0 0.004,5.3e-4 0.006,9.6e-4 0.01,0.002 0.21891,0.0302 0.35441,0.0327 0.58008,0.041 1.4424,-1.2698 5.8192,-1.4588 8.0586,-4.418 2.9314,-3.8736 3.8734,-9.375 1.543,-11.139 -0.10685,-0.0809 -0.22147,-0.1464 -0.33789,-0.20898 -1.6614,2.5023 -4.4952,4.1523 -7.7148,4.1523 -4.1787,0 -7.7084,-2.7774 -8.8652,-6.5938 -3.8088,-6.6449 -7.7155,-13.362 -8.2734,-14.342 z"
             id="path4221"
             inkscape:connector-curvature="0"
             style="fill:#11bc00" />
          <path
             d="m 736.08,668.22 c 4.1006,0.96034 7.1582,4.6444 7.1582,9.0547 0,2.5881 -1.054,4.9282 -2.752,6.6152 -3.8508,6.6334 -7.4868,13.333 -8.0664,14.307 15.04,0.6985 19.544,-10.121 20.338,-11.469 0.79342,-1.3477 4.2443,-8.6491 0.52149,-17.633 l 0,-0.002 c -0.13783,-0.34678 -0.24297,-0.571 -0.38281,-0.873 z"
             id="path4223"
             inkscape:connector-curvature="0"
             style="fill:#74ff5d" />
        </g>
        <path
           d="m 741.79,677.32 c 0,4.3105 -3.4798,7.8049 -7.7723,7.8049 -4.2925,0 -7.7723,-3.4944 -7.7723,-7.8049 0,-4.3105 3.4798,-7.8049 7.7723,-7.8049 4.2925,0 7.7723,3.4944 7.7723,7.8049 z"
           id="path4225"
           inkscape:connector-curvature="0"
           style="fill:#b4ebb1" />
      </g>
    </g>
    <path
       id="path4313"
       d="m -835.37471,-134.51526 c 0,-21.90526 -15.78331,-36.94864 -36.73701,-37.21256 -21.08963,0.26392 -35.78444,14.91142 -38.50569,35.36515 7.61952,-12.14028 22.72252,-20.32177 36.05655,-20.32177 10.88505,0 16.73576,5.67425 16.73576,16.89081 l -29.11735,0 c 0.54425,-4.75053 2.72126,-9.63304 5.71465,-12.53615 -11.70142,4.61859 -19.8652,14.91143 -19.8652,28.76717 0,17.15473 13.6063,31.010465 33.47136,31.010465 10.06867,0 18.23245,-2.111342 25.30773,-5.674248 l 0,-16.758857 c -6.39497,3.69487 -14.01449,5.93818 -22.45041,5.93818 -12.65372,0 -21.76994,-5.93818 -21.76994,-16.75885 l 51.15955,0 0,-8.70934 z"
       inkscape:connector-curvature="0"
       style="fill:#0078d7" />
  </g>
</svg>
