<svg xmlns="http://www.w3.org/2000/svg" xmlns:xlink="http://www.w3.org/1999/xlink" viewBox="0 0 198.02 204.33"><defs><style>.a{fill:url(#a);}.b{fill:url(#b);}.c{fill:#13213b;}.d{fill:#134e23;}.e{fill:#0d7dd4;}.f{fill:#ffb900;}.g,.h,.k{fill:none;stroke-linejoin:round;}.g{stroke-linecap:round;stroke:url(#c);}.h{stroke:#ffe8e8;}.i{fill:#ffe8e8;}.j{fill:#065078;}.k,.m{stroke:#d94300;}.k{stroke-width:3.98px;}.l{fill:#d94300;}.m{fill:#ff7500;stroke-width:5.71px;}.n{fill:#038800;}.o{fill:#11bc00;}.p{fill:#74ff5d;}.q{fill:#b4ebb1;}.r{fill:#0078d7;}</style><linearGradient id="a" x1="507.96" y1="-387.17" x2="657.96" y2="-277.17" gradientTransform="matrix(1.48, 0, 0, -1.48, -743.54, -392.21)" gradientUnits="userSpaceOnUse"><stop offset="0" stop-color="#e09126"/><stop offset="0.08" stop-color="#a7630b"/><stop offset="0.62" stop-color="#b26b0f"/><stop offset="0.84" stop-color="#e09126"/><stop offset="0.91" stop-color="#c67d19"/><stop offset="1" stop-color="#925300"/></linearGradient><linearGradient id="b" x1="-37.09" y1="296.93" x2="22.91" y2="166.93" gradientTransform="matrix(1.48, 0, 0, -1.48, 82.82, 435.52)" xlink:href="#a"/><linearGradient id="c" x1="572.57" y1="-266.23" x2="572.57" y2="-400.98" gradientTransform="matrix(1.48, 0, 0, -1.48, -743.54, -392.21)" gradientUnits="userSpaceOnUse"><stop offset="0" stop-color="#e78b10"/><stop offset="0.07" stop-color="#b36b0e"/><stop offset="0.8" stop-color="#b0690e"/><stop offset="1" stop-color="#e69222" stop-opacity="0.95"/></linearGradient></defs><title>download</title><path class="a" d="M102.61,0.71V204c5.93-11.81,54.11-7.48,74.63-49.67C202.46,102.5,197.17,6.05,201.51,4.56l-98.9-3.84h0Z" transform="translate(-3.49 -0.21)"/><path class="b" d="M102.61,0.71L3.6,4.57C8,6,2.75,102.49,28,154.36c20.52,42.2,68.71,37.85,74.63,49.67h0V0.71h0Z" transform="translate(-3.49 -0.21)"/><path class="c" d="M102.61,10V94.67h82.64c5.82-40.35,4.53-80.22,7.18-81.13L102.61,10h0Z" transform="translate(-3.49 -0.21)"/><path class="d" d="M102.61,94.67v100c5.4-10.72,49.14-6.79,67.77-45.1,7.51-15.44,12-35.24,14.87-54.92H102.61Z" transform="translate(-3.49 -0.21)"/><path class="e" d="M20,94.67c2.84,19.68,7.36,39.48,14.87,54.92,18.63,38.32,62.4,34.38,67.78,45.11h0v-100H20Z" transform="translate(-3.49 -0.21)"/><path class="f" d="M102.59,10l-89.91,3.5c2.71,0.9,1.43,40.77,7.26,81.12h82.66V10h0Z" transform="translate(-3.49 -0.21)"/><path class="g" d="M102.61,0.71L200.12,4.5c1.05,0,.71,1.27.71,1.27-3.15,11.45.14,99.77-23.6,148.59-20.52,42.2-68.71,37.85-74.63,49.67-5.91-11.82-54.11-7.48-74.63-49.67C3.58,104.21,7.72,12.35,4,5c0,0-.21-0.49.73-0.49Z" transform="translate(-3.49 -0.21)"/><path class="h" d="M61.25,107a4.08,4.08,0,1,1-4.08-4.08A4.08,4.08,0,0,1,61.25,107Z" transform="translate(-3.49 -0.21)"/><circle class="i" cx="63.75" cy="135.51" r="27.78"/><circle class="j" cx="67.23" cy="135.72" r="23.96" transform="matrix(0.97, -0.25, 0.25, 0.97, -35.1, 20.74)"/><path class="i" d="M63.13,119.79l2.15,12.65a3.82,3.82,0,0,1,2-.54h0.28l-4.39-12.13h0Zm19.38,0.3L68.18,132a3.82,3.82,0,0,1,2.87,3.49l11.75-4.25-11.19,1.9,10.9-13.08h0Zm-24.89,9.73,6.15,4.31a3.82,3.82,0,0,1,.77-1.11l-6.92-3.21h0Zm5.84,5.38-11.79,4.26,11.19-1.9L52,150.64l13.71-11.43a3.77,3.77,0,0,1-2.22-4h0Zm7.47,1.54a3.82,3.82,0,0,1-.54,1.16l6.48,3-5.93-4.16h0Zm-1.62,2.2a3.82,3.82,0,0,1-2.06.61h0l4.12,11.39-2-12h0Z" transform="translate(-3.49 -0.21)"/><circle class="h" cx="63.75" cy="135.51" r="3.82"/><path class="i" d="M64.07,114.07l-0.15,0a0.43,0.43,0,0,0-.34.26,1,1,0,0,0,0,.47l0.91,3.56-0.11,0-3.66-2.68,0.66,2.59a0.9,0.9,0,0,0,.21.47,0.47,0.47,0,0,0,.4,0l0.15,0,0,0.12-1.47.38,0-.12,0.15,0a0.42,0.42,0,0,0,.34-0.26,0.9,0.9,0,0,0,0-.47l-0.75-2.93-0.13-.1-0.13-.1a0.75,0.75,0,0,0-.56-0.06l0-.11,1-.26,3.39,2.5-0.62-2.43a0.81,0.81,0,0,0-.21-0.46,0.48,0.48,0,0,0-.4,0l-0.14,0,0-.11L64,114l0,0.11h0Z" transform="translate(-3.49 -0.21)"/><path class="i" d="M85.73,132.9l-1.15-.1-0.83-3.24,0.12,0,0,0.14a0.52,0.52,0,0,0,.19.31,0.78,0.78,0,0,0,.56,0l2.74-.7a0.89,0.89,0,0,0,.47-0.21,0.4,0.4,0,0,0,.06-0.18,0.62,0.62,0,0,0,0-.23l0-.14,0.11,0,0.83,3.24-0.9.29,0-.12,0.3-.17,0.15-.11a0.84,0.84,0,0,0,0-.71L88,129.73l-1.67.43,0.24,0.93a0.74,0.74,0,0,0,.28.49,1,1,0,0,0,.5,0l0,0.12-1.46.38,0-.12a1,1,0,0,0,.44-0.26,0.72,0.72,0,0,0,0-.56l-0.24-.93-1.39.36a1.06,1.06,0,0,0-.32.11,0.33,0.33,0,0,0-.05.36l0.18,0.71a1.33,1.33,0,0,0,.34.68,2.32,2.32,0,0,0,.8.33l0,0.13h0Z" transform="translate(-3.49 -0.21)"/><path class="i" d="M45.39,138.2a0.52,0.52,0,0,0,.14.25,0.59,0.59,0,0,0,.26.14l0.22,0,0.35,0,3.71,0.3,0,0.13-2.45,1.65L50.59,141l0,0.11-3.18,2.15a1.78,1.78,0,0,0-.5.4,0.48,0.48,0,0,0,0,.41l-0.11,0-0.4-1.55,0.11,0,0,0.07a0.31,0.31,0,0,0,.22.26h0.12l0.18-.08,0.29-.18,2.16-1.44-2.2-.18-0.21.13-0.18.12a3,3,0,0,0-.32.26,0.74,0.74,0,0,0-.16.19,0.58,0.58,0,0,0,0,.38l-0.11,0-0.42-1.64,0.11,0,0,0.11a0.28,0.28,0,0,0,.36.27l0.22-.09,0.3-.19L49,139.12l-2.54-.2-0.34,0-0.2,0q-0.29.07-.17,0.54l-0.11,0-0.32-1.26,0.11,0h0Z" transform="translate(-3.49 -0.21)"/><path class="i" d="M70.43,154a1.13,1.13,0,0,1,.16-0.93,1.42,1.42,0,0,1,.86-0.59,2.29,2.29,0,0,1,.74-0.06,2.73,2.73,0,0,0,.46,0,0.24,0.24,0,0,0,.13-0.29l0.11,0,0.37,1.44-0.11,0a1.41,1.41,0,0,0-.68-0.81,1.25,1.25,0,0,0-.89-0.07,0.93,0.93,0,0,0-.56.37,0.63,0.63,0,0,0-.1.54,0.69,0.69,0,0,0,.36.45,5.46,5.46,0,0,0,.92.3q0.43,0.11.72,0.22a2.14,2.14,0,0,1,.45.22,1,1,0,0,1,.41.6,1.08,1.08,0,0,1-.13.87,1.27,1.27,0,0,1-.81.55,1.58,1.58,0,0,1-.3,0H72.2l-0.4,0a0.26,0.26,0,0,0-.14.29l-0.11,0-0.37-1.46,0.11,0a1.44,1.44,0,0,0,.61.79,1.11,1.11,0,0,0,.42.15,1.15,1.15,0,0,0,.44,0,0.78,0.78,0,0,0,.48-0.33,0.6,0.6,0,0,0-.22-0.9,2.07,2.07,0,0,0-.37-0.15l-0.6-.17-0.55-.15-0.38-.13a1.09,1.09,0,0,1-.68-0.76h0Z" transform="translate(-3.49 -0.21)"/><circle class="k" cx="53.96" cy="52.07" r="30.74"/><path class="l" d="M57.45,21.36q-1.16,0-2.31.09c0.61,0.53,2.63.1,3.47,0.17A10.92,10.92,0,0,0,60,21.49q-1.29-.12-2.59-0.13h0Zm-2.5.13h0Zm6.64,0.18-0.15.14c0.89,0.66,1.87.45,3.17,0.42q-1.49-.36-3-0.56h0Zm-10,.28A30.92,30.92,0,0,0,28.88,40.51a3.86,3.86,0,0,0-.15.57c1.15-2.18-.5,3.3.92,1.67,0.39,1.86-2.34,4.3.64,1.5-0.4,2.11.55-.27,0.78,0.4,0.1-2.78,3.65.18,3.29-2.55-1.71,0,5.25-3.14.87-2.84-3.19.39,1.59-4.31,1.54-5.43,2.66-2.62-.74,2.16,2.66.62,0.58-.44,1.06,3,2.66.55,2-1.19,2.63-3.76-.3-2.4,0.09-.87,2.94-1.09.46-1.38,1-1.94,3.15-1.64,4.66-3.19C46.65,26.35,41.57,28,45,26c1.13-1.46,1.69-2.69,4.07-2.86A8.36,8.36,0,0,1,51.56,22h0ZM31.07,44.65a4.61,4.61,0,0,0,0,.75A2.24,2.24,0,0,0,31.07,44.65ZM66.7,22.79c-1.28,0-2.35,2.56,1,2.65-0.13,2.33,4.05,5.49,2.67,6.37-1.54-.17-4.13-3.48-2.77-0.16-1.08-2.71-1.74,1.88-1.62,2,2.32,0.66,5.35.14,6.46,2.19,2.78-1.28,6.42,0,7,2.58,0,0.51,2.94,2.92,0,2.25,0.75,2.9.73,3.43-.9,0.33-3.3,1.2-1.15,4.46-.74,6.84-2.46,1.69-4,.91-3.28-2.23C71,44.64,70,40.08,67,40.31c-1.9-1.81-2.69,1.4-4,1.88-1.36,2.62,6.33,3.28,3,6.12-0.71-2.55-6.29-2.47-4.47,1.38-0.09,4.92,6-2.26,3.33,2.63-0.07,2.49,3.63,7.28,4.85,3.76,0.74,2.89.6,6-1.26,7.9-1.75,3.08,4.89-.42,2.63,3.42-2,.56-0.75,1.82.59,0.77-0.48,1.55,1.78,1.8,1.46,3.3a0.32,0.32,0,0,1,.09.12c-0.06.09-.1,0.06-0.12,0a2.73,2.73,0,0,1-.34.7c1.33,0,3.41-4.89,4.8-3-1.11,1.79.33,0.58,1.91-.64a0.83,0.83,0,0,0-.07.15c0.17-.17.29-0.29,0.38-0.39A7.15,7.15,0,0,1,82,67.06a5.37,5.37,0,0,1,1-1.72,10.63,10.63,0,0,0-.51,1.18,3.91,3.91,0,0,0,.72-1.45c1.44-1.82,3.37-3.7,1.35-5-0.67,2-2.55,5-4.7,4.78,0.69-2-1.28-3.36,1.44-5.22,0.93-1.18,1.28-2.55,2.17-1.18,0.41-2.42,2.95-5,2.67-7.62-0.65-1,.33-3.13.43-3.72-1.74.41,0.31-2.41-2.08-.74-1-1.78.26-4.84-.82-4.38-3.1-1.55-.92-4.16.92-1.36,1.63,0.18-.11-3.26,0-1.05-1.92-.41-1.36-5.08,0-1.74q-0.15-.52-0.34-1A30.92,30.92,0,0,0,73.71,26a2.17,2.17,0,0,1-1.3-.46c0.22,0.5-1.08-.52-1.65-1.16a30.92,30.92,0,0,0-4.06-1.63h0ZM73.07,71.6l0-.13C73,71.43,73,71.54,73.07,71.6ZM50.69,24.89c-0.09,0-.17.08-0.13,0.25C51.19,25.14,50.9,24.87,50.69,24.89ZM73,25.62l0.05,0Zm0.12,0.07s0,0,0,0S73.17,25.69,73.14,25.68Zm-23,.17c-0.17,0-.51.82,0.08,0.17C50.21,25.9,50.18,25.86,50.14,25.86Zm-0.6.38c-0.08,0-.39.44,0,0.23C49.56,26.3,49.57,26.24,49.54,26.23Zm-0.62.45c-0.33,0-.67.15-0.31,0.5C49.75,26.89,49.34,26.67,48.92,26.68Zm-0.59.55C47.82,27.67,49.2,27.57,48.33,27.23Zm-0.66.31c-0.64,0,.11,2.22.36,0.15A0.66,0.66,0,0,0,47.67,27.54Zm20.77,1.31c-0.18,0-.29.16-0.21,0.71C70.13,30.7,69,28.9,68.45,28.85Zm-1,.17c-0.26,0-.48.06,0.08,0.25C67.95,29.12,67.67,29,67.41,29Zm-0.17.24h0ZM45.89,30.46C43.81,30.32,44.16,35.08,45.89,30.46Zm-1.61,2.16v0Zm-2.69,3.46c-1.42,0-4,2.47-1,1.85,0.06,0.51,1.94-.76,1.8-1.18a0.69,0.69,0,0,0-.76-0.67h0ZM62.33,41c-0.24,0-.79.56,0,0.49C62.49,41.14,62.44,41,62.33,41Zm-24.41.55c-0.21,0-.46.14-0.14,0.45C38.3,41.72,38.13,41.56,37.93,41.56ZM61.61,42.2c-0.26,0-.52.12,0,0.36C62.15,42.32,61.88,42.2,61.61,42.2Zm-23.71.32c0.53,2.16-1.72,2.7-2,3.89C39.69,48,39.56,43.94,37.91,42.52Zm23.78,0.22c-0.14,0-.26.18-0.28,0.77C62.74,44.7,62.11,42.78,61.68,42.74Zm-0.93.17c-0.12,0-.15.16,0.08,0.51C61.67,43.39,61,42.87,60.75,42.91ZM29,43.07l0,0Zm11.37,0.48C39.23,43.81,40.4,44.52,40.34,43.55ZM40,44.11c-0.28,0-.59.32-0.74,1.45C41.1,46.09,40.63,44.18,40,44.11Zm-8.2.06c-0.3,0-.69.49-0.15,1.25C32.26,44.54,32.08,44.17,31.82,44.17ZM32.13,45c-0.5,0,.26,1.29.42,0.12A0.84,0.84,0,0,0,32.13,45Zm3.32,0.67C35.17,47.16,36.17,45.67,35.44,45.64Zm-3.18,0c-0.12,0-.91,1.27-0.28.87A1.59,1.59,0,0,0,32.26,45.65ZM86.75,45.7c-0.06-.06,0,1.42.14,1A5.39,5.39,0,0,0,86.75,45.7Zm-54.06,0c-0.28,0-.69.42-0.7,1.36C33.2,46.28,33.06,45.7,32.69,45.73ZM86.5,46.48c-0.31,0,.61,1.54.22,0.12A0.47,0.47,0,0,0,86.5,46.48ZM31.87,47l-0.15.35Zm1.43,0c-2.12.9-2,4,.68,2.79,0.08,0.79.28-.12,0.2-0.32,2.56-2.18-2.38-.11-0.88-2.47h0Zm0.46,0.22C32.57,47.39,34.13,48.72,33.76,47.22Zm12,0.41a0.35,0.35,0,0,0-.12.54C45.86,47.77,45.85,47.63,45.79,47.63ZM45.51,48l0,0.05Zm-0.69.36a2.62,2.62,0,0,0-1.92,1c-2.35.63-4.47,1.51-6-.43a4.43,4.43,0,0,0-1.22.52,1.13,1.13,0,0,0,.15-0.32c-0.59,0-.53.46-0.33,0.44-1.46,1.19.86,2.93,1.3,4.25-0.87,1.08-2.35-1.67-3-.62-1.73-3.37-4,3.81-.87,4.66,2.75,2.81-2.58,1.16-.44,3.7-0.88,4.79,3.77,4.93,4.87,8.36,1.22,3,.87-0.89,2.49,1.12,1.24,1.46-1,1.71,1.9,3a16.19,16.19,0,0,0,9.4,6.57c1.54,0.74-6.17-3.48-2.75-3.41,1.16,1.54,1.48.83,1.84-.11-0.07.21-.06,0.53,0.24,0.19-0.05-.42-0.16-0.38-0.22-0.24,0.39-1,.84-2.26,2.44-1.21,2.06-1.38,1.52-5-.34-5.26,0.19-.08,4.08-0.67,2.48-0.83-2.19-1.59-5-3.16-6.33-5.36,0.66-.48-0.06-0.83-0.33-0.66a4.87,4.87,0,0,1,0-3.63c2.36-3.79-8.32-4.83-3.7-9.37a0.89,0.89,0,0,0,.21.3c0.33-.19.12-0.39,0-0.43,1.49-1.09,1.15-2.2.18-2.25h0ZM45.61,50c-0.1,0-.36.29,0,0.29C45.66,50.09,45.65,50,45.61,50Zm-0.34.49c-0.1,0-.34.11-0.12,0.22C45.33,50.57,45.32,50.5,45.26,50.49ZM45,50.57l0.07,0.09ZM64.55,51a0.34,0.34,0,0,0-.18,0c-1.41.26-3.14,2.5-.64,1.07C63.65,52,64.76,51.06,64.55,51Zm-20.25.2c-0.33-.08-1.48,2.74,0,0.92A1.06,1.06,0,0,0,44.3,51.19Zm37.94,0.58a0.9,0.9,0,0,1-.18.47c-0.8,2.55-2.39,4.68-3.28,7.13,0.82-3,.58-4.7,2.52-6.9-0.71,1.72-1.56,4,0,1-0.2-.24.83-1.79,0.93-1.75h0Zm-1.54,1.77,0,0.06ZM32.2,57.68l0,0.28Zm53.4,0.45C84.91,58.45,85.81,59.5,85.6,58.12ZM85,58.61c-0.53-.06-0.12,2.56.28,0.21A0.51,0.51,0,0,0,85,58.61ZM48.92,61.92c-0.14,0-.22.15,0,0.51C49.57,62.22,49.16,61.9,48.92,61.92Zm-0.9.16v0Zm1.33,0.42c-0.34,0-.57.42,0,1.76-0.21.1-.44,0.48-0.13,0.64C50.83,64,49.92,62.56,49.35,62.5Zm-0.79,0C47.73,62.88,49.23,63.4,48.55,62.52Zm35.2,0.66C83.6,64.21,82.52,64.66,83.75,63.18Zm-0.28,0a3.77,3.77,0,0,1-1,1.22l-0.56.37A6.12,6.12,0,0,1,83.47,63.23Zm0.21,1.24C82.9,65.65,83.08,66.07,83.68,64.47ZM62,64.5a1.67,1.67,0,0,0-1.29.62c-1.51-1.18-1.52,1.32-.6,1.6-1,.8-2,1,0.55,1.14,3.43,0.71,3-3.22,1.34-3.36h0Zm20.62,0.11c0.35-.05-0.6,1.09-1.78,1.36A6,6,0,0,1,82.67,64.61Zm1.14,0-0.24.5Zm-0.46.72c-1.14,1.72-2,3.19-.29.63Zm-50.26.14c-0.16.06,1,1.33,0,0h0ZM58.86,66.8c-0.32,0-.8.58,0.18,0.4C59.12,66.88,59,66.78,58.86,66.8Zm23.28,0.64C80.56,69.44,82.21,67.73,82.14,67.44ZM34,67.48c0,0.06,1.12,2.17.33,0.56A5.21,5.21,0,0,0,34,67.48Zm47.82,0a3.37,3.37,0,0,0-1.68,1C81.7,68.25,82.19,67.51,81.78,67.5Zm-0.44.88a1.6,1.6,0,0,0-.76.62h0.15c0.62-.42.73-0.62,0.62-0.62h0Zm0.05,0.14c-0.06,0-.92.86-0.6,0.69A3.71,3.71,0,0,0,81.4,68.52Zm-1.6.12C79.12,68.87,79.38,69.67,79.79,68.65Zm0.57,0.12a1.35,1.35,0,0,0-.4.14C80.3,69.25,80.73,68.72,80.36,68.77ZM81.17,69C80.65,69.27,80.72,70,81.17,69Zm-0.94.16a1.13,1.13,0,0,0-.38.13C79.75,69.78,80.5,69.14,80.23,69.14Zm0,0.31C78.44,70.27,80.57,69.89,80.25,69.45Zm-0.35,0,0,0Zm-24.16.44C54.46,70,56,71.21,55.74,69.91Zm-18.24.66a1.31,1.31,0,0,0,.26.31C38.26,71.27,37.54,70.57,37.5,70.58ZM80,70.65C77.58,72.61,78.85,72.8,80,70.65Zm-42.41.27c-0.2,0,.05.84,1,1.87l-0.08-.35a3.19,3.19,0,0,0-1-1.53h0ZM72.9,71.15c-0.31,0-1.09.25-.39,0.38C73.1,71.25,73.09,71.15,72.9,71.15Zm-0.81.4a0.76,0.76,0,0,0-.43.4C72.48,73.24,72.58,71.47,72.1,71.54ZM38,72.13c-0.07,0,0,.2.35,0.55A1.11,1.11,0,0,0,38,72.13Zm33.48,0C70.43,72.35,72.23,72.4,71.49,72.13Zm-1,.13a5.27,5.27,0,0,0-2.71.86c-2.32-.1-5-0.11-5.35,2.82,0.74,0.53-3.37,3.42.3,3.43,2-1,.13,1.25,2.74-0.71,1.36-1.8,3.69-2.35,4-1.74-2.2,1.75,3.61-1.07,4.07-1.75A0.54,0.54,0,0,0,74,74.75a1.46,1.46,0,0,0-.47.31,0.19,0.19,0,0,0-.13,0c1-1.76-2.4,1.46-1.38-1.38a1.42,1.42,0,0,0-1.52-1.39h0Zm7.84,0.3,0,0Zm-1.76.09C76,73,77.07,72.69,76.58,72.64Zm0.39,0C76.52,72.73,77.07,73,77,72.66Zm0.29,0.15C76.78,73,77.36,73.11,77.26,72.81ZM75.89,73C74.94,73.41,76,73.39,75.89,73Zm-0.44.27C74.39,73.82,75.57,74,75.45,73.32Zm-0.61.55C73.37,74.62,74.43,74.79,74.84,73.87Zm-35.49,0a1.49,1.49,0,0,0,.91.67A2.82,2.82,0,0,0,39.35,73.88ZM74,74.61l0,0Zm0,0h0ZM51.4,75.94c-0.18,0,.42.79,0.49,0.35A1.32,1.32,0,0,0,51.4,75.94Zm1.33,0c-0.09,0-.17.05-0.12,0.27C53.23,76.35,52.93,76,52.73,76ZM51,76.06c-0.21,0-.41.25,0.22,0.31C51.3,76.12,51.17,76.05,51,76.06Zm1.41,0,0,0Zm-1.33.49c-0.07,0-.1.07,0,0.22C51.66,76.77,51.29,76.54,51.13,76.56Zm-0.34.28C50.43,76.93,51.1,77,50.79,76.84Zm-0.14.51s0,0.05,0,.22C51.15,77.91,50.76,77.36,50.65,77.35Zm17.64,0c-0.41,0-2.54,1.93-.07.38C68.39,77.5,68.38,77.4,68.29,77.4Zm-17.94.16c-0.06,0-.09.05,0,0.24C50.66,77.74,50.46,77.56,50.35,77.56Zm18.2,0.24C67.18,78.11,69.07,78.1,68.55,77.8ZM50.16,78c-0.06,0,.08.62,0.07,0.13A0.26,0.26,0,0,0,50.16,78Zm0.23,0.1c-0.06,0-.1.1,0.07,0.23-0.07.11,0,.23,0.39,0.21,0.21-.55-0.24-0.41-0.38-0.23,0.06-.16,0-0.22-0.09-0.21h0Zm-0.2.31-0.2,0C49.9,78.72,50.53,78.37,50.2,78.39Z" transform="translate(-3.49 -0.21)"/><path class="l" d="M68.54,25.34c6,3.92,8.18,7.26,9.57,10.23-1.59-1.63-4.31-3.32-6.16-3.46,2.72,2,7.26,8,6.89,17.06A10.7,10.7,0,0,0,76,44.81v0.08l0,0a60,60,0,0,1,.44,7.51c0,0.1,0,.2,0,0.3s0,0.31,0,.46,0,0.36,0,.54,0,0.23,0,.33l0,0.17A20.9,20.9,0,0,1,75.5,58a9.48,9.48,0,0,0-.78-2.23v0.09l0-.06a20.27,20.27,0,0,1-1.94,6.86c-1.16,2.54-2.34,3.61-3.07,3.84a0.71,0.71,0,0,1-.61-0.09v0.05h0a2.63,2.63,0,0,0,0-1.08,2.23,2.23,0,0,0-1,.73,2.45,2.45,0,0,1-.42.47l-0.18.15s0.42-.59.38-0.57a7.6,7.6,0,0,0-.72.66c-0.9.93-1.72,2-2.14,1.69a1.42,1.42,0,0,0,.79-1.12,6.81,6.81,0,0,1-3.26,1.23,14.23,14.23,0,0,1-9-1.58,4,4,0,0,1,2.47.15c-0.77-.84-2.66-0.68-4-1.1-1.17-.37-2.69-2-3.57-2.84a13.32,13.32,0,0,0,8.74-.76A7.29,7.29,0,0,0,58,62c1.35-.94,3.26-2.28,4.32-2.39a1.6,1.6,0,0,1,.38,0,1.14,1.14,0,0,0,1-2,6.19,6.19,0,0,0-6.18-1.72c-2.33.59-4.29,2.44-7.55,1.15a4.42,4.42,0,0,1-.61-0.27,3.82,3.82,0,0,0,.46,0,16,16,0,0,1-2.05-1c-0.05,0,.48.09,0.42,0.06a9.49,9.49,0,0,1-1.61-1.16l-0.21-.2-0.06-.07a3.27,3.27,0,0,1-.79-3.5,2.78,2.78,0,0,1,.95-1.37l0.07,0,0,0a6.56,6.56,0,0,1,.71.31s-0.2-.31-0.33-0.48l0.09,0a13.81,13.81,0,0,1,1.59.64,2.09,2.09,0,0,1,.71.52l0,0.05s0.13-.09,0-0.37a1.92,1.92,0,0,0-.81-0.81h0a5.46,5.46,0,0,1,.93.46,4.39,4.39,0,0,0,.18-1.91,2.73,2.73,0,0,0-.24-1c-0.13-.2,0-0.27.24-0.11-0.05-.16-0.13-0.31-0.2-0.48h0a0.09,0.09,0,0,0,.06.07s0,0,0,0c1-1.17,4.8-3,5.66-3.87l0.27-.31,0,0.05a2.78,2.78,0,0,0,.93-1.28c0.22-.55.48-1.83-0.26-2.11a7.27,7.27,0,0,0-2-.24c-0.77-.06-1.79-0.08-3.19-0.07A3.75,3.75,0,0,1,47.74,36l0,0.06,0,0a10.7,10.7,0,0,1,3.63-5.54c0.11-.09-0.44.06-0.33,0a11.83,11.83,0,0,1,1.06-.57c0.18-.11-0.86-0.38-1.74-0.2a4.57,4.57,0,0,0-1.22.37l-0.32.16c0.18-.2.79-0.49,0.64-0.48A9.07,9.07,0,0,0,46.7,31l-0.37.25a1.78,1.78,0,0,1,0-.29,5.21,5.21,0,0,0-1.85,1.74,2.47,2.47,0,0,0,0-.37,8,8,0,0,0-.9,1h0a15.07,15.07,0,0,0-3-.44,12.51,12.51,0,0,0-4.41.54,11.77,11.77,0,0,1-2.5-2.81s0,0,0,0,0,0,0,0h0c0-.07-0.06,0-0.09.12a9.13,9.13,0,0,1-.94-3.42h0l-0.05,0v0a3.63,3.63,0,0,0-1.32,2.11c-0.05.17-.1,0.29-0.14,0.4a1.33,1.33,0,0,0,0-.25l0,0a0.09,0.09,0,0,0,0,0l-0.06.1v0s0-.07,0-0.06a4.42,4.42,0,0,0-.48.9c-0.05.21-.13,0.35-0.18,0.56v0c0-.08,0-0.15,0-0.12h0s0,0,0,0h0l0,0.05s0-.07,0-0.05a15.06,15.06,0,0,0-.62,2.09,18.59,18.59,0,0,0-.39,3.23,10.35,10.35,0,0,0,0,2.4l0,0h0a14.6,14.6,0,0,0-1.48,2.45,32.92,32.92,0,0,0-2.71,9.15l0-.14,0,0.16v0a1.51,1.51,0,0,1,.07-0.2c0,0.05,0,.13,0,0.18l0.2-.57,0-.2a22.23,22.23,0,0,1,1.24-2.68,31.55,31.55,0,0,0-1,11.52v0.05s0-.06,0-0.11V58.25a0.65,0.65,0,0,0,0,.16c0-.07,0-0.38.11-0.86,0-.06,0-0.12,0-0.19,0.09-.6.23-1.41,0.44-2.35a28.59,28.59,0,0,0,4,13c2.2,3.76,8,12.48,22.48,15.75l-0.16-.05L52.7,83.8a6.64,6.64,0,0,1-1.65-.72l-0.1,0a6.16,6.16,0,0,1-.89-0.63L51,82.7h0A31.45,31.45,0,0,0,59.51,84l-0.08,0h0l-0.1,0a2.83,2.83,0,0,1-.69-0.24H58.59a1.27,1.27,0,0,1-.64-0.55h0.44l0,0c2,0.05,11.51.13,16.74-4a6.26,6.26,0,0,0,2.42-3.13l0,0v0h0v0h0A18,18,0,0,0,79.38,75a22.74,22.74,0,0,0,4.9-4.33,12.43,12.43,0,0,0,1.32-2,10.27,10.27,0,0,0,1.33-4.48,3.76,3.76,0,0,1-.25,1.09l0-.12a3.84,3.84,0,0,0-.12-3c2-3.76,4.29-11,2.37-17.35l-0.08-.24c-0.07-.24-0.12-0.37-0.12-0.37l0-.06,0,0.06h0s-0.54,1.62-1.25,4a23.42,23.42,0,0,0-1.1-10.44,18.79,18.79,0,0,0-2-3.93,11,11,0,0,0-2.71-3.18A2.61,2.61,0,0,1,82,31l-0.3-.27,0.06,0.07-0.1-.09,0.19,1a12,12,0,0,0-4.39-4l-0.05,0s0.13,0.76.33,2.36a25.6,25.6,0,0,0-9.24-4.69h0Z" transform="translate(-3.49 -0.21)"/><path class="m" d="M68.54,25.34c6,3.92,8.18,7.26,9.57,10.23-1.59-1.63-4.31-3.32-6.16-3.46,2.72,2,7.26,8,6.89,17.06A10.7,10.7,0,0,0,76,44.81v0.08l0,0a60,60,0,0,1,.44,7.51c0,0.1,0,.2,0,0.3s0,0.31,0,.46,0,0.36,0,.54,0,0.23,0,.33l0,0.17A20.9,20.9,0,0,1,75.5,58a9.48,9.48,0,0,0-.78-2.23v0.09l0-.06a20.27,20.27,0,0,1-1.94,6.86c-1.16,2.54-2.34,3.61-3.07,3.84a0.71,0.71,0,0,1-.61-0.09v0.05h0a2.63,2.63,0,0,0,0-1.08,2.23,2.23,0,0,0-1,.73,2.45,2.45,0,0,1-.42.47l-0.18.15s0.42-.59.38-0.57a7.6,7.6,0,0,0-.72.66c-0.9.93-1.72,2-2.14,1.69a1.42,1.42,0,0,0,.79-1.12,6.81,6.81,0,0,1-3.26,1.23,14.23,14.23,0,0,1-9-1.58,4,4,0,0,1,2.47.15c-0.77-.84-2.66-0.68-4-1.1-1.17-.37-2.69-2-3.57-2.84a13.32,13.32,0,0,0,8.74-.76A7.29,7.29,0,0,0,58,62c1.35-.94,3.26-2.28,4.32-2.39a1.6,1.6,0,0,1,.38,0,1.14,1.14,0,0,0,1-2,6.19,6.19,0,0,0-6.18-1.72c-2.33.59-4.29,2.44-7.55,1.15a4.42,4.42,0,0,1-.61-0.27,3.82,3.82,0,0,0,.46,0,16,16,0,0,1-2.05-1c-0.05,0,.48.09,0.42,0.06a9.49,9.49,0,0,1-1.61-1.16l-0.21-.2-0.06-.07a3.27,3.27,0,0,1-.79-3.5,2.78,2.78,0,0,1,.95-1.37l0.07,0,0,0a6.56,6.56,0,0,1,.71.31s-0.2-.31-0.33-0.48l0.09,0a13.81,13.81,0,0,1,1.59.64,2.09,2.09,0,0,1,.71.52l0,0.05s0.13-.09,0-0.37a1.92,1.92,0,0,0-.81-0.81h0a5.46,5.46,0,0,1,.93.46,4.39,4.39,0,0,0,.18-1.91,2.73,2.73,0,0,0-.24-1c-0.13-.2,0-0.27.24-0.11-0.05-.16-0.13-0.31-0.2-0.48h0a0.09,0.09,0,0,0,.06.07s0,0,0,0c1-1.17,4.8-3,5.66-3.87l0.27-.31,0,0.05a2.78,2.78,0,0,0,.93-1.28c0.22-.55.48-1.83-0.26-2.11a7.27,7.27,0,0,0-2-.24c-0.77-.06-1.79-0.08-3.19-0.07A3.75,3.75,0,0,1,47.74,36l0,0.06,0,0a10.7,10.7,0,0,1,3.63-5.54c0.11-.09-0.44.06-0.33,0a11.83,11.83,0,0,1,1.06-.57c0.18-.11-0.86-0.38-1.74-0.2a4.57,4.57,0,0,0-1.22.37l-0.32.16c0.18-.2.79-0.49,0.64-0.48A9.07,9.07,0,0,0,46.7,31l-0.37.25a1.78,1.78,0,0,1,0-.29,5.21,5.21,0,0,0-1.85,1.74,2.47,2.47,0,0,0,0-.37,8,8,0,0,0-.9,1h0a15.07,15.07,0,0,0-3-.44,12.51,12.51,0,0,0-4.41.54,11.77,11.77,0,0,1-2.5-2.81s0,0,0,0,0,0,0,0h0c0-.07-0.06,0-0.09.12a9.13,9.13,0,0,1-.94-3.42h0l-0.05,0v0a3.63,3.63,0,0,0-1.32,2.11c-0.05.17-.1,0.29-0.14,0.4a1.33,1.33,0,0,0,0-.25l0,0a0.09,0.09,0,0,0,0,0l-0.06.1v0s0-.07,0-0.06a4.42,4.42,0,0,0-.48.9c-0.05.21-.13,0.35-0.18,0.56v0c0-.08,0-0.15,0-0.12h0s0,0,0,0h0l0,0.05s0-.07,0-0.05a15.06,15.06,0,0,0-.62,2.09,18.59,18.59,0,0,0-.39,3.23,10.35,10.35,0,0,0,0,2.4l0,0h0a14.6,14.6,0,0,0-1.48,2.45,22.31,22.31,0,0,0-1.46,3.75q0,1.16.11,2.29l0.17-.32c-0.05.17-.1,0.34-0.16,0.53A66.47,66.47,0,0,0,30,64.46s-1.06-7.4-.41-9.83c1.23,8,3.69,11.77,5.73,15.67,0,0-1.13-5-.51-7.06,2.56,10.55,14.95,14,14.95,14s-4.3-2.76-4.71-6.14C59.8,83.3,75,77.15,82,73a18.72,18.72,0,0,0,2.28-2.33,12.43,12.43,0,0,0,1.32-2,10.27,10.27,0,0,0,1.33-4.48,3.76,3.76,0,0,1-.25,1.09l0-.12a3.84,3.84,0,0,0-.12-3c2-3.76,4.29-11,2.37-17.35l-0.08-.24c-0.07-.24-0.12-0.37-0.12-0.37l0-.06,0,0.06h0s-0.54,1.62-1.25,4a23.42,23.42,0,0,0-1.1-10.44,18.79,18.79,0,0,0-2-3.93,11,11,0,0,0-2.71-3.18A2.61,2.61,0,0,1,82,31l-0.3-.27,0.06,0.07-0.1-.09,0.19,1a12,12,0,0,0-4.39-4l-0.05,0s0.13,0.76.33,2.36a25.6,25.6,0,0,0-9.24-4.69h0Z" transform="translate(-3.49 -0.21)"/><path class="n" d="M142.07,106.88c-0.79,0-1.47,0-2,0s-1.1.06-1.36,0.06a27.35,27.35,0,0,0-20.36,11.18h0v0c-0.19.3-.37,0.62-0.52,0.89,1.12,2.27-.88,8.53,2.12,12.4,2.72,3.5,6.11,6.32,9,7a12.2,12.2,0,0,1,14.22-16c10.24,0,20.74,0,22.24,0-7.1-13.44-17.73-15.35-23.25-15.51h0Z" transform="translate(-3.49 -0.21)"/><path class="o" d="M117.78,119c-10.59,16.79-1.12,29-.09,30.78a27.34,27.34,0,0,0,19.86,12.08h0a6.66,6.66,0,0,0,.76.05c1.9-1.67,7.67-1.92,10.63-5.83,3.87-5.11,5.11-12.36,2-14.69a3.38,3.38,0,0,0-.45-0.28,12.2,12.2,0,0,1-21.86-3.22c-5-8.76-10.17-17.62-10.91-18.91h0Z" transform="translate(-3.49 -0.21)"/><path class="p" d="M143.16,122.42A12.28,12.28,0,0,1,149,143.08c-5.08,8.75-9.87,17.58-10.64,18.86,19.83,0.92,25.77-13.34,26.82-15.12a27.35,27.35,0,0,0,.69-23.25h0c-0.18-.46-0.32-0.75-0.5-1.15H143.16Z" transform="translate(-3.49 -0.21)"/><path class="q" d="M150.69,134.42a10.25,10.25,0,1,1-10.25-10.29A10.27,10.27,0,0,1,150.69,134.42Z" transform="translate(-3.49 -0.21)"/><path class="r" d="M134.66,58a9.94,9.94,0,0,0,2.43,6.82,11.14,11.14,0,0,0,2.66,2.27A15.79,15.79,0,0,0,143,68.66a20,20,0,0,0,3.58.92,23,23,0,0,0,3.67.3,24.36,24.36,0,0,0,4.33-.36,31.34,31.34,0,0,0,4-1A35.3,35.3,0,0,0,162.39,67c1.27-.58,2.56-1.21,3.88-1.92V77.36a43.62,43.62,0,0,1-4.38,1.86,44.79,44.79,0,0,1-4.38,1.31,33.93,33.93,0,0,1-4.51.8,44.5,44.5,0,0,1-4.73.25,26.23,26.23,0,0,1-6.3-.75,24.7,24.7,0,0,1-5.69-2.16,23.86,23.86,0,0,1-4.88-3.43,21.65,21.65,0,0,1-3.81-4.53,22,22,0,0,1-2.47-5.49,22.62,22.62,0,0,1-.86-6.31,23.47,23.47,0,0,1,1-6.82,21.67,21.67,0,0,1,7.32-10.8,23.74,23.74,0,0,1,6-3.44,12.58,12.58,0,0,0-2.81,4.29,18.54,18.54,0,0,0-1.3,5h20.65a20.79,20.79,0,0,0-.63-5.46,9.11,9.11,0,0,0-2.06-3.88,8.56,8.56,0,0,0-3.65-2.32,16.65,16.65,0,0,0-5.41-.78,25.74,25.74,0,0,0-7.48,1.11,31.47,31.47,0,0,0-7.11,3.08,34.43,34.43,0,0,0-6.2,4.7,29.28,29.28,0,0,0-4.76,5.87,33.84,33.84,0,0,1,1.57-7,30,30,0,0,1,2.95-6.25,28.05,28.05,0,0,1,4.21-5.2,25.06,25.06,0,0,1,5.35-4,27.06,27.06,0,0,1,6.32-2.56,32.39,32.39,0,0,1,7.22-.82,25.29,25.29,0,0,1,4.44.4,31.48,31.48,0,0,1,4.32,1.11,25.43,25.43,0,0,1,13,9.93,26.53,26.53,0,0,1,3.41,7.41,30.06,30.06,0,0,1,1.18,8.4V58H134.66Z" transform="translate(-3.49 -0.21)"/></svg>