<?xml version="1.0" encoding="UTF-8"?>
<svg width="150mm" height="85mm" version="1.1" viewBox="0 0 531.49609 301.18109" xmlns="http://www.w3.org/2000/svg" xmlns:xlink="http://www.w3.org/1999/xlink">
<defs>
<linearGradient id="linearGradient4223">
<stop stop-color="#e09126" offset="0"/>
<stop stop-color="#a7630b" offset=".084615"/>
<stop stop-color="#b26b0f" offset=".61538"/>
<stop stop-color="#e09126" offset=".8389"/>
<stop stop-color="#c67d19" offset=".91056"/>
<stop stop-color="#925300" offset="1"/>
</linearGradient>
<linearGradient id="linearGradient5536" x1="564.29" x2="714.29" y1="675.22" y2="565.22" gradientUnits="userSpaceOnUse" xlink:href="#linearGradient4223"/>
<linearGradient id="linearGradient5538" x1="15" x2="75" y1="10" y2="140" gradientTransform="translate(559.29 560.22)" gradientUnits="userSpaceOnUse" xlink:href="#linearGradient4223"/>
<linearGradient id="linearGradient5540" x1="638.04" x2="638.04" y1="566.93" y2="701.68" gradientUnits="userSpaceOnUse">
<stop stop-color="#e78b10" offset="0"/>
<stop stop-color="#b36b0e" offset=".067615"/>
<stop stop-color="#b0690e" offset=".8"/>
<stop stop-color="#e69222" stop-opacity=".94902" offset="1"/>
</linearGradient>
</defs>
<path d="m323.33 2.5176c-4.9835 3.0212-14.593 2.5514-15.137 9.9766 6.1296 6.2408 16.045 5.2881 23.633 8.8325 14.299 4.1542 28.597 8.3083 42.896 12.462-23.517 6.7972-33.969 37.398-22.195 58.176 3.3058 6.2474 8.4756 11.62 14.93 14.613-10.409 1.1129-16.947 10.142-25.557 15.027-1.9061-0.21451 0.6966-8.2105 0.29906-11.319 1.1393-15.656 1.6282-31.609 3.1739-47.075-2.0534-5.3619-8.4754-4.0259-12.867-3.9396-34.766-1.4125-69.709-3.6585-104.53-1.0497-6.81-0.07031-14.71 1.2368-20.857 0.32913-0.19039-5.6534-8.8268-7.6384-10.053-1.4844 0.19765 4.2204-6.3334 1.1642-7.9062 4.9277-1.389 4.4904 3.3781 10.847-1.993 14.019 0.18764 4.4119-4.6533 7.8798-8.3625 8.9989-5.9767 0.55022-5.0849 8.7101-10.301 10.619-3.873 2.3099-8.1201 9.5438-11.78 9.0446-2.6786-3.3427-7.1622-5.6659-11.184-5.627 11.422-9.1693 8.8731-26.147 1.8144-37.184-3.0517-3.7564-3.8329-7.9235-4.1621-12.547-0.61008-4.5574-6.1567-9.4967-10.066-5.3008-1.5367-0.88031-5.0632-2.9467-1.3242-3.0508 5.1184-1.3234 2.1046-9.0406-2.6621-7.5391-4.2433 0.23399-6.975 0.31105-2.9082-3.5312 1.0188-4.0836-3.8504-6.7778-6.8652-3.8398-2.5114 1.9013-4.1662 3.2764-3.5156-0.89062-0.19622-5.871-8.607-6.084-9.8438-0.64258-1.103 1.7414 0.26548 6.0433-3.0449 3.6953-3.0624-2.4752-9.6883-2.0794-8.2539 3.1836-2.8924-0.46872-11.349-2.9682-11.107 3.3789 0.93389 3.2071-5.3187 1.2724-7.8652 2.3164-3.237 0.44007-9.6184 1.276-7.7988 6.043 0.79344 2.6163 5.4559 3.6032 5.9883 4.4785-6.3663 2.8924-11.975 7.0376-18.316 10.002-4.7349 2.0702-2.5046 9.8721 2.7422 8.4492 2.0889 0.25794 5.85-1.0208 7.0215 0.47461-1.5323 5.44-5.9856 10.99-4.4707 16.852 0.6888 2.8852 5.7074 0.98195 4.4082 4.291-0.0277 3.5525-2.069 11.485 3.7422 10.781 3.7865-1.8105 1.6962 4.8453 2.6641 7.0449 0.34049 3.6811 1.0438 12.369 6.709 10.109 1.8874-0.80754 0.95119 4.9851 1.9004 6.6836 1.899 4.8626-6.2211 6.222-5.8965 11.158-2.6878 6.2352-2.1197 15.998 5.8398 17.826 1.8343 0.68517 5.6055 2.5059 1.627 3.3086-12.878 4.8168-25.779 9.8099-38.178 15.811-4.0421 4.3494 2.5048 8.4312 6.6679 7.5397 9.1881 1.6021 18.956 2.0226 27.504 5.72 1.1085 4.2166 2.3863 9.872 2.2168 13.277-3.8536-2.4327-10.776-4.0123-12.566 1.7285-4.4191 7.0661-9.7258 15.137-6.7969 23.828 2.3811 3.3362-2.9089 3.2842-2.2324 6.9531-0.72255 3.5973 1.6761 7.8229-0.18359 10.893-5.3921 1.2239-14.562-3.1262-16.818 4.1856-0.17845 8.9866-0.47711 18.13 0.3125 27.043-0.36797 7.7108-1.2899 15.602-0.19336 23.242 1.7908 6.6872 9.6549 3.3576 14.344 3.3504 25.08-1.6619 50.213-1.7732 75.231 0.54418 4.8768-2.5781 2.661-9.9144 2.9141-14.602-0.0645-5.0459 9.419-0.66952 12.98-2.127 83.385 0.0807 167.08-0.16148 250.27 0.12109 0.38232 5.3128-1.5927 11.599 1.6348 16.234 15.038 0.0967 29.997-2.2164 45.131-1.4299 14.5-0.0447 29.225 1.8608 43.629 1.3152 4.7442-5.1227 1.354-13.136 2.367-19.377-1.3941-12.151 1.4869-24.281-0.73242-36.402-4.3202-4.7483-12.116-0.1235-17.055-2.6074-3e-3 -4.8723 2.6215-13.763-4.2422-15.244-2.6878-1.0075-6.7427 0.68744-8.498-0.2832 0.74324-7.4709-7.4201-11.361-13.688-12.217 5.6025-6.1855 10.781-16.768 3.9453-23.932-5.2097-6.2337-12.76-9.6613-19.434-14.016 1.2133-12.83-4.4591-24.831-5.5276-37.456 0.2718-5.188-5.3316-12.549 0.39133-15.725 14.884-12.33 31.125-23.418 44.935-36.81 0.59639-5.8433 6.289-12.71 1.3307-18.073-5.3909-1.0505-9.511 5.1392-13.736 7.9473 1.6135-4.7268 0.26434-12.168 5.2949-14.832 8.2314 2.4287 10.958-12.32 2.791-13.82-1.7112-8.6837-12.962-9.5643-20.014-9.043-7.4738 0.5738-14.083-4.358-21.421-5.2624-33.202-9.5646-66.245-19.685-99.583-28.773l-0.99051 0.13743-0.57199 0.079363zm82.102 40.24c10.665 3.271 22.203 5.8944 32.268 9.7207 0.52311 9.083 0.18618 18.397-1.8906 27.227-4.8423 7.3522-12.639 12.157-19.189 17.848-3.8612 3.1912-8.6826 0.95421-13.086 1.2461 14.362-14.823 15.561-41.026 1.1973-56.258l0.70117 0.2168zm-213.04 20.789c2.0462 4.5254-6.2589 2.5538 0 0zm-0.95118 36.527c2.3131 29.287 4.7434 60.261 20.268 85.988 11.015 16.038 30.395 22.394 48.189 27.568 3.6405 1.2412 6.5978 6.6832 10.248 2.5425 10.014-6.3255 22.553-6.8409 32.684-13.097 12.931-6.7116 22.909-18.653 27.61-32.608 2.2773-5.964 4.0419-12.113 5.5069-18.323 3.5353 3.5564 7.8599 8.3378 7.9824 13.123-6.9365 5.6883 3.248 15.962 9.5195 10.957 4.4797 2.825 10.004 0.2853 13.518-2.9238 1.1983 2.8432 1.6419 6.5903-2.1753 7.4334-7.4839 6.5645-18.203 10.426-23.157 19.324-1.6624 6.3992 3.8587 11.61 5.3106 17.223-4.8475 0.66485-12.484 0.55508-12.67 7.1699-36.701 0.0349-73.893 0.14419-110.41-0.0742 1.7662-6.7691-4.9402-14.045-11.83-11.273-3.9383 1.8711-5.6081 1.8554-3.6094-2.8398 2.2401-9.9506-0.24879-20.665-4.9551-29.551-5.3008-10.292-17.765-10.789-27.84-10.563-3.1041-0.32708-8.2792 1.8906-7.2383-3.0421-1.0917-10.707-3.6352-21.185-5.6074-31.746 5.3817 2.6338 13.824 7.8047 18.738 2.041 6.1968-10.714 2.7441-23.842 7.6133-35.004-0.82896-3.3877 3.0969-9.283 2.3008-2.3242zm-89.434 4.8926c3.4877 0.95076 2.936 2.2188 0.11719 2.8144 0.16876-0.6009-1.7964-4.2761-0.11719-2.8144zm-5.8555 7.6602c1.4204 0.63971-1.8397 0.21227 0 0zm0.83203 24.174c1.5161 3.4194 0.65497 5.2789-2.2363 2.3652 0.84101-0.54432 1.4527-2.0505 2.2363-2.3652zm261.3 0.53906c4.3021 1.6134 1.8696 8.8938 3.4316 11.725-3.7807-0.54092-4.4661-5.4329-7.834-7.0352-1.2241-1.3029-4.5089-3.2585-0.62109-3.3691 1.5757-0.70601 3.2613-1.4148 5.0234-1.3203zm-174.11 56.012c1.1953 10.609-2.8631 20.811-4.5195 31.137h-55.137c5.449-8.3074 9.3798-17.554 15.396-25.498 14.631-2.8207 29.338-5.2441 44.205-6.0254l0.0547 0.38672zm218.07 2.4102c6.5512 0.73724 12.874 2.3513 18.65 5.498 0.0514 6.7697-7.4654 12.688-4.8965 19.209 2.5281 1.6737 5.3122 2.9112 8.1289 4.0098-16.147-1e-3 -32.295 0.089-48.441-0.0547 0.45503-5.0075-1.9928-9.8907-3.6133-14.475-2.6606-2.3237-1.7968-3.7657 1.4562-4.6456 9.0061-4.5684 18.497-9.3579 28.716-9.5419zm-295.39 8.0176c0.58254 2.1182-1.0743 3.8339-2.2266 2.1055 0.90791-0.49595 2.5957-5.0112 2.2266-2.1055zm-20.043 21.143c0.97056 1.4834-2.2293 1.4686 0 0z" fill="#ffffff" fill-rule="evenodd"/>
<g transform="translate(1822 438.09)">
<g transform="translate(18.614 -6.1406)">
<g opacity=".375">
<g id="g5199" transform="translate(0 -300)">
<path d="m-1640.7 120.91c-5.6568-61.872-27.224-70.004-51.972-73.186-12.257-1.5758-34.416 2.1039-53.034-0.30937-18.975-2.4596-34.294-11.152-34.294-27.798 0-27.801 24.652-28.443 24.652-28.443s-27.48-0.14581-27.48 28.974c0 16.869 14.932 26.051 23.276 31.221 17.233 10.678 36.57 3.5353 49.91 4.4881 19.799 1.4142 53.033 8.1317 52.68 53.033" fill="#a4a4a4" fill-rule="evenodd"/>
<path d="m-1594.4 106.77c-20.128-31.803-42.517-52.262-75.658-54.833-33.141-2.5709-76.6 28.365-103.24 30.084-26.64 1.7187-48.79-15.556-48.79-15.556s15.203 24.749 49.498 24.395 61.165-28.284 98.995-26.163c37.83 2.1213 54.801 39.598 54.801 39.598" fill="#626262" fill-rule="evenodd"/>
</g>
<use transform="matrix(-1 0 0 1 -3149.8 -1.9209e-7)" width="100%" height="100%" xlink:href="#g5199"/>
</g>
<g transform="matrix(1.1145 0 0 1.1145 -2284.9 -1002.8)">
<g fill-rule="evenodd">
<path d="m638.29 566.63v137.61c4.0118-7.9952 36.623-5.0618 50.508-33.615 17.072-35.106 13.493-100.38 16.43-101.39l-66.938-2.6016z" fill="url(#linearGradient5536)"/>
<path d="m638.29 566.63-67.006 2.6113c3 1-0.57737 66.275 16.494 101.38 13.887 28.558 46.506 25.619 50.51 33.619 6.4e-4 -1e-3 1e-3 -3e-3 2e-3 -4e-3l-5e-5 -137.61z" fill="url(#linearGradient5538)"/>
<path d="m638.29 572.95v57.271h55.93c3.9373-27.308 3.0649-54.293 4.8574-54.908l-60.787-2.3633z" fill="#13213b"/>
<path d="m638.29 630.22v67.693c3.6579-7.253 33.261-4.5978 45.867-30.521 5.0832-10.453 8.1419-23.851 10.062-37.172h-55.93z" fill="#134e23"/>
<path d="m582.37 630.22c1.9228 13.321 4.9831 26.719 10.066 37.172 12.612 25.936 42.235 23.266 45.871 30.531 2e-3 -3e-3 4e-3 -6e-3 6e-3 -0.01l-4e-5 -67.693h-55.943z" fill="#0d7dd4"/>
<path d="m638.28 572.95-60.854 2.3711c1.8312 0.61041 0.97037 27.593 4.9121 54.9h55.943v-57.271h-2e-3z" fill="#ffb900"/>
</g>
<path d="m638.29 566.63 66 2.5666c0.71123 0 0.48191 0.85999 0.48191 0.85999-2.132 7.748 0.0944 67.522-15.975 100.57-13.887 28.558-46.506 25.619-50.51 33.619-4.0033-8-36.622-5.0607-50.51-33.619-16.51-33.951-13.707-96.118-16.218-101.08 0 0-0.14521-0.33422 0.49561-0.33422z" fill="none" stroke="url(#linearGradient5540)" stroke-linecap="round" stroke-linejoin="round"/>
<g transform="matrix(.94002 0 0 .94002 36.905 38.083)">
<path d="m609.98 638.79a2.9393 2.9393 0 0 1 -2.9393 2.9393 2.9393 2.9393 0 0 1 -2.9393 -2.9393 2.9393 2.9393 0 0 1 2.9393 -2.9393 2.9393 2.9393 0 0 1 2.9393 2.9393z" fill="none" stroke="#ffe8e8" stroke-linejoin="round"/>
<g>
<circle cx="614.29" cy="659.48" r="20.003" fill="#ffe8e8"/>
<circle transform="matrix(.96865 -.24842 .24842 .96865 0 0)" cx="431.2" cy="791.41" r="17.253" fill="#065078"/>
<path transform="translate(559.29 560.22)" d="m52.045 87.787 1.5488 9.1113a2.7532 2.7532 0 0 1 1.4082 -0.38867 2.7532 2.7532 0 0 1 0.20117 0.0098l-3.1582-8.7325zm13.955 0.21289-10.318 8.5977a2.7532 2.7532 0 0 1 2.0684 2.5098l8.4629-3.0625-8.0586 1.3711 7.8457-9.416zm-17.924 7.0078 4.4258 3.1055a2.7532 2.7532 0 0 1 0.55469 -0.79688l-4.9805-2.3086zm4.2012 3.877-8.4902 3.0703 8.0586-1.3711l-7.8457 9.416 9.873-8.2285a2.7532 2.7532 0 0 1 -1.625 -2.5098 2.7532 2.7532 0 0 1 0.0293 -0.37695zm5.375 1.1094a2.7532 2.7532 0 0 1 -0.39062 0.83594l4.6621 2.1621-4.2715-2.998zm-1.1641 1.584a2.7532 2.7532 0 0 1 -1.4863 0.4375 2.7532 2.7532 0 0 1 -0.01172 0l2.9648 8.1973-1.4668-8.6348z" fill="#ffe8e8" fill-rule="evenodd"/>
</g>
<circle cx="614.29" cy="659.48" r="2.7532" fill="none" stroke="#ffe8e8" stroke-linejoin="round"/>
<g fill="#ffffff" stroke-width="1px">
<g transform="matrix(.96865 -.24842 .24842 .96865 0 0)">
<path d="m432.87 775.74h-0.10882q-0.20653 0-0.28204 0.11993-0.0511 0.0733-0.0511 0.33978v2.6427h-0.0822l-2.072-2.5228v1.9254q0 0.2887 0.0644 0.36421 0.0799 0.0955 0.27315 0.0955h0.10882v0.0866h-1.0926v-0.0866h0.11104q0.20654 0 0.28204-0.12214 0.0533-0.0666 0.0533-0.33756v-2.1764q-0.0355-0.0466-0.0733-0.0933-0.0355-0.0489-0.0733-0.0955-0.15101-0.13991-0.37975-0.13991v-0.0799h0.76173l1.9143 2.3474v-1.8077q0-0.29093-0.0666-0.35755-0.0911-0.10216-0.27316-0.10216h-0.10438v-0.0799h1.0904v0.0799z" fill="#ffe8e8"/>
</g>
<g transform="matrix(.24842 .96865 -.96865 .24842 0 0)">
<path d="m792.75-444.61-0.27316 0.78838h-2.4096v-0.0866h0.1066q0.1599 0 0.24873-0.0755 0.0888-0.0755 0.0888-0.39308v-2.0365q0-0.29758-0.06-0.36199-0.0444-0.0466-0.11326-0.0711-0.0666-0.0267-0.16434-0.0267h-0.1066v-0.0799h2.4096l0.0377 0.68178h-0.091q-0.0377-0.15101-0.0666-0.23984-0.0289-0.0911-0.0511-0.12215-0.11992-0.15101-0.48857-0.15101h-0.86389v1.2392h0.68844q0.29315 0 0.39086-0.1066 0.0688-0.0777 0.10438-0.34644h0.0866v1.0882h-0.0866q-0.0355-0.27538-0.10438-0.35311-0.0977-0.11104-0.39086-0.11104h-0.68844v1.0349q0 0.20209 0.0222 0.24651 0.0466 0.10215 0.23984 0.10215h0.53077q0.36865 0 0.53743-0.1177 0.14657-0.10437 0.37087-0.5019h0.0955z" fill="#ffe8e8"/>
</g>
<g transform="matrix(-.24842 -.96865 .96865 -.24842 0 0)">
<path d="m-789.23 415.53q-0.11548 0-0.20209 0.0533-0.0844 0.0533-0.14213 0.15546-0.0244 0.0489-0.0622 0.14435-0.0355 0.0933-0.0866 0.23985l-0.87055 2.5317h-0.0955l-0.71065-2.0032-0.70843 2.0032h-0.0844l-0.93051-2.605q-0.13325-0.37754-0.19099-0.41751-0.0822-0.10216-0.28204-0.10216v-0.0799h1.1548v0.0799h-0.0533q-0.171 0-0.22208 0.10438-0.0222 0.0422-0.0222 0.0822 0 0.0444 0.0222 0.13769 0.0244 0.0933 0.0755 0.23762l0.61516 1.7633 0.51966-1.499q-0.0266-0.0933-0.0555-0.17322-0.0266-0.08-0.0533-0.15102-0.0666-0.171-0.12436-0.27315-0.0555-0.10216-0.1066-0.14658-0.1066-0.0822-0.26205-0.0822v-0.0799h1.2192v0.0799h-0.0822q-0.25095 0-0.25095 0.20654 0 0.0644 0.0244 0.16656 0.0267 0.10215 0.0777 0.24206l0.60628 1.71 0.59517-1.7322q0.0511-0.13991 0.0733-0.23319 0.0244-0.0955 0.0244-0.14435 0-0.21542-0.34422-0.21542v-0.0799h0.93495v0.0799z" fill="#ffe8e8"/>
</g>
<g transform="matrix(-.96865 .24842 -.24842 -.96865 0 0)">
<path d="m-430.16-804.76q0 0.35977-0.2776 0.61738-0.28648 0.25539-0.70843 0.25539-0.25317 0-0.52855-0.0933-0.27316-0.0888-0.31757-0.0888-0.10882 0-0.13991 0.1821h-0.0822v-1.0726h0.0822q0.0533 0.4486 0.32867 0.68401 0.24207 0.20653 0.60628 0.20653 0.27316 0 0.45304-0.15546 0.16878-0.14435 0.16878-0.35532 0-0.21986-0.171-0.37754-0.13325-0.11992-0.58407-0.37531-0.2776-0.15546-0.4597-0.28204-0.17988-0.12881-0.27094-0.23541-0.17766-0.19542-0.17766-0.49079 0-0.34422 0.24651-0.58185 0.25095-0.24206 0.66179-0.24206 0.1066 0 0.21986 0.0222t0.23096 0.0666q0.24207 0.0888 0.27316 0.0888 0.10216 0 0.15324-0.17766h0.0844v1.0837h-0.0844q-0.0444-0.43083-0.28649-0.66401-0.12214-0.11993-0.26871-0.17767-0.14657-0.06-0.31535-0.06-0.23319 0-0.39086 0.14213-0.16212 0.14213-0.16212 0.33978 0 0.18211 0.15545 0.32646 0.0777 0.0755 0.23097 0.17322 0.15545 0.0977 0.39086 0.2243 0.21097 0.11326 0.35976 0.20431 0.15102 0.0888 0.24429 0.1599 0.33534 0.25539 0.33534 0.65291z" fill="#ffe8e8"/>
</g>
</g>
</g>
<g transform="matrix(.12408 0 0 .12408 585.83 580.43)">
<circle cx="176.48" cy="170.07" r="167.65" fill="none" stroke="#d94300" stroke-linejoin="round" stroke-width="3.9766"/>
<g>
<path d="m176.48 1.4316a168.64 168.64 0 0 0 -12.592 0.50195c3.3312 2.8686 14.333 0.53522 18.945 0.91602 2.5777-0.029018 5.2763-0.34998 7.7656-0.71289a168.64 168.64 0 0 0 -14.119 -0.70508zm-13.646 0.71875h0.10156-0.10156zm36.242 0.99414c-0.24427 0.24168-0.5036 0.49319-0.84375 0.78711 4.8319 3.5904 10.197 2.4275 17.303 2.2793a168.64 168.64 0 0 0 -16.459 -3.0664zm-54.727 1.5195a168.64 168.64 0 0 0 -123.72 101.19c-0.42562 1.3517-0.70084 2.4125-0.79297 3.0957 6.2935-11.908-2.7217 17.978 5 9.1016 2.1219 10.166-12.758 23.47 3.5 8.1992-2.2068 11.529 3.0063-1.4575 4.2773 2.1934 0.5292-15.19 19.916 0.95944 17.924-13.893-9.339 0.18979 28.631-17.106 4.7363-15.467-17.386 2.132 8.6682-23.508 8.377-29.623 14.528-14.269-4.059 11.799 14.486 3.3887 3.1403-2.3883 5.785 16.149 14.5 3 10.649-6.4665 14.344-20.524-1.6328-13.117 0.50711-4.7482 16.01-5.9608 2.5273-7.5039 5.5316-10.592 17.185-8.9376 25.418-17.396-1.4048-9.1899-29.089-0.35773-10.213-11.182 6.1545-7.9856 9.223-14.652 22.201-15.6 0.0942-1.112 7.0605-3.9161 13.414-6.3867zm-111.74 123.78c-0.04104 1.1781 0.01789 2.5229 0.22266 4.1074 0.11637-2.1444 0.0168-3.4196-0.22266-4.1074zm194.32-119.25c-6.9909-0.27238-12.798 13.947 5.6719 14.428-0.72549 12.69 22.105 29.944 14.561 34.725-8.373-0.92345-22.551-19.005-15.125-0.89648-5.9161-14.776-9.4694 10.237-8.8613 11.08 12.681 3.5902 29.207 0.76633 35.217 11.963 15.189-6.9672 35.014-0.15178 37.943 14.059 0.27066 2.7887 16.053 15.913-0.13672 12.262 4.0688 15.823 3.9709 18.706-4.9297 1.8125-17.989 6.5346-6.2918 24.328-4.0332 37.324-13.444 9.2441-21.983 4.9783-17.889-12.148-18.893-5.3981-24.337-30.253-41.012-29.051-10.352-9.8691-14.673 7.6245-21.551 10.25-7.4316 14.272 34.521 17.911 16.197 33.387-3.8526-13.914-34.32-13.447-24.379 7.5156-0.49102 26.842 32.896-12.353 18.174 14.336-0.38774 13.599 19.81 39.722 26.459 20.512 4.0369 15.762 3.2608 32.942-6.8535 43.084-9.5481 16.798 26.653-2.2731 14.332 18.662-11.056 3.0366-4.0639 9.9155 3.2031 4.2051-2.6343 8.4659 9.7036 9.7973 7.9531 18.016 0.1165 0.0747 0.26859 0.2626 0.46484 0.63281-0.31605 0.46893-0.53654 0.34761-0.65234 0.0937-0.34003 1.1342-0.9251 2.3883-1.8477 3.8066 7.2595 0.041 18.625-26.699 26.162-16.32-6.0382 9.7446 1.786 3.1776 10.42-3.5098-0.15474 0.27451-0.29203 0.55233-0.38086 0.83008 0.94741-0.91834 1.5683-1.5734 2.0469-2.1074 4.851-3.7066 9.697-7.1357 12.268-7.4551 0.79959-2.9985 2.8412-6.1623 5.2734-9.3711-0.67262 1.2584-1.6184 3.3439-2.7891 6.4336 2.9374-4.3852 4.1011-7.5045 3.9258-7.9062 7.8404-9.9504 18.355-20.17 7.3867-27.186-3.636 11.045-13.895 27.146-25.617 26.064 3.7614-11.012-6.955-18.306 7.8438-28.475 5.0922-6.411 6.963-13.933 11.822-6.4492 2.2315-13.181 16.086-27.227 14.574-41.57-3.5265-5.521 1.8218-17.09 2.3652-20.279-9.5032 2.2503 1.7059-13.15-11.365-4.0352-5.3419-9.7177 1.3942-26.378-4.4805-23.865-16.905-8.4402-5.024-22.687 5.0391-7.4297 8.891 0.98462-0.60626-17.807-0.24805-5.7324-10.466-2.2396-7.4227-27.734 0.12305-9.5059-0.55742-1.8889-1.1878-3.7403-1.8789-5.5566a168.64 168.64 0 0 0 -57.154 -58.939c-2.2559-0.3318-1.4924 0.47166-7.0762-2.4824 1.2169 2.7273-5.8713-2.858-8.9941-6.3008a168.64 168.64 0 0 0 -22.143 -8.9043c-0.01-4.368e-4 -0.0195-0.00353-0.0293-0.00391zm34.754 266.25c0.0744-0.2483 0.13711-0.49002 0.1875-0.72656-0.30164-0.19336-0.34237 0.38705-0.1875 0.72656zm-122.05-254.78c-0.50624 0.04325-0.90877 0.41072-0.69141 1.3828 3.4162-0.0098 1.8051-1.478 0.69141-1.3828zm121.81 3.9824 0.29883 0.19922-0.29883-0.19922zm0.64258 0.35742c-0.0439-0.0026-0.0188 0.05963 0.15625 0.24219 0.73694 0.35396-0.0244-0.23426-0.15625-0.24219zm-125.48 0.92969c-0.94618-0.04116-2.7838 4.4778 0.43945 0.91211-0.0503-0.65064-0.2211-0.90261-0.43945-0.91211zm-3.2754 2.0469c-0.42529-0.14184-2.1344 2.3845-0.18555 1.2656 0.32662-0.87378 0.32731-1.2183 0.18555-1.2656zm-3.3828 2.4629c-1.8067 0.03056-3.6811 0.80055-1.7031 2.7031 6.2368-1.5602 4.0261-2.7424 1.7031-2.7031zm-3.2031 3.002c-2.7701 2.4026 4.7363 1.814 0 0zm-3.5898 1.6973c-3.4886 0.07766 0.62409 12.133 1.9902 0.80274-0.83882-0.58094-1.4919-0.81383-1.9902-0.80274zm113.31 7.127c-0.98063-0.08494-1.5979 0.89198-1.1191 3.877 10.276 6.1883 4.061-3.6222 1.1191-3.877zm-5.6504 0.92969c-1.3915-0.05358-2.6398 0.34241 0.43164 1.3477 2.4946-0.79093 0.95988-1.2941-0.43164-1.3477zm-0.94922 1.3301 0.38086 0.01758-0.38086-0.01758zm-116.42 6.5176c-11.376-0.76725-9.4453 25.229 0 0zm-8.8008 11.799v0.20117-0.20117zm-14.67 18.848c-7.7589 0.13427-22.028 13.485-5.625 10.109 0.34568 2.7888 10.583-4.1513 9.7949-6.457-0.33553-2.6923-1.9974-3.6899-4.1699-3.6523zm113.15 26.881c-1.311-0.0535-4.2876 3.0704-0.0762 2.6719 0.9242-1.966 0.67207-2.6475 0.0762-2.6719zm-133.13 3.0039c-1.1298-0.0391-2.5093 0.74541-0.74805 2.4688 2.758-1.5668 1.8779-2.4296 0.74805-2.4688zm129.2 3.4941c-1.4401-9e-3 -2.8293 0.64178 0.1543 1.9746 2.7767-1.298 1.2858-1.9659-0.1543-1.9746zm-129.31 1.7559c2.8789 11.765-9.3555 14.721-11.131 21.219 20.852 8.861 20.137-13.486 11.131-21.219zm129.69 1.2129c-0.77392-0.072-1.4255 0.9946-1.5195 4.2051 7.2604 6.4701 3.8413-3.989 1.5195-4.2051zm-5.0742 0.94336c-0.62973 0.10567-0.80127 0.84604 0.45507 2.7617 4.5302-0.15472 0.93032-2.9942-0.45507-2.7617zm-173.35 0.86133-0.09961 0.0996 0.09961-0.0996zm62 2.5996c-6.0775 1.4284 0.32276 5.2742 0 0zm-1.7656 3.0664c-1.5335-0.1651-3.2423 1.7479-4.0352 7.9336 9.9349 2.855 7.4088-7.5704 4.0352-7.9336zm-44.717 0.31446c-1.6117 0.0204-3.7528 2.6603-0.81836 6.8203 3.2502-4.817 2.2405-6.8383 0.81836-6.8203zm1.6914 4.3633c-2.7323 0.2497 1.4196 7.0177 2.291 0.65625-1.0427-0.52564-1.785-0.70249-2.291-0.65625zm18.092 3.6562c-1.5106 8.3096 3.9675 0.17091 0 0zm-17.367 0.0547c-0.68109-0.26307-4.9651 6.9353-1.5332 4.7461 1.5155-3.3971 1.7997-4.6432 1.5332-4.7461zm297.22 0.28906c-0.3073-0.31669 0.14698 7.7588 0.74804 5.3574-0.38965-3.8244-0.6278-5.2335-0.74804-5.3574zm-294.86 0.15039c-1.5359 0.12588-3.7767 2.266-3.7949 7.4062 6.5791-4.4004 5.7697-7.5681 3.7949-7.4062zm293.52 4.0781c-1.7107-0.0778 3.3443 8.3752 1.1875 0.6289-0.56132-0.43134-0.94311-0.61779-1.1875-0.6289zm-298 2.5976-0.81641 1.9297 0.81641-1.9297zm7.7832 0.23047c-11.577 4.9358-11.082 21.77 3.707 15.221 0.44778 4.3337 1.5464-0.63597 1.0938-1.7207 13.949-11.907-12.963-0.58165-4.8008-13.5zm2.5 1.1992c-6.4794 0.95844 2.0577 8.2172 0 0zm65.66 2.2422c-0.53829-0.0383-1.9002 1.9804-0.66016 2.959 1.0092-2.1722 0.98313-2.936 0.66016-2.959zm-1.5606 1.959 0.20117 0.29883-0.20117-0.29883zm-3.7793 1.9688c-2.8349-0.14476-6.658 1.3734-10.479 5.4648-12.834 3.4507-24.381 8.2411-32.82-2.3457-2.9291 0.8393-5.0877 1.797-6.6641 2.8398 0.28288-0.37989 0.57224-0.92447 0.84375-1.7285-3.1958-0.24951-2.8904 2.4887-1.7734 2.4062-7.9398 6.4705 4.7106 15.96 7.1133 23.168-4.7677 5.9154-12.818-9.1216-16.102-3.3828-9.4581-18.388-21.838 20.792-4.7539 25.434 15.018 15.341-14.061 6.3047-2.3984 20.184-4.7868 26.107 20.589 26.892 26.584 45.596 6.6814 16.414 4.7381-4.8387 13.561 6.0976 6.7735 7.951-5.2434 9.3121 10.383 16.484 11.54 17.965 30.727 30.176 51.248 35.811 8.3924 4.0236-33.643-18.979-15.006-18.625 6.305 8.3742 8.0721 4.5066 10.037-0.60156-0.38416 1.1529-0.31318 2.9102 1.3066 1.0293-0.28632-2.3015-0.84761-2.0872-1.1973-1.3066 2.1292-5.556 4.5895-12.33 13.332-6.5762 11.225-7.5257 8.3026-27.394-1.8691-28.686 1.0529-0.44159 22.273-3.6309 13.535-4.5312-11.929-8.6532-27.466-17.254-34.545-29.236 3.6165-2.6374-0.34748-4.5346-1.8164-3.6055-2.4013-5.7296-2.847-12.214-0.18945-19.783 12.846-20.664-45.407-26.339-20.178-51.098 0.12457 0.37853 0.45115 0.89992 1.127 1.623 1.7729-1.0159 0.67901-2.1021-0.26758-2.3477 8.1141-5.9307 6.2892-12.013 0.98828-12.283zm4.3242 9.0449c-0.51875-0.10996-1.9561 1.5724-0.24414 1.5859 0.52553-1.1157 0.47994-1.536 0.24414-1.5859zm-1.875 2.6621c-0.52717-0.10337-1.8775 0.58619-0.66992 1.2246 1.0057-0.81493 0.98623-1.1626 0.66992-1.2246zm-1.5684 0.42383 0.39844 0.5-0.39844-0.5zm106.77 2.3086c-0.16437-0.0485-0.47557 5e-3 -0.97461 0.19141-7.6774 1.4209-17.106 13.614-3.4883 5.8496-0.45251-0.33504 5.6135-5.7017 4.4629-6.041zm-110.44 1.0801c-1.8167-0.44989-8.0703 14.956 0.0684 5.0117 0.60013-3.5166 0.44033-4.8858-0.0684-5.0117zm206.95 3.1582c0.15579 0.0574-0.0842 0.79254-0.97656 2.5527-4.3795 13.908-13.038 25.515-17.916 38.9 4.4838-16.4 3.1386-25.646 13.744-37.629-3.8514 9.356-8.4957 21.836 0.0605 5.7109-1.0693-1.2969 4.5315-9.7403 5.0879-9.5352zm-8.377 9.6523-0.19922 0.30078 0.19922-0.30078zm-264.59 22.553-0.11133 1.5488 0.11133-1.5488zm291.29 2.4473c-3.8028 1.7722 1.1246 7.5113 0 0zm-3.4531 2.6348c-2.8646-0.34626-0.66225 13.94 1.5527 1.166-0.63076-0.76823-1.1435-1.1166-1.5527-1.166zm-196.65 18.082c-0.77732 0.0741-1.216 0.8229 0.10742 2.7832 3.4232-1.1545 1.1881-2.9068-0.10742-2.7832zm-4.8926 0.88476-0.0566 0.17188 0.0566-0.17188zm7.2305 2.2715c-1.8795-0.19849-3.0968 2.2778-0.23047 9.627-1.1618 0.54468-2.392 2.5998-0.70117 3.5 9.0343-5.0332 4.0642-12.796 0.93164-13.127zm-4.3301 0.12695c-4.5099 1.9436 3.6954 4.7614 0 0zm192 3.6016c-0.84988 5.5993-6.751 8.0254 0 0zm-1.5293 0.22656c0.34127 0.1023-1.0106 2.0442-5.3242 6.6758l-3.0469 1.9961c3.7591-5.0438 7.8723-8.8214 8.3711-8.6719zm1.1289 6.7734c-4.2441 6.4325-3.2803 8.7244 0 0zm-118 0.18945c-2.062-0.17003-4.4702 0.76359-7.041 3.3652-8.2322-6.4155-8.3088 7.2215-3.2559 8.7441-5.4088 4.3755-11.063 5.614 3 6.2012 18.695 3.8755 16.232-17.574 7.2969-18.311zm112.49 0.58594c1.9197-0.27893-3.2489 5.958-9.6875 7.4238 5.7313-5.3434 8.6819-7.2777 9.6875-7.4238zm6.2129 0.0234-1.3027 2.7305 1.3027-2.7305zm-2.5 3.9004c-6.2428 9.3619-10.795 17.374-1.6016 3.4629l1.6016-3.4629zm-274.17 0.77148c-0.84629 0.32614 5.5465 7.2552 0.27148 0.0293-0.12637-0.0431-0.21506-0.051-0.27148-0.0293zm140.6 7.2461c-1.7251 0.16909-4.3378 3.1881 0.97461 2.1816 0.41076-1.7464-0.19049-2.2585-0.97461-2.1816zm126.97 3.4825c-8.6072 10.899 0.40533 1.6013 0 0zm-262.79 0.24219c0.0099 0.31724 6.1059 11.832 1.7852 3.0586-1.3138-2.358-1.7879-3.1474-1.7852-3.0586zm260.85 0.0977c-1.3416-0.0246-4.4689 1.3948-9.168 5.6602 8.6794-1.5676 11.404-5.6192 9.168-5.6602zm-2.4102 4.8047c-0.62583 0.0325-2.5057 1.1902-4.168 3.3965l0.81054-0.041c3.3555-2.2958 3.9832-3.3879 3.3574-3.3555zm0.29296 0.7793c-0.33587 0.0293-5.0206 4.675-3.252 3.7754 2.6591-2.8496 3.4046-3.7887 3.252-3.7754zm-8.752 0.67578c-3.6402 1.2309-2.2277 5.5873 0 0zm3.0859 0.64648c-0.47394 0.0527-1.1831 0.27174-2.1856 0.75391 1.8907 1.9083 4.2393-0.98228 2.1856-0.75391zm4.4141 1.1543c-2.846 1.5777-2.4582 5.6129 0 0zm-5.1309 0.89453c-0.34871 6e-3 -0.99557 0.1996-2.0684 0.70508-0.52454 2.7976 3.5795-0.72964 2.0684-0.70508zm0.13086 1.7051c-9.8587 4.4784 1.742 2.379 0 0zm-1.8984 0.0996-0.20117 0.20117 0.20117-0.20117zm-131.8 2.4004c-6.9958 0.47599 1.6563 7.1032 0 0zm-99.492 3.6152c-0.07288 0.011 0.26389 0.45276 1.3926 1.6856 2.7313 2.1138-1.1739-1.7184-1.3926-1.6856zm231.79 0.38477c-13.18 10.693-6.241 11.757 0 0zm-231.34 1.4668c-1.0942-0.14059 0.29159 4.5626 5.6953 10.225l-0.46094-1.8906c-2.5769-5.8732-4.4857-8.2378-5.2344-8.334zm192.66 1.2773c-1.6643-0.0237-5.9349 1.3846-2.127 2.0566 3.1857-1.5118 3.1255-2.0424 2.127-2.0566zm-4.4004 2.1602c-0.6089 0.0879-1.3869 0.71037-2.3262 2.1953 4.4218 7.0736 4.9648-2.5761 2.3262-2.1953zm-185.92 3.1875c-0.40497-0.12127-0.06108 1.0939 1.8965 3.0078-0.8134-2.0106-1.5815-2.9135-1.8965-3.0078zm182.6 8e-3c-5.751 1.2103 4.04 1.4825 0 0zm-5.3418 0.69141c-4.4506-0.13689-9.9766 1.7734-14.758 4.709-12.655-0.5723-27.029-0.58293-29.201 15.4 4.0385 2.9163-18.36 18.643 1.6113 18.717 11.089-5.4137 0.71814 6.8434 14.945-3.8574 7.4012-9.8292 20.143-12.837 21.648-9.5039-11.992 9.5673 19.675-5.8247 22.217-9.5606 0.40975 0.23087 1.9-0.38471 2.6777-2.2949-1.4654 0.70627-2.2363 1.2855-2.5742 1.6953-0.1104-0.12045-0.34032-0.19006-0.72461-0.19531 5.2742-9.584-13.095 7.9366-7.543-7.5332-0.47341-5.256-3.8483-7.4393-8.2988-7.5762zm42.742 1.6094-0.10156 0.0996 0.10156-0.0996zm-9.6016 0.5c-3.1914 2.2131 2.6284 0.27667 0 0zm2.1016 0.0996c-2.4667 0.39405 0.56461 1.7249 0 0zm1.5996 0.80078c-2.6156 0.83391 0.55012 1.6162 0 0zm-7.5 1.2988c-5.1793 1.9828 0.67157 1.8507 0 0zm-2.4004 1.5c-5.7414 2.7042 0.68386 3.6407 0 0zm-3.3008 3c-8.0099 4.0542-2.2311 5.0137 0 0zm-193.58 0.0215c-0.58343-0.0307 0.93575 1.6068 4.9785 3.6797-2.7989-2.6228-4.5247-3.6558-4.9785-3.6797zm188.97 3.9766-0.19336 0.10156 0.19336-0.10156zm6e-3 2e-3h0.20117-0.20117zm-123.27 7.2832c-0.9867-0.041 2.2773 4.3116 2.668 1.918-1.5371-1.4026-2.3391-1.9043-2.668-1.918zm7.248 0.0645c-0.50923-0.0537-0.91123 0.28591-0.67969 1.4531 3.44 0.688 1.8-1.335 0.67969-1.4531zm-9.1758 0.57812c-1.1548 0.0702-2.2382 1.3646 1.1953 1.6738 0.21626-1.3182-0.50244-1.7159-1.1953-1.6738zm7.6953 0.0742 0.20117 0.20117-0.20117-0.20117zm-7.2285 2.6836c-0.38419 0.0535-0.52567 0.38346 0.1289 1.2168 2.7319-0.11732 0.71631-1.3345-0.1289-1.2168zm-1.8711 1.5176c-1.942 0.45201 1.6909 1.1026 0 0zm-0.75195 2.7754c-0.19973-0.0138-0.22677 0.29928 0.15234 1.2246 2.5998 1.7979 0.44684-1.1833-0.15234-1.2246zm96.213 0.2461c-2.2485-0.0325-13.855 10.522-0.36133 2.0781 0.90139-1.4987 0.88021-2.0706 0.36133-2.0781zm-97.854 0.88476c-0.35133-0.0189-0.51185 0.29671 0.19336 1.293 1.5047-0.29939 0.39221-1.2615-0.19336-1.293zm99.293 1.293c-7.4647 1.6949 2.8315 1.6745 0 0zm-100.3 0.99023c-0.30538-0.0504 0.41216 3.3851 0.39648 0.70899-0.20099-0.50098-0.32601-0.69735-0.39648-0.70899zm1.2676 0.53907c-0.35224 0.0545-0.56 0.52395 0.39843 1.2461-0.36735 0.60098-0.0473 1.2355 2.1309 1.125 1.1235-2.9821-1.3131-2.2145-2.0527-1.2305 0.32131-0.85588-0.13761-1.1931-0.47656-1.1406zm-1.0684 1.7012c-0.25289 0.0108-0.61182 0.0631-1.1035 0.16992-0.55187 1.6401 2.8737-0.24584 1.1035-0.16992z" fill="#d94300"/>
<path d="m237 23.1c32.5 21.4 44.599 39.601 52.199 55.801-8.7-8.9-23.5-18.1-33.6-18.9 14.834 11.076 39.625 43.68 37.561 93.049-6.7015-16.79-15.76-23.748-15.76-23.748 0.0116 0.13539 0.0254 0.29152 0.0371 0.42774-0.0785-0.0722-0.16073-0.16027-0.23828-0.22852 1.9979 18.277 2.6086 31.222 2.4238 40.969-0.0123 0.54025-0.0294 1.0818-0.0469 1.623-0.0249 0.84961-0.0528 1.6821-0.0898 2.4824-0.0469 0.98963-0.10955 1.9799-0.17578 2.9707-0.0423 0.60906-0.0797 1.2458-0.12891 1.8262-0.0242 0.30363-0.0578 0.6066-0.084 0.91016-0.8724 9.3664-2.6092 15.083-4.1504 20.998-1.8305-7.8168-4.248-12.18-4.248-12.18s-0.0535 0.4422-0.0606 0.51367c-0.0416-0.0931-0.0991-0.22355-0.13867-0.3125 0 0-0.59961 15.398-10.6 37.398-6.3068 13.858-12.743 19.713-16.754 20.967-1.3712 0.34542-2.5063 0.14573-3.3457-0.4668-0.0234 0.0926-0.0521 0.18143-0.0762 0.27344-0.0289-0.02-0.125-0.0723-0.125-0.0723 0.2-2.2 0.50039-4.4004-0.0996-5.9004 0 0-3.2008 1.1-5.3008 4-0.6 0.9-1.3672 1.7445-2.3047 2.5742-0.3125 0.27656-0.64414 0.55117-0.99414 0.82617-0.2 0.2 2.2996-3.1996 2.0996-3.0996-1.2 1-2.6004 2.1996-3.9004 3.5996-4.9 5.1-9.3992 10.799-11.699 9.1992 2.1-0.7 3.8988-3.3996 4.2988-6.0996-1.9 1.4-6.7988 4.9992-17.799 6.6992-4.5 0.7-23.6 4.2004-49.1-8.5996 3.7-0.4 9.3-1.6992 13.5 0.80078-4.2-4.6-14.501-3.7-21.801-6-6.4-2-14.7-11-19.5-15.5 17.222 4.2177 35.367 2.0239 47.658-4.1328 1.7744-0.87305 3.4289-1.8297 4.9414-2.8672 7.3896-5.1088 17.76-12.442 23.549-13.01 0.69488-4e-3 1.3784 0.0514 2.0508 0.20899 6.4 1.4 10.701-4.9988 5.7012-10.799s-17.201-13.5-33.701-9.4004c-12.7 3.2-23.399 13.299-41.199 6.2988-1.1-0.4-2.2008-0.9-3.3008-1.5s3.7 0.7 2.5 0c-3.3999-1.3-9.5991-4.0992-11.199-5.1992-0.3-0.2 2.6008 0.50078 2.3008 0.30078-3.7559-2.2224-6.584-4.3407-8.7715-6.3535-0.40439-0.37024-0.80086-0.74079-1.1621-1.1094-0.12401-0.12582-0.23468-0.24815-0.35352-0.37305-7.3858-7.8275-5.4277-15.168-4.3144-19.064 0.9448-3.3498 3.5078-6.318 5.1641-7.4727 0.12119-0.0762 0.2427-0.15259 0.36719-0.22461 0.0613-0.035 0.12235-0.0713 0.17969-0.0996 2.3937 0.89834 3.8906 1.6973 3.8906 1.6973s-1.1008-1.7016-1.8008-2.6016c0.2-0.1 0.3-0.0992 0.5-0.19922 2 0.7 6.4992 2.3 8.6992 3.5 2.325 1.125 3.4699 2.3059 3.8965 2.8262 0.14219 0.17344 0.20508 0.27344 0.20508 0.27344s0.7-0.5 0-2c-0.3-0.7-1.4004-2.6004-4.4004-4.4004h0.0996c1.6 0.6 3.2996 1.4 5.0996 2.5 0.6-2.7 1.7-5.4984 1-10.398-0.6-3.5-0.49883-4.3016-1.2988-5.6016-0.7-1.1 0.19883-1.4996 1.2988-0.59961-0.3-0.9-0.69961-1.6996-1.0996-2.5996 4e-3 -0.0189 0.0166-0.0413 0.0215-0.0606 0.12528 0.2493 0.23299 0.39494 0.3418 0.36719 0.0681 0.079 0.11657 0.0739 0.13672-0.10742 5.3-6.4 26.2-16.1 30.9-21.1 0.59377-0.64325 1.0826-1.1926 1.4902-1.6738-0.0286 0.0795-0.0632 0.20536-0.0898 0.27344 2.7-2.1 3.8996-4.1 5.0996-7 1.2-3 2.5996-10-1.4004-11.5-3.1694-0.76834-5.9936-1.3444-10.994-1.3008-4.1821-0.30653-9.7761-0.4547-17.406-0.39839-11.1 0.1-16.3-9.5992-18.1-13.699-0.0325 0.11756-0.0599 0.23588-0.0918 0.35352-0.0307-0.07805-0.0799-0.18065-0.10742-0.25391 3.2-11.7 9.6988-21.901 19.799-30.201 0.6-0.5-2.3988 0.30078-1.7988-0.19922 0.7-0.6 4.9988-2.6996 5.7988-3.0996 1-0.6-4.7-2.0996-9.5-1.0996-3.675 0.75-5.1 1.275-6.6797 2.0391-0.52656 0.25469-1.0707 0.53438-1.7207 0.85938 1-1.1 4.3-2.6996 3.5-2.5996-4.6375 1.05-10.04 3.8623-14.869 7.0273-0.68985 0.45215-1.3668 0.91055-2.0293 1.373 0-0.5-3.9e-4 -0.89961 0.0996-1.5996-2.5 1.3-8.5996 6-10.1 9.5 0-0.8-2e-3 -1.2-0.10156-2-1.7 1.6-3.3984 3.5-4.8984 5.5 0 0-0.0131 0.03678-0.043 0.06641-5.9238-1.4761-11.365-2.1874-16.25-2.4043-8.9039-0.44578-16.898 0.71221-24.051 2.959-3.7812-3.0727-9.3674-8.4165-13.656-15.322-0.073959-0.11094-0.13193-0.10922-0.18359-0.070313-0.07613-0.05081-0.13399 0.0063-0.18555 0.11524-0.01069-0.01649-0.02055-0.02839-0.03125-0.04492-0.25249-0.37874-0.35139 0.24748-0.48633 0.63281-2.66-4.8201-4.8165-12.895-5.1133-18.633 0 0-0.0637 0.04258-0.0957 0.0625-0.0011-0.01996-0.0048-0.04259-0.0059-0.0625 0 0-0.11355 0.07333-0.28125 0.19141-0.0036-0.06148-0.01443-0.13045-0.01758-0.19141 0 0-4.4012 2.5-7.2012 11.5-0.28876 0.92403-0.53381 1.5936-0.75586 2.1855 0.052-0.7545 0.10883-1.5412 0.05668-1.3848-0.02137 0.04701-0.06854 0.11258-0.09375 0.16211-0.0015-0.05905 0.0067-0.19984-0.0059-0.16211-0.06869 0.15112-0.19627 0.34523-0.30078 0.52148 0.0035-0.0597 0.01113-0.14767 0.01367-0.19922 0.012544-0.25312 0.011372-0.39727-0.013628-0.32227-0.5 1.1-2.0996 2.9004-2.5996 4.9004-0.3 1.125-0.7125 1.9121-0.98438 3.0371-0.01403 0.05805-0.01996 0.13538-0.0332 0.19531-0.02049-0.45096-0.04289-0.82852-0.08203-0.63281-0.0043 0.01152-0.0093 0.02363-0.01367 0.03516-0.01204-0.07945-0.03417-0.13476-0.08594-0.13476h-0.10156c-0.03487 0.08718-0.06864 0.1871-0.10352 0.2793-0.02951-0.2237-0.06254-0.37878-0.0957-0.2793-1.3 3.3-2.4004 7.1004-3.4004 11.4-0.96397 4.6821-1.9099 10.578-2.123 17.631-0.41726 6.8931-0.1564 12.083 0.22265 13.068 0.03503-0.03503 0.05667-0.06354 0.08984-0.09766 8.9e-4 0.0032 0.0011 0.0086 2e-3 0.01172-4.2941 5.8939-6.9927 10.889-8.0918 13.387-5.2 10.1-10.499 25.698-14.799 49.898 0 0 0.17739-0.51239 0.26172-0.76367-0.053136 0.29506-0.10937 0.56756-0.16215 0.86523 0 0 0.039474-0.11427 0.041016-0.11914-0.01344 0.07461-0.027594 0.14397-0.041016 0.21875 0 0 0.10039-0.39961 0.40039-1.0996-0.1 0.3-0.10117 0.7-0.20117 1 0 0 0.40156-1.1016 1.1016-3.1016 0.067076-0.37211 0.1375-0.72386 0.20508-1.0918 1.346-3.5038 3.5988-8.8282 6.7852-14.629-4.1017 13.02-7.357 33.031-5.3906 62.822 0.00601-0.0601 0.044754-0.35928 0.056641-0.4668 0.016638 0.25901 0.025545 0.50514 0.042969 0.76563 0-0.12031 0.03171-0.3365 0.060547-0.60156 0.0061-0.0647 0.036268-0.28543 0.044922-0.36914 0.00343 0.29062 0.014569 0.55437 0.09375 0.87109 0-0.4 0.20156-2.0992 0.60156-4.6992-0.018325-0.3494-0.027993-0.68071-0.044922-1.0273 0.49568-3.2518 1.2771-7.6658 2.3887-12.799 1.1691 20.076 6.0269 44.52 21.555 71.125 12 20.5 43.502 68.1 122.6 85.9-0.30326-0.0871-0.59352-0.18444-0.88867-0.27734 0.39733 0.0915 0.78774 0.18738 1.1875 0.27734-3.6-1-6.7-2.5004-9-3.9004-0.18518-0.0494-0.36616-0.10061-0.55078-0.15039-3.0732-1.8413-4.8496-3.4492-4.8496-3.4492s1.85 0.59453 4.9609 1.4727c0.0145 0.01 0.0245 0.0176 0.0391 0.0273 9.2 2.6 30.1 7.9008 46.5 7.3008-0.15654-0.0313-0.29372-0.0671-0.44531-0.0996 0.0155-5.6e-4 0.0314-1e-3 0.0469-2e-3 -0.18481-0.0326-0.35057-0.072-0.52734-0.10742-1.5632-0.36214-2.8525-0.78869-3.7734-1.291-0.0999-3e-3 -0.20267-0.0119-0.30273-0.0156-2.8275-1.3668-3.498-2.9844-3.498-2.9844s1.2579 0.0435 2.3828 0.0801c0.044 0.0415 0.0701 0.0767 0.11719 0.11914 10.9 0.3 62.801 0.69922 91.301-21.801 7.1-5.3 11.699-11.5 13.199-17.1 0 0-0.0582 0.0417-0.15625 0.0937 0.0102-0.0378 0.0232-0.0755 0.0332-0.11328 5e-3 -3e-3 0.0169-7e-3 0.0215-0.01l-4e-3 -0.0547c7e-3 -0.0259 0.0149-0.0522 0.0215-0.0781 0.022-0.0114 0.0444-0.0237 0.0664-0.0352l0.0176 0.0977s-0.0318 0.0296-0.10156 0.0703l2e-3 0.0293c3.3-1.7 6.6-3.7 10-6 8.4-5.7 18.601-13.6 26.701-23.6 3.0442-3.6899 5.3811-7.2838 7.2207-10.646 4.0464-7.2645 6.7947-15.407 7.2793-24.453-0.13813 2.0226-0.61902 4.015-1.3711 5.9707 0.0412-0.22672 0.0833-0.45387 0.12304-0.67968 1.8964-6.5203 1.7202-12.34-0.67382-16.346 10.834-20.486 23.382-59.967 12.904-94.617-0.13036-0.43559-0.28379-0.86528-0.42187-1.2988-0.39293-1.3017-0.66164-2.0261-0.66211-2.0274-0.0351-0.10037-0.0641-0.20248-0.0996-0.30273 0.0303 0.11652 0.054 0.23307 0.084 0.34961v2e-3c-0.0295 0.0886-2.9391 8.8325-6.8047 21.875 2.0396-18.943 0.61401-38.679-5.9785-56.926-3.0804-8.5788-6.9042-15.7-10.645-21.43-4.9628-8.1593-10.447-14.399-14.756-17.371 0.55083 0.41482 1.0925 0.90846 1.627 1.459-0.94531-0.87192-1.627-1.459-1.627-1.459 0.11934 0.13042 0.22777 0.26201 0.3457 0.39258-0.17513-0.15453-0.54492-0.49219-0.54492-0.49219s0.62699 3.4364 1.0176 5.5742c-9.1693-14.582-22.972-21.601-23.938-22.08-0.0447-0.02906-0.28125-0.19336-0.28125-0.19336s0.72409 4.1269 1.8125 12.855c-13.855-11.043-30.536-20.088-50.412-25.557z" fill="#d94300"/>
<path d="m237 23.1c32.5 21.4 44.599 39.601 52.199 55.801-8.7-8.9-23.5-18.1-33.6-18.9 14.834 11.076 39.625 43.68 37.561 93.049-6.7015-16.79-15.76-23.748-15.76-23.748 0.0116 0.13539 0.0254 0.29152 0.0371 0.42774-0.0785-0.0722-0.16073-0.16027-0.23828-0.22852 1.9979 18.277 2.6086 31.222 2.4238 40.969-0.0123 0.54025-0.0294 1.0818-0.0469 1.623-0.0249 0.84961-0.0528 1.6821-0.0898 2.4824-0.0469 0.98963-0.10955 1.9799-0.17578 2.9707-0.0423 0.60906-0.0797 1.2458-0.12891 1.8262-0.0242 0.30363-0.0578 0.6066-0.084 0.91016-0.8724 9.3664-2.6092 15.083-4.1504 20.998-1.8305-7.8168-4.248-12.18-4.248-12.18s-0.0535 0.4422-0.0606 0.51367c-0.0416-0.0931-0.0991-0.22355-0.13867-0.3125 0 0-0.59961 15.398-10.6 37.398-6.3068 13.858-12.743 19.713-16.754 20.967-1.3712 0.34542-2.5063 0.14573-3.3457-0.4668-0.0234 0.0926-0.0521 0.18143-0.0762 0.27344-0.0289-0.02-0.125-0.0723-0.125-0.0723 0.2-2.2 0.50039-4.4004-0.0996-5.9004 0 0-3.2008 1.1-5.3008 4-0.6 0.9-1.3672 1.7445-2.3047 2.5742-0.3125 0.27656-0.64414 0.55117-0.99414 0.82617-0.2 0.2 2.2996-3.1996 2.0996-3.0996-1.2 1-2.6004 2.1996-3.9004 3.5996-4.9 5.1-9.3992 10.799-11.699 9.1992 2.1-0.7 3.8988-3.3996 4.2988-6.0996-1.9 1.4-6.7988 4.9992-17.799 6.6992-4.5 0.7-23.6 4.2004-49.1-8.5996 3.7-0.4 9.3-1.6992 13.5 0.80078-4.2-4.6-14.501-3.7-21.801-6-6.4-2-14.7-11-19.5-15.5 17.222 4.2177 35.367 2.0239 47.658-4.1328 1.7744-0.87305 3.4289-1.8297 4.9414-2.8672 7.3896-5.1088 17.76-12.442 23.549-13.01 0.69488-4e-3 1.3784 0.0514 2.0508 0.20899 6.4 1.4 10.701-4.9988 5.7012-10.799s-17.201-13.5-33.701-9.4004c-12.7 3.2-23.399 13.299-41.199 6.2988-1.1-0.4-2.2008-0.9-3.3008-1.5s3.7 0.7 2.5 0c-3.3999-1.3-9.5991-4.0992-11.199-5.1992-0.3-0.2 2.6008 0.50078 2.3008 0.30078-3.7559-2.2224-6.584-4.3407-8.7715-6.3535-0.40439-0.37024-0.80086-0.74079-1.1621-1.1094-0.12401-0.12582-0.23468-0.24815-0.35352-0.37305-7.3858-7.8275-5.4277-15.168-4.3144-19.064 0.9448-3.3498 3.5078-6.318 5.1641-7.4727 0.12119-0.0762 0.2427-0.15259 0.36719-0.22461 0.0613-0.035 0.12235-0.0713 0.17969-0.0996 2.3937 0.89834 3.8906 1.6973 3.8906 1.6973s-1.1008-1.7016-1.8008-2.6016c0.2-0.1 0.3-0.0992 0.5-0.19922 2 0.7 6.4992 2.3 8.6992 3.5 2.325 1.125 3.4699 2.3059 3.8965 2.8262 0.14219 0.17344 0.20508 0.27344 0.20508 0.27344s0.7-0.5 0-2c-0.3-0.7-1.4004-2.6004-4.4004-4.4004h0.0996c1.6 0.6 3.2996 1.4 5.0996 2.5 0.6-2.7 1.7-5.4984 1-10.398-0.6-3.5-0.49883-4.3016-1.2988-5.6016-0.7-1.1 0.19883-1.4996 1.2988-0.59961-0.3-0.9-0.69961-1.6996-1.0996-2.5996 4e-3 -0.0189 0.0166-0.0413 0.0215-0.0606 0.12528 0.2493 0.23299 0.39494 0.3418 0.36719 0.0681 0.079 0.11657 0.0739 0.13672-0.10742 5.3-6.4 26.2-16.1 30.9-21.1 0.59377-0.64325 1.0826-1.1926 1.4902-1.6738-0.0286 0.0795-0.0632 0.20536-0.0898 0.27344 2.7-2.1 3.8996-4.1 5.0996-7 1.2-3 2.5996-10-1.4004-11.5-3.1694-0.76834-5.9936-1.3444-10.994-1.3008-4.1821-0.30653-9.7761-0.4547-17.406-0.39839-11.1 0.1-16.3-9.5992-18.1-13.699-0.0325 0.11756-0.0599 0.23588-0.0918 0.35352-0.0307-0.07805-0.0799-0.18065-0.10742-0.25391 3.2-11.7 9.6988-21.901 19.799-30.201 0.6-0.5-2.3988 0.30078-1.7988-0.19922 0.7-0.6 4.9988-2.6996 5.7988-3.0996 1-0.6-4.7-2.0996-9.5-1.0996-3.675 0.75-5.1 1.275-6.6797 2.0391-0.52656 0.25469-1.0707 0.53438-1.7207 0.85938 1-1.1 4.3-2.6996 3.5-2.5996-4.6375 1.05-10.04 3.8623-14.869 7.0273-0.68985 0.45215-1.3668 0.91055-2.0293 1.373 0-0.5-3.9e-4 -0.89961 0.0996-1.5996-2.5 1.3-8.5996 6-10.1 9.5 0-0.8-2e-3 -1.2-0.10156-2-1.7 1.6-3.3984 3.5-4.8984 5.5 0 0-0.0131 0.03678-0.043 0.06641-5.9238-1.4761-11.365-2.1874-16.25-2.4043-8.9039-0.44578-16.898 0.71221-24.051 2.959-3.7812-3.0727-9.3674-8.4165-13.656-15.322-0.073959-0.11094-0.13193-0.10922-0.18359-0.070313-0.07613-0.05081-0.13399 0.0063-0.18555 0.11524-0.01069-0.01649-0.02055-0.02839-0.03125-0.04492-0.25249-0.37874-0.35139 0.24748-0.48633 0.63281-2.66-4.8201-4.8165-12.895-5.1133-18.633 0 0-0.0637 0.04258-0.0957 0.0625-0.0011-0.01996-0.0048-0.04259-0.0059-0.0625 0 0-0.11355 0.07333-0.28125 0.19141-0.0036-0.06148-0.01443-0.13045-0.01758-0.19141 0 0-4.4012 2.5-7.2012 11.5-0.28876 0.92403-0.53381 1.5936-0.75586 2.1855 0.052-0.7545 0.10883-1.5412 0.05668-1.3848-0.02137 0.04701-0.06854 0.11258-0.09375 0.16211-0.0015-0.05905 0.0067-0.19984-0.0059-0.16211-0.06869 0.15112-0.19627 0.34523-0.30078 0.52148 0.0035-0.0597 0.01113-0.14767 0.01367-0.19922 0.012544-0.25312 0.011372-0.39727-0.013628-0.32227-0.5 1.1-2.0996 2.9004-2.5996 4.9004-0.3 1.125-0.7125 1.9121-0.98438 3.0371-0.01403 0.05805-0.01996 0.13538-0.0332 0.19531-0.02049-0.45096-0.04289-0.82852-0.08203-0.63281-0.0043 0.01152-0.0093 0.02363-0.01367 0.03516-0.01204-0.07945-0.03417-0.13476-0.08594-0.13476h-0.10156c-0.03487 0.08718-0.06864 0.1871-0.10352 0.2793-0.02951-0.2237-0.06254-0.37878-0.0957-0.2793-1.3 3.3-2.4004 7.1004-3.4004 11.4-0.96397 4.6821-1.9099 10.578-2.123 17.631-0.41726 6.8931-0.1564 12.083 0.22265 13.068 0.03503-0.03503 0.05667-0.06354 0.08984-0.09766 8.9e-4 0.0032 0.0011 0.0086 2e-3 0.01172-4.2941 5.8939-6.9927 10.889-8.0918 13.387-2.6804 5.2061-5.3862 11.889-7.9688 20.441 0.13048 4.2249 0.33933 8.392 0.625 12.486 0.3048-0.57872 0.61146-1.16 0.93555-1.75-0.28928 0.91826-0.57224 1.8804-0.85156 2.8691 3.8537 52.666 19.369 93.18 19.369 93.18s-5.778-40.39-2.2344-53.615c6.7019 43.563 20.106 64.226 31.275 85.449 0 0-6.1439-27.365-2.793-38.535 13.962 57.525 81.541 76.514 81.541 76.514s-23.457-15.079-25.691-33.51c80.385 66.441 163.12 32.905 201.44 10.391 4.3463-3.772 8.6381-8.0036 12.459-12.721 3.0442-3.6899 5.3811-7.2838 7.2207-10.646 4.0464-7.2645 6.7947-15.407 7.2793-24.453-0.13813 2.0226-0.61902 4.015-1.3711 5.9707 0.0412-0.22672 0.0833-0.45387 0.12304-0.67968 1.8964-6.5203 1.7202-12.34-0.67382-16.346 10.834-20.486 23.382-59.967 12.904-94.617-0.13036-0.43559-0.28379-0.86528-0.42187-1.2988-0.39293-1.3017-0.66164-2.0261-0.66211-2.0274-0.0351-0.10037-0.0641-0.20248-0.0996-0.30273 0.0303 0.11652 0.054 0.23307 0.084 0.34961v2e-3c-0.0295 0.0886-2.9391 8.8325-6.8047 21.875 2.0396-18.943 0.61401-38.679-5.9785-56.926-3.0804-8.5788-6.9042-15.7-10.645-21.43-4.9628-8.1596-10.447-14.4-14.756-17.371 0.55083 0.41482 1.0925 0.90846 1.627 1.459-0.94531-0.87192-1.627-1.459-1.627-1.459 0.11934 0.13042 0.22777 0.26201 0.3457 0.39258-0.17513-0.15453-0.54492-0.49219-0.54492-0.49219s0.62699 3.4364 1.0176 5.5742c-9.1693-14.582-22.972-21.601-23.938-22.08-0.0447-0.02906-0.28125-0.19336-0.28125-0.19336s0.72409 4.1269 1.8125 12.855c-13.855-11.043-30.536-20.088-50.412-25.557z" fill="#ff7500" stroke="#d94300" stroke-width="5.709"/>
</g>
</g>
<g transform="matrix(.19523 0 0 .19523 584.86 524.65)" fill="#0079ff">
<path d="m533.03 388.73c0-16.968-4.387-32.909-12.08-46.761 32.791-74.213-35.136-63.343-38.918-62.603-14.391 2.816-27.705 7.337-39.986 13.068-1.811-0.102-3.633-0.158-5.469-0.158-45.833 0-84.198 31.968-94.017 74.823 24.157-27.101 41.063-38.036 51.187-42.412-1.616 1.444-3.198 2.904-4.754 4.375-0.518 0.489-1.017 0.985-1.528 1.477-1.026 0.987-2.05 1.975-3.05 2.972-0.595 0.593-1.174 1.191-1.76 1.788-0.887 0.903-1.772 1.805-2.638 2.713-0.615 0.645-1.215 1.292-1.819 1.938-0.809 0.866-1.613 1.733-2.402 2.603-0.613 0.676-1.216 1.352-1.818 2.03-0.748 0.842-1.489 1.684-2.22 2.528-0.606 0.7-1.207 1.4-1.801 2.101-0.693 0.818-1.377 1.636-2.054 2.454-0.599 0.724-1.196 1.447-1.782 2.17-0.634 0.782-1.254 1.563-1.873 2.343-0.6 0.756-1.2 1.511-1.786 2.266-0.558 0.719-1.1 1.435-1.646 2.152-0.616 0.81-1.237 1.62-1.837 2.426-0.429 0.577-0.841 1.148-1.262 1.723-3.811 5.2-7.293 10.3-10.438 15.199-8e-3 0.012-0.016 0.024-0.023 0.036-0.828 1.29-1.627 2.561-2.41 3.821-0.042 0.068-0.086 0.137-0.128 0.206-0.784 1.265-1.541 2.508-2.279 3.738-0.026 0.043-0.053 0.087-0.079 0.13-1.984 3.311-3.824 6.503-5.481 9.506-8.687 15.743-12.916 26.742-13.099 27.395-27.432 98.072 58.184 56.657 70.131 50.475 12.864 6.355 27.346 9.932 42.666 9.932 41.94 0 77.623-26.771 90.905-64.156h-50.68c-7.499 12.669-21.936 21.25-38.522 21.25-24.301 0-44-18.412-44-41.125h137.96c0.523-4.068 0.794-8.214 0.794-12.423zm-18.018-94.916c8.306 5.606 14.968 14.41 3.527 44.059-10.973-17.647-27.482-31.49-47.104-39.099 8.926-4.311 31.031-13.429 43.577-4.96zm-176.52 181.24c-6.765-6.938-7.961-23.836 6.967-54.628 7.534 21.661 22.568 39.811 42 51.33-9.664 5.319-35.32 17.295-48.967 3.298zm55.571-100.28c0.771-22.075 19.983-39.75 43.588-39.75 23.604 0 42.817 17.675 43.588 39.75h-87.176z" fill="#0079ff"/>
</g>
<g transform="matrix(.89237 0 0 .89237 8.8842 52.706)">
<g>
<path d="m735.25 656.43c-0.59816-0.0168-1.1164-6e-3 -1.5371 0.01-0.48082 0.018-0.83381 0.043-1.0293 0.043-1.5626 0-9.5936 0.7307-15.445 8.4785-2e-3 2e-3 -6e-3 2e-3 -8e-3 4e-3 -3e-3 5e-3 -5e-3 9e-3 -8e-3 0.0137-0.1429 0.22944-0.2839 0.47263-0.39648 0.67774 0.85135 1.7228-0.66813 6.4708 1.6074 9.4023 2.0592 2.6528 4.6354 4.7967 6.793 5.2773-0.33288-0.95937-0.52344-1.9872-0.52344-3.0605 0-5.1404 4.1506-9.3066 9.2695-9.3066 0.70247 0 1.3833 0.0857 2.041 0.23437 7.7667 0.0167 15.728-0.019 16.871-0.0137-5.3813-10.195-13.448-11.642-17.635-11.76z" fill="#038800"/>
<path d="m716.83 665.65c-8.0324 12.735-0.84674 21.992-0.0664 23.348 0.77995 1.3546 5.4216 7.9562 15.062 9.1582 1e-3 1.7e-4 3e-3 -1.6e-4 4e-3 0 4e-3 5.3e-4 6e-3 9.6e-4 0.01 2e-3 0.21891 0.0302 0.35441 0.0327 0.58008 0.041 1.4424-1.2698 5.8192-1.4588 8.0586-4.418 2.9314-3.8736 3.8734-9.375 1.543-11.139-0.10685-0.0809-0.22147-0.1464-0.33789-0.20898-1.6614 2.5023-4.4952 4.1523-7.7148 4.1523-4.1787 0-7.7084-2.7774-8.8652-6.5938-3.8088-6.6449-7.7155-13.362-8.2734-14.342z" fill="#11bc00"/>
<path d="m736.08 668.22c4.1006 0.96034 7.1582 4.6444 7.1582 9.0547 0 2.5881-1.054 4.9282-2.752 6.6152-3.8508 6.6334-7.4868 13.333-8.0664 14.307 15.04 0.6985 19.544-10.121 20.338-11.469 0.79342-1.3477 4.2443-8.6491 0.52149-17.633v-2e-3c-0.13783-0.34678-0.24297-0.571-0.38281-0.873z" fill="#74ff5d"/>
</g>
<path d="m741.79 677.32c0 4.3105-3.4798 7.8049-7.7723 7.8049-4.2925 0-7.7723-3.4944-7.7723-7.8049s3.4798-7.8049 7.7723-7.8049c4.2925 0 7.7723 3.4944 7.7723 7.8049z" fill="#b4ebb1"/>
</g>
</g>
<g transform="translate(-.54804 -272)">
<path d="m-1417.5 15.094s27.5 12.25 26.625 21.5-10.625 16.75-10.625 16.75l-15-4.25s1.875-8.875 1-10.875c0 0-15.875-7.25-25.5-6.5s-33.125 11.75-33.5 14.25 4.75 7.125 4 9.375-16.75 4.75-16.75 4.75l-6.375-13.375c-1.75-3.75-1.625-5.625 0.125-7.875l28-20.375" fill="#272727" fill-rule="evenodd"/>
<rect transform="matrix(.95663 .2913 -.2913 .95663 0 0)" x="-1352.5" y="294.99" width="7.4959" height="5.9507" rx="1.8505" ry="1.8505" fill="#272727"/>
<ellipse transform="matrix(.98874 .14967 -.14967 .98874 0 0)" cx="-1455.6" cy="130.41" rx="29.507" ry="34.45" fill="#272727"/>
<g fill-rule="evenodd">
<path transform="translate(-1052.7 -193.78)" d="m-432.02 89.789a29.507 34.45 8.6078 0 0 -3.207 10.65 29.507 34.45 8.6078 0 0 -0.32227 3.084l57.734 0.85156s0.6801-0.18435 1.3711-0.57617a29.507 34.45 8.6078 0 0 -0.1914 -4.377c-0.2746-0.23956-0.49219-0.46141-0.49219-0.67188 0-0.24138 0.13823-0.44513 0.32422-0.64453a29.507 34.45 8.6078 0 0 -1.2656 -5.8848c-0.56428-0.42657-1.1221-0.7207-1.5586-0.7207l-52.393-1.7109z" fill="#000000"/>
<path d="m-1450.3-92.549c2.2851-2.5438-11.413-10.219-15.613-1.9342-0.1908 0.33877 0.018 0.58281 0.4232 0.47431 3.3625-0.76445 10.312-1.4913 15.19 1.4599z" fill="#ffffff"/>
<path d="m-1471.6-93.248c2.4431-2.3923-10.736-10.928-15.457-2.9293-0.2121 0.32587-0.019 0.58277 0.392 0.50042 3.4045-0.54772 10.386-0.82838 15.065 2.4289z" fill="#ffffff"/>
</g>
<path d="m-1479.2-4.4057-14.5-16c-1.0625-1.0625-1.4375-2.5625 0.375-3.125l15.75-4.25 10 47.75 53.5-15.125-8.875-48.125 32.125-25.75 1.75-3.875 6.5-31.875-15.125-2-1.5 23.375c-0.4375 3.5-1.4375 6.5-4.125 8.75 0 0-18.079 17.655-22.625 17.875s-27.125-1.625-27.125-1.625l-14.375 8.125-9.5 1.75-27.5 19.5c-4 2.625-4.5 9.25-0.625 13.875l16.125 18.875" fill="#272727" fill-rule="evenodd"/>
<g transform="matrix(-.58113 -.81381 .81381 -.58113 -2250.9 -1316.3)" fill-rule="evenodd">
<path d="m-1476.5-6.6352 106.33-83.881-3.3588 13.612-97.227 76.544z" fill="#949494"/>
<path transform="translate(-1052.7 -193.78)" d="m-318.12 103.77-105.7 83.377 2.4004 2.6211 98.363-76.07 4.9336-9.9277z" fill="#737373"/>
</g>
<rect transform="matrix(.98494 .1729 -.1729 .98494 0 0)" x="-1396.4" y="122.38" width="19.688" height="17.25" ry="5.5371" fill="#000000"/>
<path transform="translate(-1052.7 -193.78)" d="m-384.43 136.53-12.973 22.188c-9.3325-5.6138-18.501-11.121-20.322-12.227-1.387-0.84211-2.8124-1.3576-4.1504-1.6738l-2.377 0.4375-3.25 2.3047c1.4705 4.1861 4.916 8.6543 4.916 8.6543l19.73 11.828-15.9 27.193 2.6641 12.715c1.7003-2.7347 11.589-18.645 21.611-34.887l31.918 19.133-2.5976-14.082c-2.387-1.4366-12.435-7.4837-23.668-14.238 6.1839-10.069 11.402-18.634 11.584-19.24 0.34061-1.1352-0.39639-5.0145-0.97851-7.7422-1.8377-0.0845-3.9956-0.22204-6.207-0.36328z" fill="#000000" fill-rule="evenodd" stroke="#000000" stroke-width="1px"/>
<g fill-rule="evenodd">
<path d="m-1477.1-5.3227 106.89-85.193-3.3588 13.612-97.79 77.857z" fill="#737373"/>
<path transform="translate(-1052.7 -193.78)" d="m-318.12 103.77-106.26 84.689 2.4004 2.6211 98.926-77.383z" fill="#949494"/>
</g>
<g>
<rect transform="matrix(.77887 -.62719 .62719 .77887 0 0)" x="-1170.7" y="-930.26" width="7.4959" height="5.9507" rx="1.8505" ry="1.8505" fill="#272727"/>
<g fill="#000000">
<rect transform="matrix(.75802 -.65223 .65223 .75802 0 0)" x="-1134" y="-971.69" width="19.042" height="16.685" ry="5.3556"/>
<path d="m-1483.3-8.9112-10.098 7.3804c-1.149 3.1599 3.0494 6.9606 3.0494 6.9606l10.739-10.562z" fill-rule="evenodd"/>
</g>
<path d="m-1468.7 13.282 53.5-11.188c2.1942-0.58793 2.5011 13.562 0.6875 13.562l-49.938 8.4375c-4.2103 0-4.25-10.812-4.25-10.812z" fill="#000000" fill-rule="evenodd"/>
</g>
<g fill="#000000" fill-rule="evenodd">
<path d="m-1415.3 44.907-5.875 13.062s27.92 11.36 30.5 12.312c4.0625 1.5 6.6558-4.0662 6.1875-7.8125-0.8125-6.5-17.438-7.3125-17.438-7.3125l5.0625-5.8125z"/>
<path d="m-1470.8 53.657 2.6875 10.062c0 1.0625-7.75 7-9 7l-22.875 0.375c-2.326 0-3.375-8.8125 0-8.8125 0 0 9.3125 0.0625 12.5-4.3125z"/>
</g>
</g>
<g transform="translate(0 -272)">
<g>
<g fill-rule="evenodd">
<path d="m-1744.2 47.193-24.042-8.8388s-8.7504 14.054-8.4852 16.44c0.2651 2.3865 0.7954 13.17 3.889 13.258 3.0936 0.0884 15.291-0.53033 15.468-3.182 0.1768-2.6517-8.2201-4.2426-7.7782-6.0104 0.442-1.7678 12.905 5.0381 12.905 5.0381z" fill="#000000"/>
<path d="m-1680.3 15.469s3.5-1.5 18.5-1.25 24.25 1.625 26.625 30.5l-17.75 1.125s2.125-15.25-0.75-16.75-47.375 5.125-49.625 6.5-16.25 28.875-19.75 31.5-30-2.875-30-2.875l8.75-17s12.375 5.25 13.625 3.75 1.25-25.5 1.25-25.5z" fill="#13213b"/>
<path d="m-1741-30.408s-10.715 9.0119-10.627 9.9842l-10.783 5.922c-3.0937-2.4307 0.2209-12.949 1.5909-14.186 2.0952-1.8923 12.386-12.682 25.033-20.317 3.8933-2.3503 12.75-3.8876 14.85-7.1989 7.4647-11.771 11.824 1.4856 15.448 1.0437 3.6239-0.44194 13.17-3.4472 16.352 0.35355s14.496 16.882 16.971 16.352c2.4748-0.53033 4.6845-12.198 4.6845-12.198 5.4801 0.17679 9.8995-2.5632 9.8995-2.5632s-1.7678 27.842-5.4801 29.257-20.594-7.955-20.594-7.955 10.184 44.161 7.2479 48.005c-3.1857 2.9686-54.182 11.304-54.182 11.304l-10.409-57.802" fill="#000000"/>
<path d="m-1713-40.406-34 34.125-47.625 19.625s32.125 4 34.875 7.25 6.875 43.875 6.875 43.875l40.125-61.75 26.5-8.75-22.5-10.75z" fill="#d94300"/>
</g>
<rect transform="matrix(.66813 .74404 -.74404 .66813 0 0)" x="-1161.1" y="1167.1" width="7.8366" height="139.35" fill="#690000"/>
<rect transform="matrix(.65877 .75234 -.75234 .65877 0 0)" x="-1147.1" y="1318.7" width="12.241" height="3.4135" rx=".75275" ry=".75275" fill="#000000"/>
<circle cx="-1737.1" cy="20.251" r="2.2812" fill="#444444"/>
<circle cx="-1742.3" cy="24.876" r="2.2812" fill="#660000"/>
</g>
<g fill="none" stroke="#000000" stroke-width=".5">
<path d="m-1745.5 9.4693 99.406-90.406"/>
<path d="m-1643.6-80.031-101.94 92.753"/>
<path d="m-1743.7 13.959 102.8-93.073"/>
</g>
<g>
<path transform="translate(-1052.7 -193.78)" d="m-668.53 180.09c-1.3607 0.12127-3.5067 1.5629-5.2617 2.5469h-7.952c-1.469 0-2.814 1.1922-2.6524 2.6523l1.0277 9.2817c0.16167 1.4601 1.1833 2.6504 2.6524 2.6504h11.125c1.469 0 2.6524-1.1814 2.6524-2.6504v-6.602c1.296-0.0485 2.6063-0.3572 2.6504-1.3984 0.0884-2.0771-4.1094-1.6797-4.1094-1.6797l-2e-3 6e-3c-1.4702-0.12515-2.5251-0.44482-3.2754-0.90039 3.809-1.1319 5.2749-2.3728 4.1172-3.6133-0.23202-0.24859-0.56731-0.32909-0.97266-0.29297z" fill="#e09a54"/>
<path d="m-1751.9-20.601 16.264 11.623-0.2651 11.225-26.826-16.926z" fill="#000000" fill-rule="evenodd"/>
<rect transform="matrix(.91807 .39642 -.39642 .91807 0 0)" x="-1554.5" y="593.35" width="3.1436" height="6.5096" rx="1.433" ry="1.7766" fill="#e09a54"/>
<path d="m-1667.4-50.281-0.5-6.6875c0.062-0.5 0.75-2.75 2.75-3.1875l2.1875 2.125c0.5-2.125 2.9375-3.375 3.75-2.875 0 0 1.0625-5.6875 3.25-5.375 0.9375 0.25 1.6875 11.375-2 13.375s-9.4375 2.625-9.4375 2.625z" fill="#e09a54" fill-rule="evenodd"/>
</g>
<g>
<path d="m-1639-103.78 3.875 11.625 13.875 4.5-16.125 8.75-1.25 8.25-4.25-8.125-7.625-2.875 9.375-9.5z" fill="#d94300" fill-rule="evenodd"/>
<g transform="translate(-27.75 15.375)" fill="#690000">
<circle cx="-1610.5" cy="-105.97" r="1.4688"/>
<circle cx="-1613.4" cy="-101.94" r="1.4688"/>
<circle cx="-1616.2" cy="-98.374" r="1.4688"/>
<circle cx="-1611.7" cy="-95.031" r="1.4688"/>
<circle cx="-1607.7" cy="-98.093" r="1.4688"/>
<circle cx="-1603.4" cy="-101" r="1.4688"/>
</g>
</g>
<g fill-rule="evenodd">
<path d="m-1751.2-71.07c14.672 15.203 21.567 19.622 42.073 12.905 20.506-6.7175 17.678-18.562 17.501-24.395-0.1767-5.8336-11.314-31.289-30.582-36.946-19.269-5.6568-38.007 22.097-38.007 22.097z" fill="#e09a54"/>
<path d="m-1723.2-120.48 13.17-2.1213-14.231-0.35355 6.2756-8.3969-10.165 6.5407-1.2374-11.667-4.0659 10.607-9.0156-3.8007 3.8891 6.4524-14.761-2.3865 6.1871 4.4194-22.539 3.2704 15.114 3.0936-29.787 16.882h14.23l-6.364 20.064 5.0382-4.5078v18.208l4.0658-9.8111 3.6239 26.605 3.0936-13.258 5.3917 26.958 2.6517-19.711 5.7452 13.435-0.9723-16.794 6.6292 10.165-5.3033-21.213 5.4801 6.2756-5.0382-13.17 2.8284 2.2981-4.5962-7.7782 7.2479 0.7071-13.789-14.584 3.0052 0.7071-0.2652-9.2808 5.9221 7.2478 0.8838-13.965 3.9775 5.8336 2.9168-9.1924 3.0052 10.783 3.9775-9.8995 7.6898 5.2149-4.2426-6.0104 16.263-0.61872z" fill="#2f1d00"/>
<path d="m-1703.6-114.03-37.477 26.34-8.8389 2.3865 1.9446 2.6516 8.4852-2.4749s3.4472 3.182 9.0157 3.182c5.5684 0 13.081-7.2478 8.662-16.617l1.591-1.7678s3.1819 5.2149 8.1317 5.2149c4.9497 0 16.617-6.9827 8.4853-18.915z" fill="#000000"/>
</g>
<path d="m-1716.9-94.67c0.9722 0 17.589 4.331 17.589 4.331l-11.756 8.5737" fill="none" stroke="#000000" stroke-width="1px"/>
<path d="m-1725.6-66.121c8.6621-1.3258 18.385-5.3033 22.627-9.2808 2.9168 8.8388-9.0155 15.291-22.627 9.2808z" fill="#ffffff" fill-rule="evenodd"/>
<path d="m-1653 45.779-4.5961 22.716s24.837-0.0884 31.731-0.0884 7.2478-13.523-0.6187-11.49c-7.8666 2.0329-10.165 3.182-11.225 2.2981-1.0606-0.88388 2.9168-15.026 2.9168-15.026z" fill="#000000" fill-rule="evenodd"/>
</g>
<g transform="translate(3.0617 -300)">
<g id="g5245">
<path transform="translate(-1052.7 -193.78)" d="m-745.64 306.21v24.395c1.6046 0.62971 3.8945 1.5254 3.8945 1.5254l-3.8945 2.5352v22.102s50.912-4.5962 84.854 0v-50.557z" fill="#b9a275"/>
<path d="m-1780.7 145.47 67.25 17.625-0.375-21" fill="#695b42" fill-rule="evenodd"/>
</g>
<use transform="matrix(-1 0 0 1 -3155.9 0)" width="100%" height="100%" xlink:href="#g5245"/>
<rect x="-1781" y="96.514" width="405.88" height="49.497" fill="#cab180"/>
</g>
<text x="-1764.864" y="-171.36192" fill="#000000" font-family="sans-serif" letter-spacing="0px" stroke-width="1px" word-spacing="0px" style="line-height:0%" xml:space="preserve"><tspan x="-1764.864" y="-171.36192" font-family="FreeMono" font-size="33.453px" font-weight="bold" style="line-height:1.25">BRISBANE JAVASCRIPT</tspan></text>
<g transform="translate(0 -272)">
<g>
<g fill-rule="evenodd">
<path d="m-1744.2 47.193-24.042-8.8388s-8.7504 14.054-8.4852 16.44c0.2651 2.3865 0.7954 13.17 3.889 13.258 3.0936 0.0884 15.291-0.53033 15.468-3.182 0.1768-2.6517-8.2201-4.2426-7.7782-6.0104 0.442-1.7678 12.905 5.0381 12.905 5.0381z" fill="#000000"/>
<path d="m-1680.3 15.469s3.5-1.5 18.5-1.25 24.25 1.625 26.625 30.5l-17.75 1.125s2.125-15.25-0.75-16.75-47.375 5.125-49.625 6.5-16.25 28.875-19.75 31.5-30-2.875-30-2.875l8.75-17s12.375 5.25 13.625 3.75 1.25-25.5 1.25-25.5z" fill="#13213b"/>
<path d="m-1741-30.408s-10.715 9.0119-10.627 9.9842l-10.783 5.922c-3.0937-2.4307 0.2209-12.949 1.5909-14.186 2.0952-1.8923 12.386-12.682 25.033-20.317 3.8933-2.3503 12.75-3.8876 14.85-7.1989 7.4647-11.771 11.824 1.4856 15.448 1.0437 3.6239-0.44194 13.17-3.4472 16.352 0.35355s14.496 16.882 16.971 16.352c2.4748-0.53033 4.6845-12.198 4.6845-12.198 5.4801 0.17679 9.8995-2.5632 9.8995-2.5632s-1.7678 27.842-5.4801 29.257-20.594-7.955-20.594-7.955 10.184 44.161 7.2479 48.005c-3.1857 2.9686-54.182 11.304-54.182 11.304l-10.409-57.802" fill="#000000"/>
<path d="m-1713-40.406-34 34.125-47.625 19.625s32.125 4 34.875 7.25 6.875 43.875 6.875 43.875l40.125-61.75 26.5-8.75-22.5-10.75z" fill="#d94300"/>
</g>
<rect transform="matrix(.66813 .74404 -.74404 .66813 0 0)" x="-1161.1" y="1167.1" width="7.8366" height="139.35" fill="#690000"/>
<rect transform="matrix(.65877 .75234 -.75234 .65877 0 0)" x="-1147.1" y="1318.7" width="12.241" height="3.4135" rx=".75275" ry=".75275" fill="#000000"/>
<circle cx="-1737.1" cy="20.251" r="2.2812" fill="#444444"/>
<circle cx="-1742.3" cy="24.876" r="2.2812" fill="#660000"/>
</g>
<g fill="none" stroke="#000000" stroke-width=".5">
<path d="m-1745.5 9.4693 99.406-90.406"/>
<path d="m-1643.6-80.031-101.94 92.753"/>
<path d="m-1743.7 13.959 102.8-93.073"/>
</g>
<g>
<path transform="translate(-1052.7 -193.78)" d="m-668.53 180.09c-1.3607 0.12127-3.5067 1.5629-5.2617 2.5469h-7.952c-1.469 0-2.814 1.1922-2.6524 2.6523l1.0277 9.2817c0.16167 1.4601 1.1833 2.6504 2.6524 2.6504h11.125c1.469 0 2.6524-1.1814 2.6524-2.6504v-6.602c1.296-0.0485 2.6063-0.3572 2.6504-1.3984 0.0884-2.0771-4.1094-1.6797-4.1094-1.6797l-2e-3 6e-3c-1.4702-0.12515-2.5251-0.44482-3.2754-0.90039 3.809-1.1319 5.2749-2.3728 4.1172-3.6133-0.23202-0.24859-0.56731-0.32909-0.97266-0.29297z" fill="#e09a54"/>
<path d="m-1751.9-20.601 16.264 11.623-0.2651 11.225-26.826-16.926z" fill="#000000" fill-rule="evenodd"/>
<rect transform="matrix(.91807 .39642 -.39642 .91807 0 0)" x="-1554.5" y="593.35" width="3.1436" height="6.5096" rx="1.433" ry="1.7766" fill="#e09a54"/>
<path d="m-1667.4-50.281-0.5-6.6875c0.062-0.5 0.75-2.75 2.75-3.1875l2.1875 2.125c0.5-2.125 2.9375-3.375 3.75-2.875 0 0 1.0625-5.6875 3.25-5.375 0.9375 0.25 1.6875 11.375-2 13.375s-9.4375 2.625-9.4375 2.625z" fill="#e09a54" fill-rule="evenodd"/>
</g>
<g>
<path d="m-1639-103.78 3.875 11.625 13.875 4.5-16.125 8.75-1.25 8.25-4.25-8.125-7.625-2.875 9.375-9.5z" fill="#d94300" fill-rule="evenodd"/>
<g transform="translate(-27.75 15.375)" fill="#690000">
<circle cx="-1610.5" cy="-105.97" r="1.4688"/>
<circle cx="-1613.4" cy="-101.94" r="1.4688"/>
<circle cx="-1616.2" cy="-98.374" r="1.4688"/>
<circle cx="-1611.7" cy="-95.031" r="1.4688"/>
<circle cx="-1607.7" cy="-98.093" r="1.4688"/>
<circle cx="-1603.4" cy="-101" r="1.4688"/>
</g>
</g>
<g fill-rule="evenodd">
<path d="m-1751.2-71.07c14.672 15.203 21.567 19.622 42.073 12.905 20.506-6.7175 17.678-18.562 17.501-24.395-0.1767-5.8336-11.314-31.289-30.582-36.946-19.269-5.6568-38.007 22.097-38.007 22.097z" fill="#e09a54"/>
<path d="m-1723.2-120.48 13.17-2.1213-14.231-0.35355 6.2756-8.3969-10.165 6.5407-1.2374-11.667-4.0659 10.607-9.0156-3.8007 3.8891 6.4524-14.761-2.3865 6.1871 4.4194-22.539 3.2704 15.114 3.0936-29.787 16.882h14.23l-6.364 20.064 5.0382-4.5078v18.208l4.0658-9.8111 3.6239 26.605 3.0936-13.258 5.3917 26.958 2.6517-19.711 5.7452 13.435-0.9723-16.794 6.6292 10.165-5.3033-21.213 5.4801 6.2756-5.0382-13.17 2.8284 2.2981-4.5962-7.7782 7.2479 0.7071-13.789-14.584 3.0052 0.7071-0.2652-9.2808 5.9221 7.2478 0.8838-13.965 3.9775 5.8336 2.9168-9.1924 3.0052 10.783 3.9775-9.8995 7.6898 5.2149-4.2426-6.0104 16.263-0.61872z" fill="#2f1d00"/>
<path d="m-1703.6-114.03-37.477 26.34-8.8389 2.3865 1.9446 2.6516 8.4852-2.4749s3.4472 3.182 9.0157 3.182c5.5684 0 13.081-7.2478 8.662-16.617l1.591-1.7678s3.1819 5.2149 8.1317 5.2149c4.9497 0 16.617-6.9827 8.4853-18.915z" fill="#000000"/>
</g>
<path d="m-1716.9-94.67c0.9722 0 17.589 4.331 17.589 4.331l-11.756 8.5737" fill="none" stroke="#000000" stroke-width="1px"/>
<path d="m-1725.6-66.121c8.6621-1.3258 18.385-5.3033 22.627-9.2808 2.9168 8.8388-9.0155 15.291-22.627 9.2808z" fill="#ffffff" fill-rule="evenodd"/>
<path d="m-1653 45.779-4.5961 22.716s24.837-0.0884 31.731-0.0884 7.2478-13.523-0.6187-11.49c-7.8666 2.0329-10.165 3.182-11.225 2.2981-1.0606-0.88388 2.9168-15.026 2.9168-15.026z" fill="#000000" fill-rule="evenodd"/>
</g>
</g>
</g>
</svg>
